<svg id="svg" version="1.1" xmlns="http://www.w3.org/2000/svg" xmlns:xlink="http://www.w3.org/1999/xlink" width="400" height="400" viewBox="0, 0, 400,400"><g id="svgg"><path id="path0" d="M198.000 46.000 C 198.000 46.220,197.640 46.400,197.200 46.400 C 196.760 46.400,196.400 46.580,196.400 46.800 C 196.400 47.020,196.134 47.200,195.809 47.200 C 195.484 47.200,194.901 47.695,194.512 48.300 C 194.124 48.905,193.492 49.747,193.108 50.171 C 192.724 50.594,192.291 51.314,192.147 51.771 C 192.003 52.227,191.551 52.891,191.143 53.247 C 190.734 53.603,190.400 54.116,190.400 54.386 C 190.400 54.657,189.860 55.383,189.200 56.000 C 188.540 56.617,188.000 57.369,188.000 57.672 C 188.000 57.975,187.640 58.483,187.200 58.800 C 186.760 59.117,186.400 59.519,186.400 59.692 C 186.400 59.865,185.860 60.572,185.200 61.263 C 184.540 61.954,184.000 62.674,184.000 62.863 C 184.000 63.052,183.460 63.772,182.800 64.463 C 182.140 65.154,181.600 65.922,181.600 66.171 C 181.600 66.420,181.240 66.883,180.800 67.200 C 180.360 67.517,180.000 68.009,180.000 68.292 C 180.000 68.575,179.460 69.372,178.800 70.063 C 178.140 70.754,177.600 71.562,177.600 71.859 C 177.600 72.157,177.459 72.400,177.286 72.400 C 177.114 72.400,176.648 72.949,176.251 73.621 C 175.531 74.840,175.529 74.841,174.818 74.021 C 174.427 73.569,173.902 73.200,173.653 73.200 C 173.404 73.200,173.200 73.020,173.200 72.800 C 173.200 72.580,172.880 72.400,172.488 72.400 C 172.097 72.400,171.517 72.040,171.200 71.600 C 170.883 71.160,170.386 70.800,170.095 70.800 C 169.804 70.800,169.180 70.440,168.708 70.000 C 168.236 69.560,167.613 69.200,167.325 69.200 C 167.036 69.200,166.800 69.020,166.800 68.800 C 166.800 68.580,166.480 68.400,166.088 68.400 C 165.697 68.400,165.117 68.040,164.800 67.600 C 164.483 67.160,163.903 66.800,163.512 66.800 C 163.120 66.800,162.800 66.620,162.800 66.400 C 162.800 66.180,162.480 66.000,162.088 66.000 C 161.697 66.000,161.117 65.640,160.800 65.200 C 160.483 64.760,159.986 64.400,159.695 64.400 C 159.404 64.400,158.811 64.069,158.377 63.664 C 157.942 63.259,157.095 62.674,156.493 62.365 C 155.892 62.055,155.310 61.689,155.200 61.552 C 155.090 61.415,154.053 60.810,152.897 60.208 C 151.740 59.605,150.694 58.952,150.573 58.756 C 150.452 58.560,150.003 58.400,149.576 58.400 C 149.149 58.400,148.800 58.220,148.800 58.000 C 148.800 57.780,148.440 57.600,148.000 57.600 C 147.560 57.600,147.200 57.420,147.200 57.200 C 147.200 56.980,146.210 56.800,145.000 56.800 C 143.790 56.800,142.800 56.980,142.800 57.200 C 142.800 57.420,142.440 57.600,142.000 57.600 C 141.560 57.600,141.200 57.768,141.200 57.973 C 141.200 58.178,140.840 58.460,140.400 58.600 C 139.960 58.740,139.600 59.112,139.600 59.427 C 139.600 59.742,139.420 60.000,139.200 60.000 C 138.980 60.000,138.800 60.439,138.800 60.976 C 138.800 61.513,138.620 62.064,138.400 62.200 C 138.180 62.336,138.000 63.146,138.000 64.000 C 138.000 64.854,137.820 65.664,137.600 65.800 C 137.380 65.936,137.200 66.757,137.200 67.624 C 137.200 68.491,137.020 69.200,136.800 69.200 C 136.580 69.200,136.400 69.920,136.400 70.800 C 136.400 71.680,136.220 72.400,136.000 72.400 C 135.780 72.400,135.600 73.120,135.600 74.000 C 135.600 74.880,135.420 75.600,135.200 75.600 C 134.980 75.600,134.800 76.219,134.800 76.976 C 134.800 77.733,134.620 78.464,134.400 78.600 C 134.180 78.736,134.000 79.546,134.000 80.400 C 134.000 81.254,133.820 82.064,133.600 82.200 C 133.380 82.336,133.200 83.157,133.200 84.024 C 133.200 84.891,133.020 85.600,132.800 85.600 C 132.580 85.600,132.400 86.320,132.400 87.200 C 132.400 88.080,132.220 88.800,132.000 88.800 C 131.780 88.800,131.600 89.443,131.600 90.229 C 131.600 92.791,128.775 93.197,121.930 91.618 C 120.978 91.399,119.255 91.215,118.100 91.210 C 116.945 91.204,116.000 91.020,116.000 90.800 C 116.000 90.578,114.941 90.400,113.624 90.400 C 112.317 90.400,111.136 90.220,111.000 90.000 C 110.864 89.780,109.683 89.600,108.376 89.600 C 107.059 89.600,106.000 89.422,106.000 89.200 C 106.000 88.978,104.933 88.800,103.600 88.800 C 102.267 88.800,101.200 88.622,101.200 88.400 C 101.200 88.175,100.075 88.000,98.624 88.000 C 97.207 88.000,95.936 88.180,95.800 88.400 C 95.664 88.620,95.269 88.800,94.923 88.800 C 92.051 88.800,91.191 93.848,92.638 102.200 C 93.104 104.892,93.646 108.729,93.852 110.800 C 93.972 112.010,94.235 113.171,94.435 113.380 C 94.636 113.589,94.800 114.703,94.800 115.856 C 94.800 117.009,94.980 118.064,95.200 118.200 C 95.420 118.336,95.600 119.416,95.600 120.600 C 95.600 121.784,95.780 122.864,96.000 123.000 C 96.220 123.136,96.400 124.227,96.400 125.424 L 96.400 127.600 95.024 127.600 C 94.267 127.600,93.536 127.780,93.400 128.000 C 93.264 128.220,92.533 128.400,91.776 128.400 C 91.019 128.400,90.400 128.562,90.400 128.760 C 90.400 128.958,89.635 129.222,88.700 129.347 C 84.611 129.894,83.582 130.106,83.374 130.442 C 83.252 130.639,82.443 130.800,81.576 130.800 C 80.709 130.800,80.000 130.980,80.000 131.200 C 80.000 131.420,79.381 131.600,78.624 131.600 C 77.867 131.600,77.136 131.780,77.000 132.000 C 76.864 132.220,76.133 132.400,75.376 132.400 C 74.619 132.400,74.000 132.580,74.000 132.800 C 74.000 133.020,73.201 133.200,72.224 133.200 C 71.247 133.200,70.336 133.380,70.200 133.600 C 70.064 133.820,69.243 134.000,68.376 134.000 C 67.509 134.000,66.800 134.180,66.800 134.400 C 66.800 134.620,66.260 134.800,65.600 134.800 C 64.940 134.800,64.400 134.980,64.400 135.200 C 64.400 135.420,64.122 135.600,63.782 135.600 C 62.982 135.600,61.200 137.382,61.200 138.182 C 61.200 138.522,61.020 138.800,60.800 138.800 C 60.574 138.800,60.400 139.933,60.400 141.400 C 60.400 142.867,60.574 144.000,60.800 144.000 C 61.020 144.000,61.200 144.278,61.200 144.617 C 61.200 144.956,61.560 145.620,62.000 146.092 C 62.440 146.564,62.800 147.187,62.800 147.475 C 62.800 147.764,62.980 148.000,63.200 148.000 C 63.420 148.000,63.600 148.236,63.600 148.525 C 63.600 148.813,63.960 149.436,64.400 149.908 C 64.840 150.380,65.200 151.044,65.200 151.383 C 65.200 151.722,65.380 152.000,65.600 152.000 C 65.820 152.000,66.000 152.236,66.000 152.525 C 66.000 152.813,66.315 153.398,66.700 153.825 C 67.085 154.251,67.654 155.092,67.964 155.693 C 68.274 156.295,68.859 157.142,69.264 157.577 C 69.669 158.011,70.000 158.604,70.000 158.895 C 70.000 159.186,70.360 159.683,70.800 160.000 C 71.240 160.317,71.600 160.897,71.600 161.288 C 71.600 161.680,71.780 162.000,72.000 162.000 C 72.220 162.000,72.400 162.320,72.400 162.712 C 72.400 163.103,72.760 163.683,73.200 164.000 C 73.640 164.317,74.000 164.897,74.000 165.288 C 74.000 165.680,74.135 166.003,74.300 166.007 C 74.465 166.010,75.134 167.090,75.786 168.407 C 76.439 169.723,77.114 170.800,77.286 170.800 C 77.459 170.800,77.600 170.993,77.600 171.228 C 77.600 171.463,78.140 172.441,78.800 173.400 C 79.460 174.359,80.000 175.337,80.000 175.572 C 80.000 175.807,80.180 176.000,80.400 176.000 C 80.620 176.000,80.800 176.281,80.800 176.624 C 80.800 176.967,80.940 177.161,81.111 177.055 C 81.282 176.949,82.399 177.479,83.592 178.231 C 87.004 180.382,90.102 179.819,92.002 176.704 C 93.820 173.722,93.468 172.910,83.201 156.400 C 82.038 154.530,80.565 152.125,79.927 151.055 C 79.290 149.985,78.325 148.459,77.784 147.662 C 76.485 145.751,76.518 144.875,77.900 144.581 C 79.220 144.300,83.869 143.208,89.600 141.833 C 91.910 141.278,96.410 140.203,99.600 139.443 C 109.820 137.009,111.151 135.580,109.631 128.677 C 109.427 127.755,109.068 125.740,108.832 124.200 C 108.595 122.660,107.771 117.483,107.001 112.696 C 105.511 103.436,105.349 101.600,106.023 101.600 C 106.255 101.600,107.200 101.766,108.123 101.969 C 109.045 102.173,111.060 102.528,112.600 102.760 C 114.140 102.991,118.730 103.718,122.800 104.374 C 140.505 107.230,140.435 107.249,142.387 99.000 C 142.856 97.020,143.686 93.510,144.233 91.200 C 144.779 88.890,145.392 86.370,145.594 85.600 C 145.796 84.830,146.336 82.580,146.794 80.600 C 147.252 78.620,147.800 76.447,148.013 75.772 C 148.226 75.096,148.400 74.252,148.400 73.895 C 148.400 72.393,148.866 72.556,154.400 75.990 C 160.382 79.702,162.965 81.280,164.400 82.097 C 165.170 82.535,166.250 83.208,166.800 83.592 C 167.350 83.976,169.150 85.101,170.800 86.092 C 179.293 91.192,178.874 91.412,190.071 75.991 C 194.620 69.726,198.725 64.150,199.192 63.600 L 200.043 62.600 201.016 63.800 C 201.551 64.460,204.714 68.780,208.045 73.400 C 221.761 92.427,220.079 91.593,231.200 84.878 C 233.950 83.218,236.952 81.351,237.872 80.730 C 238.792 80.108,239.629 79.600,239.732 79.600 C 239.836 79.600,241.907 78.351,244.335 76.823 C 250.258 73.098,251.176 72.636,251.360 73.286 C 251.885 75.138,252.471 77.467,253.200 80.600 C 253.661 82.580,254.201 84.830,254.400 85.600 C 254.599 86.370,255.121 88.530,255.561 90.400 C 259.796 108.426,258.398 107.382,274.800 104.770 C 277.550 104.332,282.050 103.619,284.800 103.184 C 287.550 102.750,290.669 102.216,291.731 101.997 C 292.792 101.779,293.827 101.600,294.031 101.600 C 294.648 101.600,294.460 103.616,292.999 112.696 C 292.229 117.483,291.405 122.660,291.168 124.200 C 290.932 125.740,290.573 127.755,290.369 128.677 C 289.863 130.978,289.906 133.875,290.463 134.926 C 291.706 137.274,292.614 137.622,305.200 140.584 C 308.610 141.387,313.560 142.561,316.200 143.193 C 318.840 143.825,321.495 144.449,322.100 144.579 C 323.342 144.846,323.530 145.750,322.615 147.057 C 322.062 147.847,319.198 152.442,316.793 156.400 C 316.191 157.390,313.787 161.345,311.450 165.189 C 306.783 172.864,306.412 174.102,307.998 176.704 C 309.898 179.819,312.996 180.382,316.408 178.231 C 317.601 177.479,318.718 176.949,318.889 177.055 C 319.060 177.161,319.200 176.967,319.200 176.624 C 319.200 176.281,319.380 176.000,319.600 176.000 C 319.820 176.000,320.000 175.807,320.000 175.572 C 320.000 175.337,320.540 174.359,321.200 173.400 C 321.860 172.441,322.400 171.463,322.400 171.228 C 322.400 170.993,322.541 170.800,322.714 170.800 C 322.886 170.800,323.561 169.723,324.214 168.407 C 324.866 167.090,325.535 166.010,325.700 166.007 C 325.865 166.003,326.000 165.680,326.000 165.288 C 326.000 164.897,326.360 164.317,326.800 164.000 C 327.240 163.683,327.600 163.103,327.600 162.712 C 327.600 162.320,327.780 162.000,328.000 162.000 C 328.220 162.000,328.400 161.680,328.400 161.288 C 328.400 160.897,328.760 160.317,329.200 160.000 C 329.640 159.683,330.000 159.186,330.000 158.895 C 330.000 158.604,330.331 158.011,330.736 157.577 C 331.141 157.142,331.726 156.295,332.036 155.693 C 332.346 155.092,332.915 154.251,333.300 153.825 C 333.685 153.398,334.000 152.813,334.000 152.525 C 334.000 152.236,334.180 152.000,334.400 152.000 C 334.620 152.000,334.800 151.680,334.800 151.288 C 334.800 150.897,335.160 150.317,335.600 150.000 C 336.040 149.683,336.400 149.103,336.400 148.712 C 336.400 148.320,336.580 148.000,336.800 148.000 C 337.020 148.000,337.200 147.764,337.200 147.475 C 337.200 147.187,337.560 146.564,338.000 146.092 C 338.440 145.620,338.800 144.956,338.800 144.617 C 338.800 144.278,338.980 144.000,339.200 144.000 C 339.426 144.000,339.600 142.867,339.600 141.400 C 339.600 139.933,339.426 138.800,339.200 138.800 C 338.980 138.800,338.800 138.522,338.800 138.182 C 338.800 137.382,337.018 135.600,336.218 135.600 C 335.878 135.600,335.600 135.420,335.600 135.200 C 335.600 134.980,335.060 134.800,334.400 134.800 C 333.740 134.800,333.200 134.620,333.200 134.400 C 333.200 134.180,332.491 134.000,331.624 134.000 C 330.757 134.000,329.936 133.820,329.800 133.600 C 329.664 133.380,328.854 133.200,328.000 133.200 C 327.146 133.200,326.336 133.020,326.200 132.800 C 326.064 132.580,325.344 132.400,324.600 132.400 C 323.856 132.400,323.136 132.220,323.000 132.000 C 322.864 131.780,322.133 131.600,321.376 131.600 C 320.619 131.600,320.000 131.420,320.000 131.200 C 320.000 130.980,319.280 130.800,318.400 130.800 C 317.520 130.800,316.800 130.620,316.800 130.400 C 316.800 130.180,316.091 130.000,315.224 130.000 C 314.357 130.000,313.548 129.839,313.426 129.642 C 313.305 129.445,312.484 129.175,311.603 129.042 C 310.721 128.909,309.279 128.691,308.397 128.558 C 307.516 128.425,306.695 128.155,306.574 127.958 C 306.452 127.761,305.733 127.600,304.976 127.600 L 303.600 127.600 303.600 125.424 C 303.600 124.227,303.780 123.136,304.000 123.000 C 304.220 122.864,304.400 121.784,304.400 120.600 C 304.400 119.416,304.580 118.336,304.800 118.200 C 305.020 118.064,305.200 117.009,305.200 115.856 C 305.200 114.703,305.364 113.589,305.565 113.380 C 305.765 113.171,306.028 112.010,306.148 110.800 C 306.354 108.729,306.896 104.892,307.362 102.200 C 308.809 93.848,307.949 88.800,305.077 88.800 C 304.731 88.800,304.336 88.620,304.200 88.400 C 304.064 88.180,302.793 88.000,301.376 88.000 C 299.925 88.000,298.800 88.175,298.800 88.400 C 298.800 88.622,297.733 88.800,296.400 88.800 C 295.067 88.800,294.000 88.978,294.000 89.200 C 294.000 89.422,292.941 89.600,291.624 89.600 C 290.317 89.600,289.136 89.780,289.000 90.000 C 288.864 90.220,287.683 90.400,286.376 90.400 C 285.059 90.400,284.000 90.578,284.000 90.800 C 284.000 91.020,283.145 91.200,282.100 91.200 C 281.055 91.200,278.789 91.470,277.065 91.800 C 275.340 92.130,273.146 92.400,272.188 92.400 C 271.231 92.400,270.336 92.580,270.200 92.800 C 269.826 93.405,269.200 93.279,269.200 92.600 C 269.200 92.270,269.020 92.000,268.800 92.000 C 268.580 92.000,268.400 91.280,268.400 90.400 C 268.400 89.520,268.220 88.800,268.000 88.800 C 267.780 88.800,267.600 88.080,267.600 87.200 C 267.600 86.320,267.420 85.600,267.200 85.600 C 266.980 85.600,266.800 84.790,266.800 83.800 C 266.800 82.810,266.620 82.000,266.400 82.000 C 266.180 82.000,266.000 81.291,266.000 80.424 C 266.000 79.557,265.820 78.736,265.600 78.600 C 265.380 78.464,265.200 77.733,265.200 76.976 C 265.200 76.219,265.020 75.600,264.800 75.600 C 264.580 75.600,264.400 74.880,264.400 74.000 C 264.400 73.120,264.220 72.400,264.000 72.400 C 263.780 72.400,263.600 71.680,263.600 70.800 C 263.600 69.920,263.420 69.200,263.200 69.200 C 262.980 69.200,262.800 68.390,262.800 67.400 C 262.800 66.410,262.620 65.600,262.400 65.600 C 262.180 65.600,262.000 64.891,262.000 64.024 C 262.000 63.157,261.820 62.336,261.600 62.200 C 261.380 62.064,261.200 61.513,261.200 60.976 C 261.200 60.439,261.020 60.000,260.800 60.000 C 260.580 60.000,260.400 59.742,260.400 59.427 C 260.400 59.112,260.040 58.740,259.600 58.600 C 259.160 58.460,258.800 58.178,258.800 57.973 C 258.800 57.768,258.440 57.600,258.000 57.600 C 257.560 57.600,257.200 57.420,257.200 57.200 C 257.200 56.980,256.210 56.800,255.000 56.800 C 253.790 56.800,252.800 56.980,252.800 57.200 C 252.800 57.420,252.440 57.600,252.000 57.600 C 251.560 57.600,251.200 57.780,251.200 58.000 C 251.200 58.220,250.876 58.400,250.480 58.400 C 250.084 58.400,249.573 58.587,249.344 58.816 C 248.809 59.351,246.406 60.753,245.500 61.058 C 245.115 61.187,244.800 61.452,244.800 61.647 C 244.800 61.841,244.558 62.000,244.262 62.000 C 243.966 62.000,243.398 62.360,243.000 62.800 C 242.602 63.240,242.034 63.600,241.738 63.600 C 241.442 63.600,241.200 63.780,241.200 64.000 C 241.200 64.220,240.880 64.400,240.488 64.400 C 240.097 64.400,239.517 64.760,239.200 65.200 C 238.883 65.640,238.303 66.000,237.912 66.000 C 237.520 66.000,237.200 66.180,237.200 66.400 C 237.200 66.620,236.964 66.800,236.675 66.800 C 236.387 66.800,235.764 67.160,235.292 67.600 C 234.820 68.040,234.238 68.400,234.000 68.400 C 233.762 68.400,233.180 68.760,232.708 69.200 C 232.236 69.640,231.613 70.000,231.325 70.000 C 231.036 70.000,230.800 70.180,230.800 70.400 C 230.800 70.620,230.480 70.800,230.088 70.800 C 229.697 70.800,229.117 71.160,228.800 71.600 C 228.483 72.040,227.903 72.400,227.512 72.400 C 227.120 72.400,226.800 72.580,226.800 72.800 C 226.800 73.020,226.596 73.200,226.347 73.200 C 226.098 73.200,225.594 73.545,225.228 73.967 C 224.579 74.716,224.544 74.706,223.781 73.569 C 223.352 72.927,222.865 72.402,222.700 72.401 C 222.535 72.401,222.400 72.175,222.399 71.900 C 222.399 71.625,221.859 70.770,221.200 70.000 C 220.541 69.230,220.001 68.415,220.001 68.188 C 220.000 67.962,219.640 67.517,219.200 67.200 C 218.760 66.883,218.400 66.420,218.400 66.171 C 218.400 65.922,217.860 65.154,217.200 64.463 C 216.540 63.772,216.000 63.052,216.000 62.863 C 216.000 62.674,215.460 61.954,214.800 61.263 C 214.140 60.572,213.600 59.865,213.600 59.692 C 213.600 59.519,213.240 59.117,212.800 58.800 C 212.360 58.483,212.000 57.975,212.000 57.672 C 212.000 57.369,211.460 56.617,210.800 56.000 C 210.140 55.383,209.600 54.657,209.600 54.386 C 209.600 54.116,209.266 53.603,208.857 53.247 C 208.449 52.891,207.997 52.227,207.853 51.771 C 207.709 51.314,207.276 50.594,206.892 50.171 C 206.508 49.747,205.876 48.905,205.488 48.300 C 205.099 47.695,204.516 47.200,204.191 47.200 C 203.866 47.200,203.600 47.020,203.600 46.800 C 203.600 46.580,203.240 46.400,202.800 46.400 C 202.360 46.400,202.000 46.220,202.000 46.000 C 202.000 45.780,201.100 45.600,200.000 45.600 C 198.900 45.600,198.000 45.780,198.000 46.000 M189.800 162.357 C 186.303 163.247,183.355 165.567,181.362 169.000 L 180.200 171.000 180.200 182.400 C 180.200 195.163,180.313 195.805,183.375 200.400 C 192.044 213.411,211.911 211.817,218.272 197.600 C 219.759 194.276,219.800 193.873,219.800 182.600 C 219.800 168.669,218.926 166.313,212.600 163.195 C 210.511 162.165,193.071 161.524,189.800 162.357 M207.973 174.167 C 208.311 174.575,208.409 177.206,208.322 183.503 L 208.200 192.271 207.028 193.961 C 203.581 198.932,196.419 198.932,192.972 193.961 L 191.800 192.271 191.678 183.503 C 191.526 172.545,190.639 173.600,200.000 173.600 C 205.989 173.600,207.597 173.714,207.973 174.167 M116.802 177.052 C 112.792 178.489,109.637 181.822,108.475 185.846 C 107.718 188.470,107.837 205.451,108.634 208.542 C 113.342 226.805,138.352 229.101,146.298 212.000 C 148.055 208.217,148.515 204.361,148.323 195.000 C 148.094 183.862,146.674 180.565,140.881 177.720 L 138.600 176.600 128.600 176.504 C 120.241 176.423,118.305 176.513,116.802 177.052 M261.180 176.945 C 257.348 177.978,253.895 181.167,252.588 184.880 C 251.617 187.638,251.247 201.286,252.010 206.200 C 255.401 228.039,285.872 229.852,291.366 208.542 C 292.163 205.451,292.282 188.470,291.525 185.846 C 290.345 181.756,287.154 178.431,283.086 177.050 C 280.668 176.229,264.128 176.150,261.180 176.945 M136.320 188.480 C 136.989 189.149,136.982 203.895,136.311 206.154 C 134.156 213.410,123.670 214.267,120.465 207.449 C 119.420 205.226,119.105 188.666,120.100 188.265 C 121.235 187.807,135.841 188.001,136.320 188.480 M279.909 196.526 C 279.973 201.233,279.844 205.092,279.592 206.031 C 277.748 212.879,267.900 213.726,264.740 207.308 C 263.788 205.375,263.079 192.132,263.778 189.345 L 264.019 188.383 271.910 188.492 L 279.800 188.600 279.909 196.526 M44.000 190.782 C 44.000 191.012,43.550 191.200,43.000 191.200 C 42.450 191.200,42.000 191.368,42.000 191.573 C 42.000 191.778,41.685 192.046,41.300 192.169 C 39.653 192.692,36.400 196.693,36.400 198.195 C 36.400 198.528,36.220 198.800,36.000 198.800 C 35.742 198.800,35.600 203.192,35.600 211.176 C 35.600 218.996,35.747 223.644,36.000 223.800 C 36.220 223.936,36.400 224.487,36.400 225.024 C 36.400 225.561,36.580 226.000,36.800 226.000 C 37.020 226.000,37.200 226.234,37.200 226.520 C 37.200 227.256,38.141 229.193,38.500 229.197 C 38.665 229.199,38.800 229.471,38.800 229.803 C 38.800 230.496,43.694 235.600,44.359 235.600 C 44.601 235.600,44.801 235.735,44.803 235.900 C 44.807 236.259,46.744 237.200,47.480 237.200 C 47.766 237.200,48.000 237.380,48.000 237.600 C 48.000 237.820,48.439 238.000,48.976 238.000 C 49.513 238.000,50.064 238.180,50.200 238.400 C 50.346 238.637,52.804 238.800,56.224 238.800 C 59.808 238.800,62.000 238.648,62.000 238.400 C 62.000 238.180,62.540 238.000,63.200 238.000 C 63.860 238.000,64.400 237.820,64.400 237.600 C 64.400 237.380,64.760 237.200,65.200 237.200 C 65.640 237.200,66.000 237.020,66.000 236.800 C 66.000 236.580,66.360 236.400,66.800 236.400 C 67.240 236.400,67.600 236.250,67.600 236.068 C 67.600 235.885,68.094 235.480,68.697 235.168 C 71.071 233.940,75.200 228.578,75.200 226.724 C 75.200 226.326,75.380 226.000,75.600 226.000 C 75.820 226.000,76.000 225.460,76.000 224.800 C 76.000 224.140,76.206 223.600,76.459 223.600 C 77.143 223.600,76.535 202.710,75.778 200.193 C 74.605 196.297,71.662 193.123,67.768 191.554 C 65.132 190.492,44.000 189.805,44.000 190.782 M334.800 190.687 C 334.470 190.809,333.225 191.270,332.032 191.709 C 328.413 193.043,325.386 196.327,324.228 200.174 C 323.477 202.668,322.866 223.600,323.543 223.600 C 323.795 223.600,324.000 224.140,324.000 224.800 C 324.000 225.460,324.180 226.000,324.400 226.000 C 324.620 226.000,324.800 226.326,324.800 226.724 C 324.800 228.630,330.346 235.600,331.864 235.600 C 332.159 235.600,332.400 235.780,332.400 236.000 C 332.400 236.220,332.760 236.400,333.200 236.400 C 333.640 236.400,334.000 236.580,334.000 236.800 C 334.000 237.020,334.360 237.200,334.800 237.200 C 335.240 237.200,335.600 237.380,335.600 237.600 C 335.600 237.820,336.140 238.000,336.800 238.000 C 337.460 238.000,338.000 238.180,338.000 238.400 C 338.000 238.648,340.192 238.800,343.776 238.800 C 347.196 238.800,349.654 238.637,349.800 238.400 C 349.936 238.180,350.487 238.000,351.024 238.000 C 351.561 238.000,352.000 237.820,352.000 237.600 C 352.000 237.380,352.234 237.200,352.520 237.200 C 353.256 237.200,355.193 236.259,355.197 235.900 C 355.199 235.735,355.399 235.600,355.641 235.600 C 356.306 235.600,361.200 230.496,361.200 229.803 C 361.200 229.471,361.335 229.199,361.500 229.197 C 361.859 229.193,362.800 227.256,362.800 226.520 C 362.800 226.234,362.980 226.000,363.200 226.000 C 363.420 226.000,363.600 225.561,363.600 225.024 C 363.600 224.487,363.780 223.936,364.000 223.800 C 364.253 223.644,364.400 218.996,364.400 211.176 C 364.400 203.192,364.258 198.800,364.000 198.800 C 363.780 198.800,363.600 198.528,363.600 198.195 C 363.600 196.693,360.347 192.692,358.700 192.169 C 358.315 192.046,358.000 191.778,358.000 191.573 C 358.000 191.368,357.550 191.200,357.000 191.200 C 356.450 191.200,356.000 191.020,356.000 190.800 C 356.000 190.377,335.919 190.270,334.800 190.687 M64.320 202.880 C 65.194 203.754,64.970 219.139,64.053 221.267 C 61.012 228.320,51.388 228.320,48.347 221.267 C 47.430 219.139,47.206 203.754,48.080 202.880 C 48.420 202.540,50.791 202.400,56.200 202.400 C 61.609 202.400,63.980 202.540,64.320 202.880 M352.157 203.033 C 352.291 203.381,352.396 207.296,352.391 211.733 C 352.381 220.746,352.143 221.811,349.574 224.310 C 345.418 228.353,338.444 226.864,335.948 221.400 C 335.044 219.420,334.817 203.743,335.680 202.880 C 336.490 202.070,351.842 202.212,352.157 203.033 M171.600 220.204 C 156.148 223.716,145.461 235.781,144.027 251.335 C 143.730 254.548,143.350 340.824,143.589 350.658 C 143.606 351.365,145.845 353.600,146.537 353.600 C 146.876 353.600,147.264 353.780,147.400 354.000 C 147.536 354.220,148.526 354.400,149.600 354.400 C 150.674 354.400,151.664 354.220,151.800 354.000 C 151.936 353.780,152.327 353.600,152.670 353.600 C 153.702 353.600,155.905 350.864,156.080 349.365 C 156.168 348.614,156.096 348.000,155.920 348.000 C 155.744 348.000,155.600 332.970,155.600 314.600 L 155.600 281.200 164.000 281.200 L 172.400 281.200 172.400 314.567 C 172.400 340.869,172.294 347.983,171.900 348.167 C 171.500 348.353,171.500 348.447,171.900 348.633 C 172.175 348.762,172.400 349.308,172.400 349.847 C 172.400 350.941,174.799 353.600,175.787 353.600 C 176.124 353.600,176.400 353.780,176.400 354.000 C 176.400 355.349,181.680 353.973,183.327 352.195 L 184.453 350.978 184.414 305.912 C 184.369 255.338,184.541 257.928,181.121 256.159 C 176.136 253.581,173.095 256.519,172.800 264.200 L 172.600 269.400 164.100 269.508 L 155.600 269.616 155.600 260.253 C 155.600 247.043,156.888 242.988,162.845 237.451 C 169.470 231.292,170.018 231.200,200.000 231.200 C 227.520 231.200,226.979 231.155,232.344 233.896 C 241.373 238.509,244.400 245.171,244.400 260.428 L 244.400 269.616 235.900 269.508 L 227.400 269.400 227.200 264.200 C 227.077 260.992,226.799 258.647,226.474 258.079 C 224.780 255.107,219.499 254.756,217.156 257.459 C 215.647 259.199,215.627 259.820,215.586 305.912 L 215.547 350.978 216.673 352.195 C 218.320 353.973,223.600 355.349,223.600 354.000 C 223.600 353.780,223.876 353.600,224.213 353.600 C 225.201 353.600,227.600 350.941,227.600 349.847 C 227.600 349.308,227.825 348.762,228.100 348.633 C 228.500 348.447,228.500 348.353,228.100 348.167 C 227.706 347.983,227.600 340.869,227.600 314.567 L 227.600 281.200 236.000 281.200 L 244.400 281.200 244.400 314.600 C 244.400 332.970,244.256 348.000,244.080 348.000 C 243.904 348.000,243.832 348.614,243.920 349.365 C 244.095 350.864,246.298 353.600,247.330 353.600 C 247.673 353.600,248.064 353.780,248.200 354.000 C 248.336 354.220,249.099 354.400,249.895 354.400 C 254.009 354.400,257.604 351.105,256.557 348.294 C 256.374 347.802,256.129 324.900,256.012 297.400 L 255.800 247.400 254.543 243.800 C 250.100 231.074,240.599 222.673,227.800 220.152 C 223.960 219.396,174.957 219.441,171.600 220.204 M101.600 234.256 C 99.274 234.597,96.172 235.353,95.820 235.664 C 95.611 235.849,95.161 236.002,94.820 236.005 C 91.182 236.035,81.699 243.523,77.856 249.400 C 76.849 250.940,75.795 252.472,75.513 252.804 C 75.231 253.136,74.765 254.216,74.478 255.204 C 74.192 256.192,73.566 258.260,73.089 259.800 C 72.226 262.583,72.220 262.869,72.010 306.800 L 71.800 351.000 73.087 352.300 C 73.794 353.015,74.639 353.600,74.963 353.600 C 75.287 353.600,75.664 353.780,75.800 354.000 C 75.936 354.220,76.836 354.400,77.800 354.400 C 78.764 354.400,79.664 354.220,79.800 354.000 C 79.936 353.780,80.313 353.600,80.637 353.600 C 80.961 353.600,81.806 353.015,82.513 352.300 L 83.800 351.000 83.677 323.292 L 83.555 295.584 92.077 295.692 L 100.600 295.800 100.704 321.600 C 100.801 345.530,100.759 347.436,100.126 347.901 C 99.596 348.291,99.550 348.510,99.921 348.881 C 100.185 349.145,100.400 349.690,100.400 350.093 C 100.400 350.981,102.929 353.600,103.787 353.600 C 104.124 353.600,104.400 353.780,104.400 354.000 C 104.400 354.560,107.060 354.499,108.772 353.900 C 110.264 353.377,112.000 351.936,112.000 351.218 C 112.000 350.988,112.135 350.800,112.300 350.800 C 113.157 350.800,112.389 274.289,111.516 272.737 C 109.450 269.059,104.415 268.737,101.837 272.116 C 100.899 273.346,100.818 273.801,100.713 278.421 L 100.600 283.400 92.100 283.508 L 83.600 283.616 83.614 274.908 C 83.635 262.333,84.970 257.889,90.358 252.459 C 95.878 246.897,98.836 245.978,112.271 245.653 C 123.741 245.376,123.736 245.377,125.739 242.695 C 127.454 240.398,126.327 236.200,123.606 234.745 C 122.293 234.043,105.582 233.671,101.600 234.256 M276.600 234.614 C 273.055 236.413,272.362 240.946,275.217 243.662 L 276.834 245.200 285.040 245.200 C 296.147 245.200,298.688 245.590,304.000 248.108 C 307.235 249.642,312.102 254.417,313.685 257.611 C 316.049 262.382,316.200 263.365,316.200 274.000 L 316.200 283.800 307.800 283.800 L 299.400 283.800 299.299 279.000 C 299.192 273.977,298.881 272.807,297.260 271.350 C 294.165 268.569,289.301 269.926,288.052 273.920 C 287.523 275.610,287.179 350.800,287.700 350.800 C 287.865 350.800,288.000 350.988,288.000 351.218 C 288.000 351.936,289.736 353.377,291.228 353.900 C 292.940 354.499,295.600 354.560,295.600 354.000 C 295.600 353.780,295.876 353.600,296.213 353.600 C 297.071 353.600,299.600 350.981,299.600 350.093 C 299.600 349.690,299.823 349.137,300.097 348.863 C 300.492 348.468,300.492 348.304,300.094 348.058 C 299.701 347.815,299.616 342.242,299.697 321.975 L 299.800 296.200 307.900 296.092 L 316.000 295.983 316.000 323.405 L 316.000 350.827 317.387 352.213 C 318.149 352.976,319.039 353.600,319.363 353.600 C 319.687 353.600,320.064 353.780,320.200 354.000 C 320.336 354.220,321.236 354.400,322.200 354.400 C 323.164 354.400,324.064 354.220,324.200 354.000 C 324.336 353.780,324.713 353.600,325.037 353.600 C 325.361 353.600,326.206 353.015,326.913 352.300 L 328.200 351.000 327.979 306.600 C 327.857 282.180,327.616 261.750,327.442 261.200 C 325.612 255.416,324.972 253.654,324.388 252.800 C 324.012 252.250,322.940 250.630,322.006 249.200 C 319.321 245.090,315.075 241.038,311.018 238.714 C 308.855 237.474,305.592 236.000,305.012 236.000 C 304.701 236.000,304.348 235.840,304.227 235.644 C 304.106 235.449,303.421 235.186,302.704 235.061 C 301.987 234.936,300.410 234.659,299.200 234.446 C 295.358 233.769,278.010 233.898,276.600 234.614 M30.000 247.600 C 30.000 247.820,29.111 248.000,28.024 248.000 C 26.937 248.000,25.936 248.180,25.800 248.400 C 25.664 248.620,25.023 248.800,24.376 248.800 C 23.729 248.800,23.200 248.980,23.200 249.200 C 23.200 249.420,22.660 249.600,22.000 249.600 C 21.340 249.600,20.800 249.780,20.800 250.000 C 20.800 250.220,20.440 250.400,20.000 250.400 C 19.560 250.400,19.200 250.580,19.200 250.800 C 19.200 251.020,18.840 251.200,18.400 251.200 C 17.960 251.200,17.600 251.380,17.600 251.600 C 17.600 251.820,17.280 252.000,16.888 252.000 C 16.497 252.000,15.917 252.360,15.600 252.800 C 15.283 253.240,14.796 253.600,14.519 253.600 C 14.241 253.600,13.458 254.095,12.780 254.700 C 10.140 257.053,7.600 259.560,7.600 259.814 C 7.600 259.960,7.060 260.583,6.400 261.200 C 5.740 261.817,5.200 262.526,5.200 262.777 C 5.200 263.028,4.840 263.620,4.400 264.092 C 3.960 264.564,3.600 265.187,3.600 265.475 C 3.600 265.764,3.420 266.000,3.200 266.000 C 2.980 266.000,2.800 266.360,2.800 266.800 C 2.800 267.240,2.620 267.600,2.400 267.600 C 2.180 267.600,2.000 268.140,2.000 268.800 C 2.000 269.460,1.864 270.000,1.698 270.000 C 0.333 270.000,0.244 272.339,0.110 312.046 L -0.023 351.091 1.149 352.346 C 1.794 353.036,2.598 353.600,2.937 353.600 C 3.276 353.600,3.664 353.780,3.800 354.000 C 3.936 354.220,4.937 354.400,6.024 354.400 C 7.111 354.400,8.000 354.220,8.000 354.000 C 8.000 353.780,8.276 353.600,8.613 353.600 C 8.951 353.600,9.806 353.015,10.513 352.300 L 11.800 351.000 11.800 330.600 L 11.800 310.200 20.300 310.092 L 28.800 309.984 28.800 328.772 C 28.800 345.022,28.719 347.605,28.202 347.895 C 26.943 348.599,30.064 353.600,31.763 353.600 C 32.087 353.600,32.464 353.780,32.600 354.000 C 32.906 354.495,35.761 354.527,36.705 354.047 C 37.087 353.852,37.878 353.471,38.461 353.200 C 40.142 352.418,41.464 349.487,40.873 347.852 C 40.525 346.890,40.400 338.886,40.400 317.652 C 40.400 291.731,40.333 288.631,39.748 287.500 C 38.545 285.174,37.262 284.400,34.606 284.400 C 30.159 284.400,28.800 286.551,28.800 293.592 L 28.800 298.416 20.300 298.308 L 11.800 298.200 11.692 289.800 C 11.492 274.379,14.434 267.885,24.069 262.473 C 27.522 260.534,29.250 260.272,40.200 260.030 C 49.481 259.825,50.736 259.718,51.862 259.036 C 53.249 258.197,54.800 255.773,54.800 254.446 C 54.800 253.961,55.056 253.600,55.400 253.600 C 56.073 253.600,56.218 252.582,55.600 252.200 C 55.380 252.064,55.200 251.603,55.200 251.176 C 55.200 250.749,55.032 250.400,54.827 250.400 C 54.622 250.400,54.340 250.040,54.200 249.600 C 54.060 249.160,53.688 248.800,53.373 248.800 C 53.058 248.800,52.800 248.620,52.800 248.400 C 52.800 248.180,52.440 248.000,52.000 248.000 C 51.560 248.000,51.200 247.820,51.200 247.600 C 51.200 247.343,47.400 247.200,40.600 247.200 C 33.800 247.200,30.000 247.343,30.000 247.600 M348.800 247.600 C 348.800 247.820,348.440 248.000,348.000 248.000 C 347.560 248.000,347.200 248.180,347.200 248.400 C 347.200 248.620,346.942 248.800,346.627 248.800 C 346.312 248.800,345.940 249.160,345.800 249.600 C 345.660 250.040,345.378 250.400,345.173 250.400 C 344.968 250.400,344.800 250.672,344.800 251.005 C 344.800 251.338,344.575 251.978,344.300 252.428 C 343.878 253.117,343.909 253.306,344.500 253.642 C 344.885 253.861,345.201 254.436,345.201 254.920 C 345.208 258.980,348.012 259.980,359.408 259.991 C 367.354 259.999,369.010 260.109,371.489 260.796 C 380.176 263.203,386.366 270.175,387.983 279.373 C 388.441 281.980,388.486 295.603,388.042 297.200 L 387.764 298.200 379.582 298.200 L 371.400 298.200 371.200 293.200 C 370.975 287.584,370.445 286.057,368.340 284.969 C 366.578 284.058,363.465 284.157,362.043 285.169 C 359.514 286.970,359.600 285.840,359.600 317.414 C 359.600 337.995,359.469 346.544,359.137 347.653 C 358.569 349.549,359.800 352.391,361.539 353.200 C 362.122 353.471,362.913 353.852,363.295 354.047 C 364.239 354.527,367.094 354.495,367.400 354.000 C 367.536 353.780,367.913 353.600,368.237 353.600 C 369.936 353.600,373.057 348.599,371.798 347.895 C 371.281 347.605,371.200 345.022,371.200 328.772 L 371.200 309.984 379.700 310.092 L 388.200 310.200 388.200 330.600 L 388.200 351.000 389.487 352.300 C 390.194 353.015,391.049 353.600,391.387 353.600 C 391.724 353.600,392.000 353.780,392.000 354.000 C 392.000 354.220,392.889 354.400,393.976 354.400 C 395.063 354.400,396.064 354.220,396.200 354.000 C 396.336 353.780,396.724 353.600,397.063 353.600 C 397.402 353.600,398.206 353.036,398.851 352.346 L 400.023 351.091 399.911 311.965 C 399.824 281.319,399.692 272.731,399.300 272.340 C 399.025 272.065,398.800 271.426,398.800 270.920 C 398.800 270.414,398.620 270.000,398.400 270.000 C 398.180 270.000,398.000 269.460,398.000 268.800 C 398.000 268.140,397.820 267.600,397.600 267.600 C 397.380 267.600,397.200 267.240,397.200 266.800 C 397.200 266.360,397.020 266.000,396.800 266.000 C 396.580 266.000,396.400 265.730,396.400 265.400 C 396.400 265.070,396.220 264.800,396.000 264.800 C 395.780 264.800,395.600 264.530,395.600 264.200 C 395.600 263.870,395.420 263.600,395.200 263.600 C 394.980 263.600,394.800 263.312,394.800 262.960 C 394.800 262.609,394.260 261.817,393.600 261.200 C 392.940 260.583,392.400 259.960,392.400 259.814 C 392.400 259.558,389.674 256.870,387.315 254.800 C 386.688 254.250,385.686 253.545,385.088 253.232 C 384.489 252.920,384.000 252.515,384.000 252.332 C 384.000 252.150,383.640 252.000,383.200 252.000 C 382.760 252.000,382.400 251.820,382.400 251.600 C 382.400 251.380,382.040 251.200,381.600 251.200 C 381.160 251.200,380.800 251.020,380.800 250.800 C 380.800 250.580,380.440 250.400,380.000 250.400 C 379.560 250.400,379.200 250.220,379.200 250.000 C 379.200 249.780,378.660 249.600,378.000 249.600 C 377.340 249.600,376.800 249.420,376.800 249.200 C 376.800 248.980,376.271 248.800,375.624 248.800 C 374.977 248.800,374.336 248.620,374.200 248.400 C 374.064 248.180,373.063 248.000,371.976 248.000 C 370.889 248.000,370.000 247.820,370.000 247.600 C 370.000 247.343,366.200 247.200,359.400 247.200 C 352.600 247.200,348.800 247.343,348.800 247.600 " stroke="none" fill="#050504" fill-rule="evenodd"></path><path id="path1" d="M192.027 174.167 C 191.689 174.575,191.591 177.206,191.678 183.503 L 191.800 192.271 192.972 193.961 C 196.419 198.932,203.581 198.932,207.028 193.961 L 208.200 192.271 208.322 183.503 C 208.474 172.545,209.361 173.600,200.000 173.600 C 194.011 173.600,192.403 173.714,192.027 174.167 M179.765 182.000 C 179.765 185.850,179.825 187.425,179.898 185.500 C 179.971 183.575,179.971 180.425,179.898 178.500 C 179.825 176.575,179.765 178.150,179.765 182.000 M220.165 182.000 C 220.165 185.850,220.225 187.425,220.298 185.500 C 220.371 183.575,220.371 180.425,220.298 178.500 C 220.225 176.575,220.165 178.150,220.165 182.000 M128.200 188.387 L 136.200 188.600 136.412 197.000 L 136.625 205.400 136.712 197.180 C 136.821 187.010,137.747 187.979,128.020 188.087 L 120.200 188.174 128.200 188.387 M263.778 189.345 C 263.079 192.132,263.788 205.375,264.740 207.308 C 267.900 213.726,277.748 212.879,279.592 206.031 C 279.844 205.092,279.973 201.233,279.909 196.526 L 279.800 188.600 271.910 188.492 L 264.019 188.383 263.778 189.345 M48.080 202.880 C 47.208 203.752,47.429 219.136,48.344 221.267 C 49.535 224.040,53.660 227.274,54.691 226.243 C 54.821 226.112,54.325 225.885,53.588 225.738 C 51.802 225.380,49.119 222.651,48.492 220.554 C 47.505 217.249,47.827 203.244,48.900 202.812 C 49.452 202.591,49.560 202.441,49.180 202.425 C 48.839 202.411,48.344 202.616,48.080 202.880 M63.300 202.676 C 64.365 202.954,64.486 204.110,64.329 212.475 C 64.148 222.151,63.062 224.674,58.600 225.797 C 57.940 225.963,57.617 226.179,57.882 226.277 C 58.573 226.532,60.984 225.306,62.236 224.063 C 64.495 221.819,64.800 220.316,64.800 211.447 C 64.800 203.178,64.653 202.339,63.220 202.446 C 62.744 202.482,62.762 202.535,63.300 202.676 M133.775 209.700 L 132.600 211.000 133.900 209.825 C 135.112 208.730,135.384 208.400,135.075 208.400 C 135.006 208.400,134.421 208.985,133.775 209.700 M126.000 211.980 C 126.999 212.320,129.482 212.532,129.167 212.251 C 129.075 212.169,128.100 211.999,127.000 211.872 C 125.651 211.716,125.326 211.751,126.000 211.980 M335.228 218.833 C 335.244 219.365,335.419 220.160,335.619 220.600 C 335.871 221.158,335.907 220.915,335.738 219.800 C 335.455 217.943,335.187 217.436,335.228 218.833 M351.850 219.650 C 351.709 220.353,351.669 221.002,351.759 221.092 C 351.850 221.183,352.048 220.691,352.200 220.000 C 352.352 219.309,352.393 218.659,352.291 218.558 C 352.189 218.456,351.991 218.947,351.850 219.650 M172.672 231.825 C 160.548 235.134,155.600 243.374,155.600 260.253 L 155.600 269.616 164.100 269.508 L 172.600 269.400 172.800 264.200 C 172.918 261.145,173.206 258.640,173.499 258.128 C 175.558 254.531,181.682 254.827,183.600 258.615 C 184.121 259.643,184.214 265.637,184.305 303.900 L 184.410 348.000 200.000 348.000 L 215.590 348.000 215.695 303.900 C 215.811 255.222,215.635 258.349,218.359 256.515 C 220.893 254.809,225.069 255.614,226.474 258.079 C 226.799 258.647,227.077 260.992,227.200 264.200 L 227.400 269.400 235.900 269.508 L 244.400 269.616 244.400 260.428 C 244.400 255.315,244.205 250.299,243.961 249.120 C 242.304 241.112,235.278 233.903,227.080 231.796 C 223.877 230.973,175.700 230.999,172.672 231.825 M106.313 233.895 C 107.476 233.976,109.276 233.976,110.313 233.893 C 111.351 233.811,110.400 233.745,108.200 233.746 C 106.000 233.747,105.151 233.814,106.313 233.895 M289.913 233.895 C 291.076 233.976,292.876 233.976,293.913 233.893 C 294.951 233.811,294.000 233.745,291.800 233.746 C 289.600 233.747,288.751 233.814,289.913 233.895 M273.194 239.200 C 272.526 244.836,274.355 245.715,287.413 246.037 C 298.010 246.298,299.097 246.446,302.800 248.132 C 312.564 252.577,316.000 259.685,316.000 275.435 L 316.000 283.200 308.059 283.200 L 300.118 283.200 299.899 278.448 C 299.634 272.695,299.257 271.798,296.358 270.031 C 294.079 268.642,291.637 268.969,289.290 270.979 C 287.106 272.849,287.192 271.113,287.296 310.961 L 287.392 347.800 287.596 311.000 C 287.742 284.624,287.930 273.917,288.258 273.200 C 289.844 269.734,294.415 268.795,297.260 271.350 C 298.881 272.807,299.192 273.977,299.299 279.000 L 299.400 283.800 307.800 283.800 L 316.200 283.800 316.200 274.000 C 316.200 263.365,316.049 262.382,313.685 257.611 C 312.102 254.417,307.235 249.642,304.000 248.108 C 298.692 245.592,296.145 245.200,285.090 245.200 L 276.933 245.200 275.383 243.860 C 274.049 242.707,273.797 242.221,273.573 240.360 C 273.430 239.172,273.259 238.650,273.194 239.200 M253.408 240.700 C 253.569 241.085,254.170 242.750,254.743 244.400 L 255.785 247.400 255.999 297.200 L 256.214 347.000 256.307 297.846 C 256.371 263.779,256.268 248.188,255.970 247.046 C 254.964 243.197,253.839 240.000,253.490 240.000 C 253.283 240.000,253.246 240.315,253.408 240.700 M155.600 314.600 L 155.600 348.000 164.000 348.000 L 172.400 348.000 172.400 314.600 L 172.400 281.200 164.000 281.200 L 155.600 281.200 155.600 314.600 M227.600 314.600 L 227.600 348.000 236.000 348.000 L 244.400 348.000 244.400 314.600 L 244.400 281.200 236.000 281.200 L 227.600 281.200 227.600 314.600 M83.697 321.692 L 83.794 347.800 83.900 321.892 L 84.006 295.983 92.103 296.092 L 100.200 296.200 100.200 322.080 C 100.200 336.314,100.336 347.824,100.503 347.657 C 100.670 347.490,100.760 335.754,100.703 321.577 L 100.600 295.800 92.100 295.692 L 83.600 295.584 83.697 321.692 M299.867 296.267 C 299.720 296.413,299.614 308.158,299.632 322.367 C 299.649 336.575,299.754 347.975,299.865 347.700 C 300.017 347.323,302.034 347.200,308.033 347.200 L 316.000 347.200 316.000 321.600 L 316.000 296.000 308.067 296.000 C 303.703 296.000,300.013 296.120,299.867 296.267 M11.783 310.500 C 11.678 310.775,11.640 319.190,11.700 329.200 L 11.808 347.400 11.904 328.900 L 12.000 310.400 20.000 310.400 L 28.000 310.400 28.000 329.224 C 28.000 341.671,28.135 347.963,28.400 347.800 C 28.657 347.641,28.800 340.863,28.800 328.776 L 28.800 310.000 20.387 310.000 C 14.026 310.000,11.928 310.122,11.783 310.500 M379.596 310.296 L 387.992 310.416 388.102 328.908 L 388.212 347.400 388.206 328.800 L 388.200 310.200 379.700 310.188 L 371.199 310.176 379.596 310.296 " stroke="none" fill="#e2576e" fill-rule="evenodd"></path><path id="path2" d="M198.112 65.700 C 197.240 66.855,195.375 69.420,193.968 71.400 C 192.561 73.380,191.309 75.090,191.186 75.200 C 191.062 75.310,190.532 76.030,190.007 76.800 C 181.573 89.171,178.616 91.335,173.969 88.536 C 173.216 88.082,169.180 85.594,165.000 83.007 C 160.820 80.420,156.770 77.944,156.000 77.505 C 155.230 77.066,154.150 76.388,153.600 76.000 C 152.226 75.030,149.643 73.600,149.263 73.600 C 148.938 73.600,148.799 74.105,146.801 82.600 C 146.128 85.460,145.414 88.430,145.214 89.200 C 145.014 89.970,144.648 91.500,144.400 92.600 C 143.972 94.499,143.774 95.316,142.773 99.300 C 140.852 106.944,139.407 107.542,127.600 105.577 C 126.390 105.375,124.230 105.027,122.800 104.803 C 120.325 104.415,117.692 103.987,112.800 103.178 C 107.212 102.253,105.442 102.218,105.794 103.040 C 105.973 103.458,106.285 104.970,106.487 106.400 C 106.688 107.830,107.022 110.035,107.227 111.300 C 107.432 112.565,107.765 114.635,107.966 115.900 C 108.167 117.165,108.542 119.460,108.800 121.000 C 110.481 131.038,110.665 133.528,109.842 135.119 C 109.066 136.620,107.033 138.199,105.400 138.570 C 104.740 138.720,103.480 139.003,102.600 139.200 C 101.720 139.396,100.190 139.757,99.200 140.003 C 98.210 140.248,96.860 140.540,96.200 140.652 C 95.540 140.763,94.640 141.010,94.200 141.200 C 93.760 141.390,92.860 141.637,92.200 141.748 C 91.540 141.860,90.190 142.152,89.200 142.397 C 88.210 142.643,86.680 143.004,85.800 143.200 C 84.920 143.396,83.390 143.757,82.400 144.003 C 81.410 144.248,80.060 144.551,79.400 144.675 C 76.655 145.191,76.582 144.946,82.200 154.000 C 83.906 156.750,85.661 159.629,86.099 160.398 C 86.538 161.167,87.415 162.549,88.048 163.470 C 88.682 164.391,89.200 165.259,89.200 165.400 C 89.200 165.541,89.718 166.409,90.352 167.330 C 90.985 168.251,91.885 169.684,92.352 170.514 C 94.757 174.797,91.877 180.004,87.105 179.998 C 85.498 179.996,84.885 179.725,82.240 177.847 C 81.257 177.149,81.127 177.142,80.458 177.747 C 80.062 178.106,79.553 178.400,79.328 178.400 C 79.103 178.400,78.354 178.940,77.663 179.600 C 76.972 180.260,76.265 180.800,76.092 180.800 C 75.919 180.800,75.517 181.160,75.200 181.600 C 74.883 182.040,74.391 182.400,74.108 182.400 C 73.825 182.400,73.028 182.940,72.337 183.600 C 71.646 184.260,70.920 184.800,70.722 184.800 C 70.525 184.800,69.914 185.250,69.364 185.800 C 68.814 186.350,68.200 186.800,68.000 186.800 C 67.800 186.800,67.223 187.205,66.718 187.700 C 66.213 188.195,65.305 188.855,64.700 189.168 C 63.269 189.906,63.302 190.400,64.781 190.400 C 67.103 190.400,71.252 192.496,73.039 194.573 C 76.223 198.271,76.800 200.184,76.800 207.040 C 76.800 212.249,77.195 213.600,78.716 213.600 C 78.885 213.600,79.283 213.960,79.600 214.400 C 79.917 214.840,80.372 215.200,80.610 215.200 C 81.318 215.200,84.000 217.854,84.000 218.554 C 84.000 218.909,84.180 219.200,84.400 219.200 C 84.620 219.200,84.800 219.740,84.800 220.400 C 84.800 221.060,84.620 221.600,84.400 221.600 C 84.180 221.600,84.000 221.894,84.000 222.253 C 84.000 222.612,83.685 223.197,83.300 223.553 C 82.915 223.909,82.542 224.470,82.470 224.800 C 82.399 225.130,82.174 225.460,81.970 225.533 C 81.767 225.607,81.600 225.922,81.600 226.233 C 81.600 226.545,81.432 226.800,81.227 226.800 C 81.022 226.800,80.740 227.159,80.601 227.598 C 80.462 228.036,80.134 228.621,79.874 228.898 C 79.613 229.174,78.963 230.210,78.430 231.200 C 77.896 232.190,77.343 233.090,77.200 233.200 C 77.057 233.310,76.421 234.435,75.786 235.700 C 75.152 236.965,74.490 238.000,74.316 238.000 C 74.142 238.000,74.000 238.278,74.000 238.617 C 74.000 238.956,73.640 239.620,73.200 240.092 C 72.760 240.564,72.400 241.187,72.400 241.475 C 72.400 241.764,72.220 242.000,72.000 242.000 C 71.780 242.000,71.600 242.236,71.600 242.525 C 71.600 242.813,71.240 243.436,70.800 243.908 C 69.292 245.526,69.643 250.523,71.388 252.268 C 72.951 253.831,74.599 253.973,75.360 252.611 C 83.226 238.524,92.825 233.600,112.423 233.600 C 124.484 233.600,126.800 234.404,126.800 238.594 L 126.800 239.600 136.700 239.599 L 146.600 239.598 147.758 237.382 C 149.461 234.122,152.429 230.375,155.065 228.155 C 156.342 227.080,157.739 225.885,158.169 225.500 C 158.599 225.115,159.172 224.800,159.442 224.800 C 159.712 224.800,159.993 224.663,160.067 224.497 C 160.288 223.993,164.840 221.748,167.400 220.880 C 172.187 219.256,173.278 219.200,200.000 219.200 C 226.736 219.200,227.825 219.256,232.600 220.884 C 234.738 221.612,235.663 222.020,239.097 223.749 C 239.590 223.997,239.995 224.335,239.997 224.500 C 239.999 224.665,240.225 224.803,240.500 224.807 C 244.328 224.863,253.523 237.538,255.730 245.800 C 256.017 246.873,256.230 263.943,256.379 297.600 L 256.600 347.800 271.900 347.905 L 287.200 348.010 287.200 310.999 C 287.200 282.135,287.310 273.792,287.700 273.095 C 289.722 269.476,293.345 268.194,296.358 270.031 C 299.257 271.798,299.634 272.695,299.899 278.448 L 300.118 283.200 308.059 283.200 L 316.000 283.200 316.000 275.435 C 316.000 259.685,312.564 252.577,302.800 248.132 C 299.097 246.446,298.010 246.298,287.413 246.037 C 274.549 245.720,272.979 245.027,273.119 239.724 C 273.262 234.254,274.807 233.600,287.577 233.600 C 307.210 233.600,316.760 238.498,324.640 252.611 C 325.401 253.973,327.049 253.831,328.612 252.268 C 330.357 250.523,330.708 245.526,329.200 243.908 C 328.760 243.436,328.400 242.813,328.400 242.525 C 328.400 242.236,328.220 242.000,328.000 242.000 C 327.780 242.000,327.600 241.764,327.600 241.475 C 327.600 241.187,327.240 240.564,326.800 240.092 C 326.360 239.620,326.000 238.956,326.000 238.617 C 326.000 238.278,325.865 237.999,325.700 237.999 C 325.535 237.998,324.860 236.963,324.200 235.699 C 323.540 234.434,322.897 233.310,322.770 233.200 C 322.644 233.090,322.104 232.190,321.570 231.200 C 321.037 230.210,320.387 229.174,320.126 228.898 C 319.866 228.621,319.538 228.036,319.399 227.598 C 319.260 227.159,318.978 226.800,318.773 226.800 C 318.568 226.800,318.400 226.530,318.400 226.200 C 318.400 225.870,318.220 225.600,318.000 225.600 C 317.780 225.600,317.600 225.280,317.600 224.888 C 317.600 224.497,317.240 223.917,316.800 223.600 C 316.360 223.283,316.000 222.703,316.000 222.312 C 316.000 221.920,315.820 221.600,315.600 221.600 C 315.380 221.600,315.200 221.060,315.200 220.400 C 315.200 219.740,315.380 219.200,315.600 219.200 C 315.820 219.200,316.000 218.922,316.000 218.582 C 316.000 217.886,317.740 216.000,318.382 216.000 C 318.612 216.000,318.800 215.820,318.800 215.600 C 318.800 215.380,319.030 215.200,319.312 215.200 C 319.593 215.200,320.083 214.840,320.400 214.400 C 320.717 213.960,321.115 213.600,321.284 213.600 C 322.806 213.600,323.200 212.250,323.206 207.011 C 323.212 202.118,323.336 201.300,324.651 197.500 C 324.784 197.115,325.052 196.800,325.247 196.800 C 325.441 196.800,325.600 196.553,325.600 196.251 C 325.600 195.488,328.794 192.619,330.440 191.904 C 333.418 190.609,334.083 190.400,335.219 190.400 C 336.698 190.400,336.731 189.905,335.300 189.170 C 334.695 188.860,333.909 188.289,333.553 187.903 C 333.197 187.516,332.692 187.200,332.429 187.200 C 332.167 187.200,332.064 187.020,332.200 186.800 C 332.336 186.580,332.143 186.400,331.771 186.400 C 331.398 186.400,330.791 186.051,330.422 185.625 C 330.052 185.199,329.503 184.794,329.202 184.725 C 328.902 184.656,328.121 184.105,327.468 183.500 C 326.816 182.895,326.078 182.400,325.829 182.400 C 325.580 182.400,325.117 182.040,324.800 181.600 C 324.483 181.160,324.033 180.800,323.800 180.800 C 323.567 180.800,323.117 180.440,322.800 180.000 C 322.483 179.560,322.055 179.200,321.849 179.200 C 321.644 179.200,320.865 178.735,320.120 178.166 C 318.783 177.146,318.749 177.142,317.732 177.866 C 315.127 179.719,314.498 179.996,312.895 179.998 C 308.084 180.004,305.223 174.832,307.648 170.514 C 308.115 169.684,309.015 168.251,309.648 167.330 C 310.282 166.409,310.800 165.551,310.800 165.423 C 310.800 165.295,311.589 163.978,312.554 162.495 C 314.553 159.422,320.435 149.825,321.841 147.341 C 322.889 145.489,322.693 145.068,320.600 144.675 C 319.940 144.551,318.635 144.258,317.700 144.025 C 313.605 143.002,312.507 142.735,311.000 142.400 C 310.120 142.204,308.590 141.844,307.600 141.600 C 306.610 141.356,305.080 140.996,304.200 140.800 C 302.496 140.421,300.013 139.821,297.400 139.157 C 296.520 138.934,295.260 138.650,294.600 138.528 C 293.007 138.231,290.952 136.654,290.158 135.119 C 289.335 133.528,289.519 131.038,291.200 121.000 C 292.082 115.729,293.119 109.153,293.564 106.000 C 293.735 104.790,294.023 103.458,294.203 103.040 C 294.630 102.053,293.134 102.174,282.000 104.024 C 280.790 104.225,278.630 104.574,277.200 104.800 C 275.770 105.026,273.610 105.375,272.400 105.577 C 262.117 107.288,259.376 106.680,258.079 102.400 C 257.522 100.565,256.350 95.932,255.600 92.600 C 255.352 91.500,254.987 89.970,254.788 89.200 C 254.589 88.430,253.959 85.820,253.387 83.400 C 251.483 75.342,251.101 73.801,250.973 73.656 C 250.768 73.424,248.400 74.566,248.400 74.898 C 248.400 75.064,248.207 75.200,247.972 75.200 C 247.737 75.200,246.759 75.740,245.800 76.400 C 244.841 77.060,243.951 77.600,243.823 77.600 C 243.695 77.600,242.378 78.389,240.895 79.353 C 220.207 92.805,220.946 92.866,209.993 76.800 C 209.468 76.030,208.938 75.310,208.814 75.200 C 208.691 75.090,207.439 73.380,206.032 71.400 C 202.207 66.018,200.337 63.600,200.000 63.600 C 199.834 63.600,198.984 64.545,198.112 65.700 M212.879 162.919 C 216.376 164.636,218.515 167.045,219.879 170.800 C 220.537 172.611,220.608 192.263,219.964 194.372 C 213.716 214.831,186.284 214.831,180.036 194.372 C 179.392 192.263,179.463 172.611,180.121 170.800 C 181.490 167.031,183.695 164.602,187.400 162.780 L 189.800 161.600 200.200 161.700 L 210.600 161.800 212.879 162.919 M137.239 176.152 C 146.362 178.061,148.797 182.416,148.781 196.800 C 148.769 207.846,148.238 210.458,145.039 215.200 C 142.159 219.470,137.170 222.874,132.400 223.824 C 125.569 225.185,118.673 223.072,113.673 218.087 C 110.806 215.228,109.548 213.053,108.055 208.372 C 107.507 206.651,107.420 186.740,107.956 185.695 C 108.152 185.313,108.718 184.150,109.213 183.112 C 110.870 179.638,114.434 177.051,118.800 176.155 C 122.053 175.486,134.048 175.485,137.239 176.152 M280.633 176.036 C 285.268 176.890,289.090 179.553,290.787 183.112 C 291.282 184.150,291.848 185.313,292.044 185.695 C 292.580 186.740,292.493 206.651,291.945 208.372 C 289.494 216.057,285.308 220.578,278.200 223.219 C 274.461 224.608,268.716 224.587,265.300 223.173 C 260.375 221.133,257.432 218.863,254.961 215.200 C 251.762 210.458,251.231 207.846,251.219 196.800 C 251.205 184.327,252.798 180.180,258.670 177.393 C 262.157 175.739,274.785 174.958,280.633 176.036 M120.014 189.174 C 119.454 190.221,119.483 202.085,120.053 204.924 C 121.606 212.656,131.837 214.260,135.260 207.308 C 136.206 205.389,136.913 192.098,136.217 189.327 L 135.985 188.400 128.206 188.400 C 120.926 188.400,120.402 188.449,120.014 189.174 M48.900 202.799 C 47.827 203.246,47.505 217.250,48.492 220.554 C 50.515 227.324,59.955 228.168,63.298 221.877 C 64.293 220.005,64.899 204.512,64.029 203.200 C 63.559 202.492,50.470 202.146,48.900 202.799 M336.241 202.921 C 335.189 203.690,335.458 219.889,336.557 221.911 C 339.941 228.137,349.501 227.269,351.508 220.554 C 352.182 218.298,352.192 203.552,351.520 202.880 C 350.814 202.174,337.212 202.210,336.241 202.921 M84.000 321.992 L 84.000 348.000 91.992 348.000 C 99.949 348.000,99.986 347.996,100.203 347.100 C 100.323 346.605,100.371 334.950,100.310 321.200 L 100.200 296.200 92.100 296.092 L 84.000 295.983 84.000 321.992 M12.000 329.200 L 12.000 348.000 20.000 348.000 L 28.000 348.000 28.000 329.200 L 28.000 310.400 20.000 310.400 L 12.000 310.400 12.000 329.200 M371.696 329.100 L 371.800 347.800 379.900 347.908 L 388.000 348.017 388.000 329.208 L 388.000 310.400 379.796 310.400 L 371.592 310.400 371.696 329.100 " stroke="none" fill="#fbd271" fill-rule="evenodd"></path><path id="path3" d="M127.300 239.865 C 127.025 239.976,126.800 240.440,126.800 240.896 C 126.800 241.351,126.341 242.327,125.779 243.063 C 123.948 245.463,123.329 245.599,114.120 245.614 C 100.668 245.637,96.121 246.970,90.627 252.503 C 84.967 258.204,83.420 263.609,83.673 276.800 L 83.800 283.400 92.060 283.508 L 100.319 283.616 100.460 278.508 C 100.667 270.965,104.171 267.587,109.120 270.162 C 112.956 272.158,112.800 270.395,112.800 311.660 L 112.800 348.000 128.200 348.000 L 143.600 348.000 143.600 299.324 C 143.600 248.084,143.586 248.509,145.455 243.032 C 145.975 241.509,146.400 240.114,146.400 239.932 C 146.400 239.582,128.160 239.518,127.300 239.865 M55.214 254.374 C 54.986 254.799,54.800 255.446,54.800 255.812 C 54.800 259.365,51.469 260.400,40.028 260.400 C 34.072 260.400,30.354 260.551,30.200 260.800 C 30.064 261.020,29.511 261.200,28.971 261.200 C 28.431 261.200,27.677 261.359,27.295 261.554 C 26.913 261.749,25.527 262.424,24.215 263.054 C 20.795 264.697,16.522 269.031,14.804 272.600 C 12.365 277.669,12.362 277.686,12.135 289.100 L 11.957 298.000 19.936 298.000 C 29.194 298.000,28.400 298.463,28.400 293.065 C 28.400 285.945,31.111 282.684,35.948 283.986 C 41.032 285.355,40.800 283.718,40.800 318.261 L 40.800 348.000 56.200 348.000 L 71.600 348.000 71.600 306.177 C 71.600 278.300,71.741 263.728,72.022 262.477 C 72.925 258.460,73.540 256.487,74.447 254.705 C 74.641 254.323,74.800 253.918,74.800 253.805 C 74.800 253.078,55.610 253.634,55.214 254.374 " stroke="none" fill="#a3cada" fill-rule="evenodd"></path><path id="path4" d="M198.476 64.705 L 197.552 66.200 198.769 64.800 L 199.987 63.400 201.410 65.000 L 202.833 66.600 201.717 64.915 C 200.336 62.833,199.660 62.789,198.476 64.705 M195.950 68.100 C 195.452 68.815,194.585 70.021,194.022 70.780 C 193.460 71.539,193.192 72.043,193.427 71.901 C 193.933 71.595,197.341 66.800,197.053 66.800 C 196.944 66.800,196.447 67.385,195.950 68.100 M204.401 69.100 C 205.316 70.365,206.635 72.252,207.332 73.293 C 208.030 74.334,208.735 75.189,208.900 75.193 C 209.064 75.197,207.829 73.310,206.153 71.000 C 204.478 68.690,203.024 66.800,202.922 66.800 C 202.820 66.800,203.485 67.835,204.401 69.100 M191.827 73.800 C 191.240 74.570,190.903 75.198,191.080 75.195 C 191.256 75.192,191.807 74.562,192.304 73.795 C 193.468 71.997,193.200 72.000,191.827 73.800 M148.550 73.787 C 148.426 74.110,148.417 74.605,148.531 74.887 C 148.644 75.169,148.751 74.995,148.768 74.500 C 148.800 73.588,149.742 73.259,150.200 74.000 C 150.336 74.220,150.662 74.394,150.924 74.387 C 151.573 74.370,149.984 73.200,149.311 73.200 C 149.016 73.200,148.674 73.464,148.550 73.787 M249.392 73.776 C 248.957 74.105,248.814 74.380,249.076 74.387 C 249.338 74.394,249.664 74.220,249.800 74.000 C 250.242 73.285,251.139 73.577,251.338 74.500 C 251.509 75.298,251.524 75.287,251.466 74.404 C 251.388 73.219,250.489 72.946,249.392 73.776 M152.800 75.301 C 152.800 75.555,155.896 77.600,156.280 77.600 C 156.444 77.600,156.223 77.358,155.789 77.061 C 153.881 75.759,152.800 75.122,152.800 75.301 M244.600 76.800 C 243.940 77.237,243.580 77.592,243.800 77.588 C 244.201 77.582,246.376 76.023,246.000 76.012 C 245.890 76.008,245.260 76.363,244.600 76.800 M189.315 77.300 C 187.491 79.684,186.680 80.911,187.095 80.659 C 187.615 80.344,190.162 76.800,189.868 76.800 C 189.775 76.800,189.526 77.025,189.315 77.300 M211.143 78.518 C 211.840 79.531,212.622 80.490,212.880 80.650 C 213.139 80.809,212.735 80.084,211.984 79.037 C 210.205 76.560,209.494 76.121,211.143 78.518 M158.600 79.007 C 159.040 79.366,159.760 79.835,160.200 80.051 L 161.000 80.444 160.200 79.793 C 159.760 79.434,159.040 78.965,158.600 78.749 L 157.800 78.356 158.600 79.007 M240.193 79.456 C 238.152 80.809,237.432 81.523,239.026 80.614 C 240.430 79.814,242.301 78.422,241.993 78.409 C 241.879 78.404,241.069 78.875,240.193 79.456 M146.672 81.420 C 146.301 82.949,146.013 84.470,146.031 84.800 C 146.049 85.130,146.406 84.050,146.825 82.400 C 147.244 80.750,147.532 79.229,147.467 79.020 C 147.401 78.812,147.043 79.892,146.672 81.420 M252.407 79.033 C 252.421 79.822,253.938 85.360,253.968 84.732 C 253.986 84.365,253.710 82.925,253.357 81.532 C 252.751 79.147,252.392 78.203,252.407 79.033 M161.200 80.535 C 161.200 80.637,161.801 81.075,162.535 81.508 C 163.269 81.941,164.394 82.611,165.035 82.995 L 166.200 83.695 165.200 82.867 C 164.057 81.921,161.200 80.256,161.200 80.535 M186.115 81.700 C 184.381 83.967,183.466 85.320,183.809 85.113 C 184.281 84.827,186.937 81.200,186.674 81.200 C 186.577 81.200,186.326 81.425,186.115 81.700 M214.416 82.963 C 215.168 84.009,215.956 84.973,216.167 85.103 C 216.378 85.233,215.935 84.484,215.184 83.437 C 214.432 82.391,213.644 81.427,213.433 81.297 C 213.222 81.167,213.665 81.916,214.416 82.963 M235.300 82.446 C 233.937 83.319,233.495 83.906,234.700 83.243 C 235.618 82.739,237.056 81.627,236.800 81.619 C 236.690 81.616,236.015 81.988,235.300 82.446 M168.000 84.820 C 169.387 85.761,170.178 86.035,169.200 85.236 C 168.650 84.786,168.020 84.417,167.800 84.415 C 167.580 84.413,167.670 84.596,168.000 84.820 M230.500 85.426 C 229.565 85.987,228.800 86.540,228.800 86.655 C 228.800 86.871,231.499 85.338,232.180 84.736 C 232.867 84.128,232.227 84.391,230.500 85.426 M145.254 87.467 C 145.225 87.944,145.096 88.664,144.970 89.067 C 144.752 89.761,144.764 89.762,145.196 89.088 C 145.447 88.697,145.575 87.977,145.481 87.488 C 145.309 86.601,145.309 86.601,145.254 87.467 M171.600 86.983 C 171.600 87.257,175.212 89.321,175.386 89.147 C 175.468 89.065,174.650 88.503,173.568 87.899 C 172.486 87.295,171.600 86.883,171.600 86.983 M226.200 88.017 C 225.100 88.664,224.364 89.195,224.565 89.197 C 225.006 89.201,228.400 87.242,228.400 86.983 C 228.400 86.722,228.404 86.720,226.200 88.017 M254.406 87.633 C 254.409 88.165,254.589 88.870,254.806 89.200 C 255.082 89.622,255.123 89.385,254.942 88.400 C 254.625 86.675,254.398 86.349,254.406 87.633 M176.900 89.476 C 177.285 89.576,177.915 89.576,178.300 89.476 C 178.685 89.375,178.370 89.293,177.600 89.293 C 176.830 89.293,176.515 89.375,176.900 89.476 M221.700 89.476 C 222.085 89.576,222.715 89.576,223.100 89.476 C 223.485 89.375,223.170 89.293,222.400 89.293 C 221.630 89.293,221.315 89.375,221.700 89.476 M144.449 90.600 C 144.416 91.040,144.296 91.850,144.183 92.400 L 143.977 93.400 144.406 92.419 C 144.642 91.879,144.761 91.069,144.672 90.619 C 144.513 89.821,144.507 89.821,144.449 90.600 M255.228 90.833 C 255.244 91.365,255.419 92.160,255.619 92.600 C 255.871 93.158,255.907 92.915,255.738 91.800 C 255.455 89.943,255.187 89.436,255.228 90.833 M143.654 94.267 C 143.625 94.744,143.496 95.464,143.370 95.867 C 143.152 96.561,143.164 96.562,143.596 95.888 C 143.847 95.497,143.975 94.777,143.881 94.288 C 143.709 93.401,143.709 93.401,143.654 94.267 M256.006 94.433 C 256.009 94.965,256.189 95.670,256.406 96.000 C 256.682 96.422,256.723 96.185,256.542 95.200 C 256.225 93.475,255.998 93.149,256.006 94.433 M142.854 97.467 C 142.825 97.944,142.696 98.664,142.570 99.067 C 142.352 99.761,142.364 99.762,142.796 99.088 C 143.047 98.697,143.175 97.977,143.081 97.488 C 142.909 96.601,142.909 96.601,142.854 97.467 M256.806 97.833 C 256.809 98.255,256.995 98.870,257.218 99.200 C 257.515 99.638,257.552 99.476,257.356 98.600 C 257.027 97.129,256.798 96.810,256.806 97.833 M142.046 100.867 C 142.021 101.234,141.896 101.864,141.770 102.267 C 141.552 102.962,141.563 102.963,141.997 102.287 C 142.248 101.896,142.373 101.266,142.273 100.887 C 142.111 100.268,142.088 100.266,142.046 100.867 M257.606 101.033 C 257.609 101.455,257.795 102.070,258.018 102.400 C 258.315 102.838,258.352 102.676,258.156 101.800 C 257.827 100.329,257.598 100.010,257.606 101.033 M105.600 101.992 C 105.600 102.217,106.170 102.400,106.867 102.400 C 108.323 102.400,108.270 102.225,106.700 101.849 C 106.047 101.692,105.600 101.750,105.600 101.992 M292.800 102.000 C 291.853 102.303,291.868 102.322,293.100 102.360 C 293.815 102.382,294.400 102.220,294.400 102.000 C 294.400 101.548,294.212 101.548,292.800 102.000 M110.400 102.800 C 110.950 102.976,111.850 103.117,112.400 103.113 C 113.298 103.106,113.278 103.074,112.200 102.800 C 110.508 102.369,109.056 102.369,110.400 102.800 M287.800 102.800 C 286.722 103.074,286.702 103.106,287.600 103.113 C 288.150 103.117,289.050 102.976,289.600 102.800 C 290.944 102.369,289.492 102.369,287.800 102.800 M105.838 104.600 C 106.170 106.584,106.402 106.904,106.394 105.367 C 106.391 104.725,106.204 103.930,105.979 103.600 C 105.686 103.170,105.646 103.454,105.838 104.600 M115.400 103.600 C 115.840 103.789,116.650 103.938,117.200 103.932 L 118.200 103.920 117.200 103.600 C 116.650 103.424,115.840 103.274,115.400 103.268 L 114.600 103.256 115.400 103.600 M283.200 103.600 C 282.396 103.857,282.357 103.923,283.000 103.932 C 283.440 103.938,284.160 103.789,284.600 103.600 C 285.619 103.162,284.568 103.162,283.200 103.600 M293.849 103.815 C 293.712 104.173,293.618 104.946,293.640 105.533 C 293.673 106.391,293.752 106.295,294.046 105.040 C 294.422 103.439,294.295 102.653,293.849 103.815 M120.200 104.400 C 120.640 104.589,121.450 104.738,122.000 104.732 L 123.000 104.720 122.000 104.400 C 121.450 104.224,120.640 104.074,120.200 104.068 L 119.400 104.056 120.200 104.400 M278.000 104.400 L 277.000 104.720 278.000 104.732 C 278.550 104.738,279.360 104.589,279.800 104.400 L 280.600 104.056 279.800 104.068 C 279.360 104.074,278.550 104.224,278.000 104.400 M125.400 105.200 C 125.840 105.389,126.650 105.538,127.200 105.532 L 128.200 105.520 127.200 105.200 C 126.650 105.024,125.840 104.874,125.400 104.868 L 124.600 104.856 125.400 105.200 M272.800 105.200 L 271.800 105.520 272.800 105.532 C 273.350 105.538,274.160 105.389,274.600 105.200 L 275.400 104.856 274.600 104.868 C 274.160 104.874,273.350 105.024,272.800 105.200 M130.200 106.000 C 130.640 106.189,131.540 106.335,132.200 106.325 L 133.400 106.305 132.200 106.000 C 131.540 105.832,130.640 105.686,130.200 105.675 L 129.400 105.656 130.200 106.000 M267.800 106.000 L 266.600 106.305 267.800 106.325 C 268.460 106.335,269.360 106.189,269.800 106.000 L 270.600 105.656 269.800 105.675 C 269.360 105.686,268.460 105.832,267.800 106.000 M135.300 106.676 C 135.685 106.776,136.315 106.776,136.700 106.676 C 137.085 106.575,136.770 106.493,136.000 106.493 C 135.230 106.493,134.915 106.575,135.300 106.676 M263.300 106.676 C 263.685 106.776,264.315 106.776,264.700 106.676 C 265.085 106.575,264.770 106.493,264.000 106.493 C 263.230 106.493,262.915 106.575,263.300 106.676 M106.673 109.600 C 106.804 110.590,106.976 111.475,107.056 111.567 C 107.357 111.914,107.128 109.364,106.790 108.600 C 106.553 108.066,106.514 108.398,106.673 109.600 M293.056 108.884 C 292.921 109.388,292.827 110.160,292.846 110.600 C 292.865 111.040,293.045 110.698,293.246 109.840 C 293.636 108.178,293.470 107.340,293.056 108.884 M107.438 114.600 C 107.770 116.584,108.002 116.904,107.994 115.367 C 107.991 114.725,107.804 113.930,107.579 113.600 C 107.286 113.170,107.246 113.454,107.438 114.600 M292.249 113.815 C 292.112 114.173,292.018 114.946,292.040 115.533 C 292.073 116.391,292.152 116.295,292.446 115.040 C 292.822 113.439,292.695 112.653,292.249 113.815 M108.273 119.600 C 108.404 120.590,108.576 121.475,108.656 121.567 C 108.957 121.914,108.728 119.364,108.390 118.600 C 108.153 118.066,108.114 118.398,108.273 119.600 M291.456 118.884 C 291.321 119.388,291.228 120.250,291.249 120.800 C 291.272 121.389,291.431 121.071,291.636 120.025 C 292.003 118.152,291.873 117.327,291.456 118.884 M109.082 124.600 C 109.209 125.700,109.377 126.675,109.456 126.767 C 109.755 127.114,109.528 124.164,109.197 123.400 C 108.974 122.885,108.933 123.313,109.082 124.600 M290.676 123.610 C 290.530 124.155,290.428 125.140,290.449 125.800 C 290.480 126.757,290.559 126.636,290.842 125.200 C 291.229 123.233,291.102 122.017,290.676 123.610 M109.900 130.466 C 110.150 133.727,109.912 134.756,108.514 136.469 C 107.613 137.573,107.586 137.664,108.355 137.001 C 110.226 135.388,111.061 131.174,110.020 128.600 C 109.834 128.139,109.783 128.929,109.900 130.466 M289.852 128.900 C 289.036 131.944,289.804 135.414,291.645 137.001 C 292.414 137.664,292.387 137.573,291.486 136.469 C 290.094 134.763,289.849 133.719,290.102 130.566 C 290.319 127.864,290.251 127.412,289.852 128.900 M103.000 138.800 L 102.200 139.144 103.000 139.166 C 103.440 139.178,104.070 139.013,104.400 138.800 C 105.195 138.286,104.196 138.286,103.000 138.800 M299.200 139.600 C 299.530 139.813,300.160 139.978,300.600 139.966 L 301.400 139.944 300.600 139.600 C 299.404 139.086,298.405 139.086,299.200 139.600 M96.200 140.400 L 95.400 140.744 96.200 140.766 C 96.640 140.778,97.270 140.613,97.600 140.400 C 98.395 139.886,97.396 139.886,96.200 140.400 M302.400 140.400 C 302.730 140.613,303.360 140.778,303.800 140.766 L 304.600 140.744 303.800 140.400 C 302.604 139.886,301.605 139.886,302.400 140.400 M92.800 141.200 L 91.800 141.520 92.876 141.560 C 93.468 141.582,94.064 141.420,94.200 141.200 C 94.481 140.745,94.220 140.745,92.800 141.200 M306.000 141.182 C 306.330 141.405,306.945 141.591,307.367 141.594 C 308.390 141.602,308.071 141.373,306.600 141.044 C 305.724 140.848,305.562 140.885,306.000 141.182 M89.600 142.000 C 88.776 142.264,88.741 142.326,89.400 142.354 C 89.840 142.373,90.470 142.213,90.800 142.000 C 91.501 141.547,91.014 141.547,89.600 142.000 M309.200 141.982 C 309.530 142.205,310.145 142.391,310.567 142.394 C 311.590 142.402,311.271 142.173,309.800 141.844 C 308.924 141.648,308.762 141.685,309.200 141.982 M86.200 142.800 C 85.093 143.082,85.077 143.109,86.000 143.147 C 86.550 143.169,87.270 143.013,87.600 142.800 C 88.281 142.360,87.929 142.360,86.200 142.800 M312.800 142.782 C 313.130 143.005,313.745 143.191,314.167 143.194 C 315.190 143.202,314.871 142.973,313.400 142.644 C 312.524 142.448,312.362 142.485,312.800 142.782 M82.800 143.600 C 81.976 143.864,81.941 143.926,82.600 143.954 C 83.040 143.973,83.670 143.813,84.000 143.600 C 84.701 143.147,84.214 143.147,82.800 143.600 M316.000 143.582 C 316.330 143.805,316.945 143.991,317.367 143.994 C 318.390 144.002,318.071 143.773,316.600 143.444 C 315.724 143.248,315.562 143.285,316.000 143.582 M79.400 144.400 C 78.293 144.682,78.277 144.709,79.200 144.747 C 79.750 144.769,80.470 144.613,80.800 144.400 C 81.481 143.960,81.129 143.960,79.400 144.400 M319.200 144.394 C 319.530 144.611,320.235 144.791,320.767 144.794 C 322.051 144.802,321.725 144.575,320.000 144.258 C 319.015 144.077,318.778 144.118,319.200 144.394 M76.992 145.213 C 76.852 145.439,77.108 146.204,77.562 146.913 C 78.015 147.621,78.384 148.020,78.381 147.800 C 78.377 147.580,78.113 147.055,77.794 146.633 C 77.363 146.064,77.328 145.728,77.656 145.333 C 77.959 144.967,77.965 144.800,77.673 144.800 C 77.439 144.800,77.132 144.986,76.992 145.213 M322.344 145.333 C 322.672 145.728,322.637 146.064,322.206 146.633 C 321.887 147.055,321.623 147.580,321.619 147.800 C 321.616 148.020,321.985 147.621,322.438 146.913 C 323.239 145.662,323.194 144.800,322.327 144.800 C 322.035 144.800,322.041 144.967,322.344 145.333 M79.549 150.200 C 79.765 150.640,80.234 151.360,80.593 151.800 L 81.244 152.600 80.851 151.800 C 80.635 151.360,80.166 150.640,79.807 150.200 L 79.156 149.400 79.549 150.200 M320.153 150.100 C 318.776 152.436,318.686 152.635,319.387 151.800 C 320.200 150.832,320.900 149.600,320.638 149.600 C 320.533 149.600,320.315 149.825,320.153 150.100 M81.724 153.800 C 82.062 154.460,82.638 155.360,83.004 155.800 C 83.370 156.240,83.265 155.880,82.770 155.000 C 81.680 153.058,80.864 152.122,81.724 153.800 M317.952 153.700 C 317.690 154.195,317.215 155.050,316.896 155.600 C 316.339 156.559,316.343 156.567,316.988 155.800 C 317.786 154.852,318.905 152.800,318.624 152.800 C 318.516 152.800,318.214 153.205,317.952 153.700 M84.986 159.100 C 85.335 159.815,85.706 160.400,85.810 160.400 C 86.208 160.400,85.952 159.763,85.167 158.800 L 84.352 157.800 84.986 159.100 M187.400 162.787 C 184.020 164.458,180.355 168.292,180.418 170.092 C 180.427 170.371,180.801 169.906,181.248 169.059 C 184.358 163.164,186.994 162.200,200.000 162.200 C 213.006 162.200,215.642 163.164,218.752 169.059 C 219.199 169.906,219.573 170.371,219.582 170.092 C 219.644 168.322,216.030 164.466,212.842 162.901 L 210.600 161.800 200.200 161.700 L 189.800 161.600 187.400 162.787 M88.186 164.300 C 88.535 165.015,88.906 165.600,89.010 165.600 C 89.408 165.600,89.152 164.963,88.367 164.000 L 87.552 163.000 88.186 164.300 M311.414 164.235 C 311.041 164.804,310.827 165.361,310.939 165.472 C 311.050 165.583,311.429 165.118,311.781 164.437 C 312.559 162.933,312.344 162.815,311.414 164.235 M91.160 169.000 C 91.834 170.305,92.388 171.028,92.385 170.600 C 92.383 170.380,92.014 169.750,91.564 169.200 C 91.021 168.536,90.885 168.469,91.160 169.000 M308.214 169.435 C 307.841 170.004,307.605 170.538,307.689 170.622 C 307.773 170.707,308.158 170.241,308.544 169.588 C 309.406 168.128,309.148 168.009,308.214 169.435 M179.849 171.415 C 179.712 171.773,179.622 172.816,179.650 173.733 C 179.698 175.331,179.713 175.310,180.018 173.202 C 180.347 170.934,180.285 170.281,179.849 171.415 M219.866 172.800 C 220.001 174.010,220.177 175.075,220.256 175.167 C 220.594 175.558,220.352 171.744,220.004 171.200 C 219.748 170.799,219.702 171.330,219.866 172.800 M92.752 172.487 C 92.937 173.598,92.993 173.655,93.119 172.854 C 93.201 172.333,93.103 171.743,92.901 171.541 C 92.679 171.319,92.621 171.693,92.752 172.487 M92.752 175.113 C 92.621 175.907,92.679 176.281,92.901 176.059 C 93.103 175.857,93.201 175.267,93.119 174.746 C 92.993 173.945,92.937 174.002,92.752 175.113 M306.855 174.800 C 306.840 175.350,307.104 176.250,307.442 176.800 C 307.849 177.464,307.962 177.531,307.778 177.000 C 307.626 176.560,307.362 175.660,307.191 175.000 C 306.908 173.902,306.880 173.885,306.855 174.800 M119.800 176.000 C 119.140 176.168,122.830 176.309,128.000 176.313 C 133.260 176.317,136.960 176.179,136.400 176.000 C 135.129 175.593,121.399 175.593,119.800 176.000 M263.600 176.000 C 263.040 176.179,266.740 176.317,272.000 176.313 C 277.170 176.309,280.860 176.168,280.200 176.000 C 278.601 175.593,264.871 175.593,263.600 176.000 M139.070 176.976 C 146.358 179.255,148.408 183.583,148.386 196.646 C 148.359 212.396,144.722 219.173,134.409 222.690 C 132.586 223.311,132.133 223.582,132.905 223.590 C 133.513 223.595,134.323 223.441,134.705 223.247 C 135.087 223.052,135.940 222.653,136.600 222.359 C 142.381 219.784,146.883 214.160,148.254 207.800 C 149.000 204.342,148.976 188.896,148.220 186.057 C 146.954 181.299,141.830 176.322,138.304 176.427 C 137.712 176.444,137.976 176.634,139.070 176.976 M258.876 177.276 C 255.472 178.926,252.785 182.288,251.742 186.200 C 251.023 188.899,251.026 204.461,251.746 207.800 C 253.117 214.160,257.619 219.784,263.400 222.359 C 264.060 222.653,264.913 223.052,265.295 223.247 C 265.677 223.441,266.487 223.595,267.095 223.590 C 267.867 223.582,267.414 223.311,265.591 222.690 C 255.278 219.173,251.641 212.396,251.614 196.646 C 251.592 183.583,253.642 179.255,260.930 176.976 C 262.156 176.592,262.334 176.452,261.600 176.447 C 261.050 176.443,259.824 176.816,258.876 177.276 M316.989 178.009 C 315.208 179.424,314.184 179.740,312.038 179.535 C 311.174 179.453,310.553 179.524,310.657 179.693 C 311.046 180.322,314.598 179.998,315.800 179.223 C 317.354 178.222,319.069 176.820,318.755 176.809 C 318.620 176.804,317.825 177.344,316.989 178.009 M82.669 178.141 C 84.737 179.860,88.669 180.780,89.339 179.700 C 89.441 179.535,88.664 179.461,87.611 179.535 C 85.646 179.674,83.813 179.020,82.822 177.826 C 82.536 177.482,82.130 177.200,81.920 177.200 C 81.710 177.200,82.047 177.623,82.669 178.141 M110.834 180.656 C 109.935 181.677,109.200 182.707,109.200 182.945 C 109.200 183.183,109.497 182.933,109.860 182.389 C 110.224 181.845,111.069 180.815,111.739 180.100 C 112.409 179.385,112.847 178.800,112.712 178.800 C 112.578 178.800,111.733 179.635,110.834 180.656 M288.400 180.200 C 289.146 180.970,289.847 181.600,289.957 181.600 C 290.067 181.600,289.546 180.970,288.800 180.200 C 288.054 179.430,287.353 178.800,287.243 178.800 C 287.133 178.800,287.654 179.430,288.400 180.200 M107.867 185.867 C 107.501 186.232,107.539 207.285,107.906 207.862 C 108.068 208.116,108.200 203.211,108.200 196.962 C 108.200 190.713,108.185 185.600,108.167 185.600 C 108.148 185.600,108.013 185.720,107.867 185.867 M291.800 197.000 C 291.800 203.228,291.932 208.116,292.094 207.862 C 292.482 207.252,292.488 186.101,292.100 185.862 C 291.935 185.760,291.800 190.772,291.800 197.000 M179.606 191.033 C 179.609 192.335,179.785 193.670,179.997 194.000 C 180.251 194.397,180.298 193.653,180.135 191.800 C 179.825 188.283,179.598 187.953,179.606 191.033 M220.076 190.250 C 220.034 191.158,219.898 192.508,219.773 193.250 C 219.590 194.345,219.631 194.468,219.993 193.900 C 220.240 193.513,220.375 192.171,220.296 190.900 C 220.184 189.128,220.134 188.979,220.076 190.250 M71.268 193.362 C 72.249 194.110,73.360 195.145,73.737 195.662 C 74.346 196.495,74.378 196.503,74.016 195.735 C 73.567 194.781,70.481 192.000,69.870 192.000 C 69.658 192.000,70.287 192.613,71.268 193.362 M327.643 193.837 C 326.519 194.847,325.609 195.882,325.621 196.137 C 325.633 196.392,325.936 196.178,326.295 195.662 C 326.655 195.145,327.751 194.110,328.732 193.362 C 329.713 192.613,330.329 192.000,330.101 192.000 C 329.873 192.000,328.767 192.827,327.643 193.837 M180.419 195.342 C 180.408 195.749,181.029 197.280,181.798 198.744 C 189.463 213.330,210.531 213.341,218.192 198.763 C 218.966 197.289,219.586 195.749,219.568 195.342 C 219.545 194.787,219.484 194.751,219.327 195.200 C 213.002 213.324,188.080 214.134,181.157 196.439 C 180.761 195.428,180.429 194.934,180.419 195.342 M323.456 200.884 C 323.321 201.388,323.241 203.960,323.279 206.600 L 323.347 211.400 323.583 205.800 C 323.837 199.774,323.829 199.492,323.456 200.884 M76.311 204.537 C 76.483 210.783,76.666 211.511,76.730 206.200 C 76.762 203.560,76.656 201.191,76.494 200.937 C 76.332 200.682,76.250 202.302,76.311 204.537 M335.365 211.000 C 335.366 214.960,335.426 216.526,335.498 214.480 C 335.571 212.434,335.571 209.194,335.498 207.280 C 335.424 205.366,335.365 207.040,335.365 211.000 M352.166 211.200 C 352.166 215.270,352.225 216.935,352.298 214.900 C 352.371 212.865,352.371 209.535,352.298 207.500 C 352.225 205.465,352.166 207.130,352.166 211.200 M127.505 211.883 C 128.002 211.979,128.722 211.975,129.105 211.875 C 129.487 211.775,129.080 211.696,128.200 211.701 C 127.320 211.705,127.007 211.787,127.505 211.883 M110.000 213.368 C 110.000 213.954,112.372 217.044,113.862 218.399 L 115.400 219.799 113.949 218.199 C 113.151 217.320,111.936 215.808,111.249 214.840 C 110.562 213.872,110.000 213.210,110.000 213.368 M289.088 214.360 C 288.719 214.984,287.568 216.463,286.531 217.647 C 284.922 219.482,284.868 219.593,286.160 218.400 C 287.737 216.944,290.195 213.662,289.918 213.384 C 289.830 213.296,289.456 213.735,289.088 214.360 M171.200 219.788 C 167.130 220.723,160.491 223.531,160.067 224.497 C 159.993 224.663,159.712 224.800,159.442 224.800 C 159.172 224.800,158.599 225.115,158.169 225.500 C 157.739 225.885,156.355 227.069,155.092 228.132 C 151.799 230.904,145.711 239.444,146.480 240.213 C 146.575 240.309,147.249 239.265,147.976 237.894 C 152.750 228.890,161.557 222.322,171.689 220.208 C 175.961 219.317,223.994 219.307,228.259 220.197 C 237.644 222.155,246.459 228.307,251.012 236.075 C 251.776 237.377,252.400 238.591,252.400 238.772 C 252.400 238.954,252.707 239.349,253.081 239.651 C 254.075 240.452,251.038 235.048,249.021 232.428 C 246.684 229.391,241.577 224.823,240.500 224.807 C 240.225 224.803,239.999 224.665,239.997 224.500 C 239.995 224.335,239.590 223.997,239.097 223.749 C 235.663 222.020,234.738 221.612,232.600 220.884 C 231.280 220.434,229.246 219.871,228.080 219.633 C 224.885 218.980,174.111 219.119,171.200 219.788 M115.973 220.164 C 116.738 221.091,122.078 223.602,123.262 223.592 C 123.781 223.587,123.039 223.172,121.600 222.663 C 120.170 222.157,118.190 221.231,117.200 220.605 C 116.136 219.933,115.634 219.753,115.973 220.164 M283.780 219.979 C 283.571 220.187,282.320 220.905,281.000 221.574 C 279.680 222.243,278.835 222.792,279.122 222.795 C 279.843 222.802,284.400 220.322,284.400 219.923 C 284.400 219.501,284.245 219.515,283.780 219.979 M276.800 223.200 L 275.800 223.520 276.876 223.560 C 277.468 223.582,278.064 223.420,278.200 223.200 C 278.481 222.745,278.220 222.745,276.800 223.200 M125.000 224.025 C 126.088 224.458,130.470 224.470,131.147 224.041 C 131.477 223.832,130.209 223.697,127.947 223.701 C 125.679 223.704,124.516 223.832,125.000 224.025 M268.853 224.041 C 269.530 224.470,273.912 224.458,275.000 224.025 C 275.484 223.832,274.321 223.704,272.053 223.701 C 269.791 223.697,268.523 223.832,268.853 224.041 M100.400 234.000 C 98.401 234.421,100.452 234.438,102.800 234.020 C 104.424 233.732,104.463 233.700,103.200 233.703 C 102.430 233.704,101.170 233.838,100.400 234.000 M117.400 233.974 C 124.035 234.242,125.711 235.019,126.507 238.200 C 126.672 238.859,126.715 238.876,126.754 238.294 C 126.965 235.084,123.837 233.581,117.140 233.674 L 111.800 233.748 117.400 233.974 M276.200 234.216 C 274.993 234.817,273.192 237.153,273.209 238.094 C 273.214 238.372,273.497 238.034,273.839 237.342 C 275.261 234.459,275.854 234.224,282.332 233.971 L 288.200 233.742 282.800 233.680 C 278.712 233.633,277.108 233.763,276.200 234.216 M297.200 234.020 C 299.614 234.450,301.506 234.413,299.400 233.977 C 298.520 233.795,297.260 233.658,296.600 233.673 C 295.700 233.693,295.850 233.780,297.200 234.020 M95.894 235.085 C 94.845 235.435,94.060 235.793,94.148 235.882 C 94.237 235.970,95.365 235.686,96.655 235.250 C 97.945 234.814,98.730 234.455,98.400 234.453 C 98.070 234.451,96.942 234.735,95.894 235.085 M303.200 235.190 C 304.410 235.623,305.580 235.975,305.800 235.973 C 306.524 235.965,303.754 234.896,302.362 234.647 C 301.483 234.489,301.780 234.682,303.200 235.190 M90.200 237.521 C 86.701 239.457,82.400 242.737,82.400 243.469 C 82.400 243.630,83.075 243.124,83.900 242.344 C 85.760 240.585,87.489 239.389,90.592 237.717 C 91.916 237.002,92.820 236.417,92.600 236.416 C 92.380 236.415,91.300 236.912,90.200 237.521 M309.408 237.717 C 310.733 238.431,312.381 239.417,313.070 239.908 C 313.760 240.398,314.476 240.799,314.662 240.798 C 314.848 240.797,314.190 240.248,313.200 239.577 C 311.211 238.229,307.803 236.395,307.313 236.409 C 307.141 236.414,308.084 237.002,309.408 237.717 M316.171 242.297 C 316.815 243.009,317.430 243.504,317.538 243.396 C 317.645 243.288,317.658 243.155,317.567 243.100 C 317.475 243.045,316.860 242.551,316.200 242.001 L 315.000 241.003 316.171 242.297 M79.775 246.100 L 78.600 247.400 79.900 246.225 C 81.112 245.130,81.384 244.800,81.075 244.800 C 81.006 244.800,80.421 245.385,79.775 246.100 M318.800 244.925 C 318.800 244.994,319.385 245.579,320.100 246.225 L 321.400 247.400 320.225 246.100 C 319.130 244.888,318.800 244.616,318.800 244.925 M143.724 251.800 C 143.726 253.120,143.801 253.612,143.890 252.893 C 143.979 252.174,143.977 251.094,143.886 250.493 C 143.795 249.892,143.722 250.480,143.724 251.800 M90.378 252.300 L 89.000 253.800 90.500 252.422 C 91.896 251.138,92.184 250.800,91.878 250.800 C 91.812 250.800,91.137 251.475,90.378 252.300 M325.200 253.930 C 325.200 254.120,325.572 255.338,326.026 256.637 C 328.007 262.304,328.000 262.120,328.000 305.802 C 328.000 328.315,328.109 347.019,328.243 347.367 C 328.458 347.929,330.204 348.000,343.796 348.000 L 359.107 348.000 359.348 347.100 C 359.481 346.605,359.592 333.267,359.595 317.460 C 359.601 285.837,359.515 286.970,362.043 285.169 C 363.465 284.157,366.578 284.058,368.340 284.969 C 370.445 286.057,370.975 287.584,371.200 293.200 L 371.400 298.200 379.582 298.200 L 387.764 298.200 388.042 297.200 C 388.486 295.603,388.441 281.980,387.983 279.373 C 386.366 270.175,380.176 263.203,371.489 260.796 C 369.010 260.109,367.354 259.999,359.408 259.991 C 347.816 259.980,346.110 259.390,345.231 255.090 L 344.968 253.800 335.084 253.693 C 329.648 253.634,325.200 253.741,325.200 253.930 M74.173 255.043 C 74.038 255.459,73.784 256.160,73.609 256.600 C 73.236 257.538,72.615 259.839,72.022 262.477 C 71.737 263.743,71.631 277.877,71.694 305.877 L 71.788 347.400 71.999 305.000 C 72.226 259.340,72.122 261.619,74.226 256.250 C 74.560 255.398,74.740 254.607,74.626 254.493 C 74.512 254.379,74.308 254.626,74.173 255.043 M53.872 256.919 C 53.481 257.645,52.675 258.540,52.081 258.909 C 51.486 259.277,51.219 259.584,51.487 259.589 C 52.167 259.604,54.800 256.900,54.800 256.187 C 54.800 255.339,54.666 255.445,53.872 256.919 M40.200 260.000 L 30.600 260.222 40.200 260.305 C 45.871 260.354,50.046 260.229,50.400 260.000 C 50.933 259.655,50.933 259.621,50.400 259.695 C 50.070 259.741,45.480 259.878,40.200 260.000 M27.600 261.013 C 22.075 262.732,16.461 267.575,14.211 272.563 C 11.863 277.769,11.534 280.037,11.680 290.000 L 11.800 298.200 20.300 298.308 L 28.800 298.416 28.717 293.508 C 28.639 288.892,28.627 288.826,28.517 292.400 C 28.326 298.634,29.294 298.000,19.971 298.000 L 11.957 298.000 12.135 289.100 C 12.362 277.686,12.365 277.669,14.804 272.600 C 16.522 269.031,20.795 264.697,24.215 263.054 C 25.527 262.424,26.913 261.749,27.295 261.554 C 27.677 261.359,28.431 261.200,28.971 261.200 C 29.511 261.200,30.064 261.020,30.200 260.800 C 30.527 260.272,29.790 260.332,27.600 261.013 M83.693 266.800 C 83.693 267.570,83.775 267.885,83.876 267.500 C 83.976 267.115,83.976 266.485,83.876 266.100 C 83.775 265.715,83.693 266.030,83.693 266.800 M100.551 278.800 C 100.551 281.330,100.616 282.365,100.696 281.100 C 100.775 279.835,100.775 277.765,100.696 276.500 C 100.616 275.235,100.551 276.270,100.551 278.800 M112.592 311.200 C 112.592 331.330,112.640 339.565,112.700 329.500 C 112.759 319.435,112.759 302.965,112.700 292.900 C 112.640 282.835,112.592 291.070,112.592 311.200 M32.541 284.037 C 31.119 284.449,28.791 286.873,28.818 287.914 C 28.828 288.317,29.150 288.005,29.597 287.160 C 31.245 284.041,36.145 283.287,38.629 285.771 C 40.204 287.346,40.193 287.152,40.405 317.800 L 40.610 347.400 40.705 317.961 C 40.787 292.529,40.719 288.360,40.203 287.326 C 38.791 284.496,35.635 283.141,32.541 284.037 M371.384 328.600 C 371.384 338.720,371.436 342.803,371.500 337.673 C 371.563 332.542,371.563 324.262,371.500 319.273 C 371.436 314.283,371.384 318.480,371.384 328.600 M300.000 347.614 C 300.000 347.886,302.728 348.012,308.000 347.983 C 312.596 347.958,316.000 347.782,316.000 347.570 C 316.000 347.356,312.628 347.200,308.000 347.200 C 302.756 347.200,300.000 347.343,300.000 347.614 " stroke="none" fill="#9bd67a" fill-rule="evenodd"></path></g></svg>