<svg id="svg" version="1.1" xmlns="http://www.w3.org/2000/svg" xmlns:xlink="http://www.w3.org/1999/xlink" width="400" height="400" viewBox="0, 0, 400,400"><g id="svgg"><path id="path0" d="M201.400 28.243 C 200.740 28.340,198.850 28.705,197.200 29.055 C 194.448 29.638,192.668 30.233,185.200 33.067 C 183.770 33.610,181.790 34.321,180.800 34.647 C 179.810 34.973,178.640 35.393,178.200 35.580 C 177.760 35.766,176.770 36.136,176.000 36.400 C 175.230 36.664,174.240 37.031,173.800 37.214 C 173.360 37.397,171.830 37.931,170.400 38.400 C 168.970 38.869,167.440 39.412,167.000 39.607 C 166.560 39.801,165.412 40.214,164.449 40.524 L 162.697 41.086 177.273 55.643 L 191.848 70.200 195.624 71.352 C 200.799 72.931,206.834 74.840,207.800 75.203 C 208.240 75.369,210.490 76.087,212.800 76.800 C 215.110 77.513,217.360 78.233,217.800 78.400 C 218.240 78.568,219.950 79.113,221.600 79.611 C 223.250 80.110,226.130 81.013,228.000 81.618 C 229.870 82.224,233.740 83.451,236.600 84.345 C 246.879 87.559,248.107 87.978,249.027 88.581 C 253.248 91.347,254.102 96.668,250.920 100.385 C 248.215 103.545,245.057 103.993,239.247 102.042 C 237.351 101.405,232.830 99.952,229.200 98.814 C 225.570 97.676,220.710 96.140,218.400 95.400 C 216.090 94.660,211.230 93.124,207.600 91.986 C 203.970 90.848,199.470 89.422,197.600 88.817 C 195.730 88.213,192.310 87.125,190.000 86.400 C 187.690 85.675,184.270 84.585,182.400 83.978 C 169.508 79.790,167.003 79.505,162.293 81.692 C 148.372 88.152,151.581 106.477,167.600 111.998 C 168.370 112.264,169.360 112.636,169.800 112.827 C 170.240 113.017,174.110 114.340,178.400 115.766 C 182.690 117.192,192.320 120.428,199.800 122.958 C 217.336 128.887,217.259 128.861,218.200 129.240 C 218.640 129.417,221.250 130.311,224.000 131.226 C 230.626 133.431,230.746 133.504,233.656 137.095 C 246.331 152.735,268.840 158.463,285.832 150.372 C 293.968 146.498,302.912 138.294,307.459 130.536 L 308.460 128.828 308.130 97.917 L 307.800 67.007 305.600 66.708 C 298.621 65.760,296.725 65.439,294.139 64.764 C 288.571 63.310,281.344 60.176,275.200 56.549 C 273.493 55.542,272.858 55.175,269.300 53.143 C 260.734 48.252,254.155 44.752,245.200 40.324 C 240.030 37.767,234.990 35.315,234.000 34.873 C 233.010 34.432,230.785 33.426,229.054 32.638 C 221.269 29.089,208.950 27.132,201.400 28.243 M324.276 57.057 C 324.124 57.209,324.000 72.513,324.000 91.067 L 324.000 124.800 330.802 124.800 L 337.605 124.800 337.502 90.900 L 337.400 57.000 330.976 56.890 C 327.443 56.830,324.428 56.905,324.276 57.057 M275.376 96.675 C 279.151 97.495,281.796 103.242,280.179 107.113 C 276.295 116.411,262.377 111.580,265.266 101.936 C 266.222 98.748,270.784 95.537,273.400 96.213 C 273.840 96.326,274.729 96.534,275.376 96.675 M134.070 101.100 C 128.522 104.462,123.364 110.978,121.640 116.800 C 121.347 117.790,120.948 119.122,120.753 119.760 C 120.559 120.398,120.400 123.026,120.400 125.600 C 120.400 128.174,120.559 130.802,120.753 131.440 C 120.948 132.078,121.345 133.410,121.637 134.400 C 128.836 158.825,163.550 161.180,174.694 138.000 C 177.542 132.075,177.719 132.349,169.200 129.496 C 162.502 127.252,157.326 125.315,156.600 124.780 C 156.380 124.618,155.480 124.088,154.600 123.603 C 147.062 119.445,140.115 110.529,138.390 102.800 C 137.678 99.607,137.675 99.600,137.085 99.600 C 136.788 99.600,135.431 100.275,134.070 101.100 M122.589 258.610 C 112.563 260.813,101.123 268.913,94.495 278.500 C 91.323 283.089,91.518 280.443,91.837 314.492 L 92.125 345.200 93.796 345.200 C 95.856 345.200,100.828 346.041,106.000 347.265 C 109.484 348.089,112.648 349.296,117.400 351.612 C 121.717 353.716,123.440 354.636,128.500 357.539 C 129.325 358.013,130.675 358.779,131.500 359.243 C 132.325 359.706,133.180 360.220,133.400 360.385 C 133.811 360.693,136.632 362.257,141.200 364.707 C 145.043 366.769,160.451 374.477,164.600 376.413 C 174.360 380.967,175.843 381.569,179.200 382.334 C 180.190 382.559,181.900 382.978,183.000 383.265 C 185.737 383.978,199.096 383.985,201.800 383.275 C 202.900 382.986,204.520 382.563,205.400 382.336 C 206.280 382.108,207.313 381.760,207.695 381.561 C 208.077 381.362,208.574 381.200,208.799 381.200 C 209.024 381.200,209.972 380.855,210.904 380.434 C 211.837 380.012,213.320 379.435,214.200 379.150 C 215.080 378.866,215.980 378.523,216.200 378.389 C 216.420 378.254,217.410 377.900,218.400 377.602 C 219.390 377.305,220.371 376.912,220.580 376.730 C 220.789 376.549,221.338 376.400,221.800 376.400 C 222.262 376.400,222.811 376.251,223.020 376.070 C 223.229 375.888,224.210 375.495,225.200 375.198 C 226.190 374.900,227.180 374.546,227.400 374.411 C 227.620 374.277,228.520 373.936,229.400 373.655 C 230.280 373.373,231.900 372.806,233.000 372.395 C 234.100 371.984,238.870 370.276,243.600 368.599 C 248.330 366.922,252.920 365.274,253.800 364.937 C 254.680 364.600,256.210 364.062,257.200 363.742 C 258.190 363.422,259.360 363.007,259.800 362.820 C 260.240 362.634,261.230 362.264,262.000 362.000 C 262.770 361.736,263.760 361.369,264.200 361.186 C 264.640 361.003,266.170 360.469,267.600 360.000 C 269.030 359.531,270.560 358.997,271.000 358.814 C 271.440 358.631,272.430 358.264,273.200 358.000 C 273.970 357.736,274.960 357.366,275.400 357.180 C 275.840 356.993,277.010 356.570,278.000 356.240 C 279.837 355.626,286.170 353.376,294.400 350.413 C 296.930 349.502,299.810 348.487,300.800 348.158 C 301.790 347.829,302.960 347.407,303.400 347.220 C 303.840 347.034,304.830 346.664,305.600 346.400 C 306.370 346.136,307.360 345.776,307.800 345.600 C 308.240 345.424,309.230 345.064,310.000 344.800 C 310.770 344.536,311.760 344.169,312.200 343.986 C 312.640 343.803,314.170 343.269,315.600 342.800 C 317.030 342.331,318.560 341.797,319.000 341.614 C 319.440 341.431,320.430 341.064,321.200 340.800 C 321.970 340.536,322.960 340.166,323.400 339.980 C 323.840 339.793,325.010 339.371,326.000 339.042 C 335.555 335.866,339.794 333.219,343.043 328.400 C 348.504 320.297,344.917 309.208,335.800 306.014 C 333.589 305.240,326.860 305.343,323.800 306.199 C 322.480 306.567,320.815 307.034,320.100 307.235 C 319.385 307.436,318.215 307.764,317.500 307.965 C 316.785 308.166,315.165 308.616,313.900 308.965 C 312.635 309.314,310.565 309.886,309.300 310.235 C 306.028 311.138,304.890 311.451,302.400 312.135 C 301.190 312.468,297.230 313.564,293.600 314.571 C 289.970 315.578,285.560 316.780,283.800 317.241 C 282.040 317.703,280.150 318.222,279.600 318.394 C 279.050 318.566,277.790 318.929,276.800 319.200 C 275.810 319.471,274.550 319.831,274.000 320.000 C 272.292 320.525,268.893 321.457,265.400 322.359 C 264.520 322.586,263.417 322.873,262.949 322.997 C 262.341 323.158,261.848 323.931,261.218 325.711 C 254.975 343.346,238.491 351.495,220.600 345.789 C 218.840 345.227,215.060 344.036,212.200 343.142 C 209.340 342.248,206.640 341.376,206.200 341.206 C 205.760 341.035,204.050 340.492,202.400 340.000 C 200.750 339.508,199.040 338.968,198.600 338.800 C 198.160 338.633,195.910 337.908,193.600 337.189 C 191.290 336.470,187.870 335.388,186.000 334.783 C 184.130 334.179,179.900 332.845,176.600 331.818 C 170.015 329.769,159.166 326.343,155.400 325.123 C 147.601 322.597,144.924 317.535,148.564 312.200 C 151.156 308.401,154.005 307.809,160.200 309.783 C 161.740 310.273,164.890 311.270,167.200 311.998 C 169.510 312.726,173.470 313.990,176.000 314.806 C 182.578 316.929,192.439 320.052,199.400 322.218 C 202.700 323.245,206.930 324.579,208.800 325.183 C 210.670 325.788,214.090 326.875,216.400 327.600 C 218.710 328.325,222.220 329.469,224.200 330.143 C 246.547 337.750,255.901 309.468,233.984 300.562 C 231.654 299.615,216.772 294.536,200.000 288.964 C 195.050 287.319,190.640 285.809,190.200 285.607 C 189.760 285.406,185.096 283.793,179.835 282.024 C 169.378 278.507,168.971 278.314,167.334 276.108 C 157.590 262.973,137.856 255.255,122.589 258.610 M62.667 287.467 C 62.520 287.613,62.400 302.913,62.400 321.467 L 62.400 355.200 68.957 355.200 C 74.568 355.200,75.549 355.109,75.757 354.567 C 76.074 353.740,76.074 288.660,75.757 287.833 C 75.505 287.175,63.300 286.833,62.667 287.467 M130.720 300.620 C 138.084 304.294,135.428 315.600,127.200 315.600 C 118.960 315.600,116.290 305.164,123.400 300.748 C 124.917 299.806,128.947 299.736,130.720 300.620 " stroke="none" fill="#f1cf9f" fill-rule="evenodd"></path><path id="path1" d="M109.900 27.988 C 105.555 32.365,102.001 36.182,102.003 36.473 C 102.006 37.011,103.740 38.000,104.680 38.000 C 104.966 38.000,105.200 38.180,105.200 38.400 C 105.200 38.620,105.650 38.800,106.200 38.800 C 106.750 38.800,107.200 38.980,107.200 39.200 C 107.200 39.420,107.740 39.600,108.400 39.600 C 109.060 39.600,109.600 39.780,109.600 40.000 C 109.600 40.220,110.500 40.400,111.600 40.400 C 112.700 40.400,113.600 40.580,113.600 40.800 C 113.600 41.042,115.333 41.200,118.000 41.200 C 120.667 41.200,122.400 41.042,122.400 40.800 C 122.400 40.580,123.300 40.400,124.400 40.400 C 125.500 40.400,126.400 40.220,126.400 40.000 C 126.400 39.780,126.940 39.600,127.600 39.600 C 128.260 39.600,128.800 39.420,128.800 39.200 C 128.800 38.980,129.110 38.800,129.488 38.800 C 130.574 38.800,133.985 37.054,133.993 36.494 C 133.997 36.216,132.515 34.483,130.700 32.643 C 128.885 30.802,126.305 28.150,124.967 26.748 C 122.727 24.402,118.072 19.979,117.881 20.016 C 117.837 20.024,114.245 23.612,109.900 27.988 M354.000 83.600 L 354.000 124.800 369.000 124.800 L 384.000 124.800 384.000 83.600 L 384.000 42.400 369.000 42.400 L 354.000 42.400 354.000 83.600 M80.296 57.103 C 71.231 66.177,71.516 65.738,73.128 68.128 C 83.276 83.171,83.302 105.995,73.187 121.400 C 72.609 122.280,72.019 123.202,71.877 123.448 C 71.696 123.760,148.226 200.863,150.548 202.710 C 150.624 202.770,151.910 202.076,153.406 201.167 C 156.506 199.284,161.723 196.800,162.578 196.800 C 162.894 196.800,163.251 196.641,163.371 196.446 C 163.492 196.251,164.087 195.993,164.695 195.871 C 165.303 195.749,166.610 195.446,167.600 195.197 C 170.906 194.366,173.764 193.972,178.189 193.738 C 187.489 193.246,198.964 196.405,206.603 201.560 C 207.613 202.242,208.572 202.800,208.732 202.800 C 208.893 202.800,212.871 198.939,217.571 194.220 L 226.118 185.639 225.466 184.645 C 218.264 173.653,215.804 162.507,217.446 148.301 L 217.712 146.002 216.448 145.750 C 215.752 145.610,215.086 145.340,214.968 145.148 C 214.850 144.957,214.324 144.800,213.800 144.800 C 213.276 144.800,212.736 144.620,212.600 144.400 C 212.464 144.180,211.949 144.000,211.456 144.000 C 210.963 144.000,210.389 143.852,210.180 143.672 C 209.971 143.492,208.450 142.919,206.800 142.400 C 205.150 141.881,203.629 141.308,203.420 141.128 C 203.211 140.948,202.637 140.800,202.144 140.800 C 201.651 140.800,201.136 140.620,201.000 140.400 C 200.864 140.180,200.324 140.000,199.800 140.000 C 199.276 140.000,198.736 139.820,198.600 139.600 C 198.464 139.380,197.924 139.200,197.400 139.200 C 196.876 139.200,196.336 139.020,196.200 138.800 C 196.064 138.580,195.601 138.400,195.171 138.400 C 194.741 138.400,194.046 138.186,193.627 137.924 C 192.700 137.345,191.600 138.067,191.600 139.254 C 191.600 139.670,191.441 140.323,191.247 140.705 C 191.052 141.087,190.670 141.940,190.397 142.600 C 188.180 147.967,183.781 154.503,180.211 157.735 C 172.244 164.949,166.207 167.935,155.399 170.007 C 152.703 170.524,143.779 170.316,140.600 169.662 C 135.186 168.548,131.824 167.426,128.657 165.678 C 124.958 163.636,123.403 162.712,123.200 162.434 C 123.090 162.284,122.370 161.732,121.600 161.207 C 114.062 156.067,107.484 145.583,104.782 134.400 C 103.115 127.506,104.497 114.889,107.672 108.000 C 108.128 107.010,108.699 105.750,108.942 105.200 C 110.007 102.779,114.229 97.006,116.894 94.324 C 123.497 87.680,128.487 84.901,139.600 81.679 C 140.150 81.519,140.778 80.986,140.995 80.494 C 141.212 80.002,141.527 79.600,141.695 79.600 C 141.863 79.600,142.003 79.375,142.007 79.100 C 142.058 75.608,153.505 67.047,160.600 65.195 C 161.700 64.908,162.682 64.605,162.781 64.522 C 163.076 64.276,147.454 48.800,146.912 48.800 C 146.639 48.800,145.432 49.429,144.231 50.198 C 141.589 51.887,136.912 54.091,133.800 55.113 C 120.016 59.639,103.552 57.701,91.774 50.166 C 88.838 48.288,89.512 47.880,80.296 57.103 M51.306 86.561 L 43.212 94.663 51.452 102.961 L 59.693 111.259 60.446 110.020 C 60.861 109.338,61.200 108.603,61.200 108.385 C 61.200 108.167,61.359 107.677,61.553 107.295 C 62.235 105.955,62.742 104.589,63.000 103.400 C 64.904 94.620,64.327 88.431,60.884 80.700 C 59.603 77.823,60.719 77.140,51.306 86.561 M234.170 161.400 C 234.344 163.660,234.688 165.380,235.230 166.700 C 235.434 167.195,235.756 168.005,235.946 168.500 C 236.544 170.053,237.353 171.781,237.715 172.279 C 237.961 172.617,239.062 171.793,241.432 169.500 C 244.833 166.208,245.441 165.200,244.024 165.200 C 243.597 165.200,243.136 165.020,243.000 164.800 C 242.864 164.580,242.418 164.400,242.010 164.400 C 241.601 164.400,241.207 164.265,241.133 164.100 C 241.060 163.935,240.145 163.367,239.100 162.837 C 238.055 162.308,237.200 161.723,237.200 161.537 C 237.200 161.352,236.840 161.200,236.400 161.200 C 235.960 161.200,235.600 161.020,235.600 160.800 C 235.600 160.580,235.345 160.400,235.033 160.400 C 234.722 160.400,234.365 160.175,234.241 159.900 C 234.117 159.625,234.085 160.300,234.170 161.400 M173.600 210.800 C 173.600 211.020,172.981 211.200,172.224 211.200 C 171.467 211.200,170.736 211.380,170.600 211.600 C 170.464 211.820,170.001 212.000,169.571 212.000 C 169.141 212.000,168.477 212.160,168.095 212.356 C 167.713 212.552,166.545 213.120,165.500 213.619 C 164.455 214.118,163.600 214.632,163.601 214.763 C 163.602 215.250,179.211 230.800,179.699 230.800 C 180.227 230.800,196.000 215.219,196.000 214.696 C 196.000 214.533,195.730 214.400,195.400 214.400 C 195.070 214.400,194.799 214.265,194.797 214.100 C 194.793 213.694,192.814 212.800,191.920 212.800 C 191.524 212.800,191.200 212.620,191.200 212.400 C 191.200 212.180,190.660 212.000,190.000 212.000 C 189.340 212.000,188.800 211.820,188.800 211.600 C 188.800 211.380,188.080 211.200,187.200 211.200 C 186.320 211.200,185.600 211.020,185.600 210.800 C 185.600 210.551,183.333 210.400,179.600 210.400 C 175.867 210.400,173.600 210.551,173.600 210.800 M16.000 328.400 L 16.000 369.200 31.000 369.200 L 46.000 369.200 46.000 328.400 L 46.000 287.600 31.000 287.600 L 16.000 287.600 16.000 328.400 " stroke="none" fill="#27b2b4" fill-rule="evenodd"></path><path id="path2" d="M113.616 0.293 C 113.295 0.419,112.035 1.579,110.816 2.870 C 109.597 4.161,107.833 5.978,106.895 6.908 C 105.957 7.839,102.244 11.547,98.643 15.148 C 95.042 18.749,91.376 22.416,90.496 23.296 C 88.419 25.372,75.372 38.419,73.296 40.496 C 72.416 41.376,68.726 45.066,65.096 48.696 C 61.466 52.326,57.776 56.016,56.896 56.896 C 56.016 57.776,52.326 61.466,48.696 65.096 C 45.066 68.726,41.376 72.416,40.496 73.296 C 39.616 74.176,35.769 78.019,31.948 81.836 C 23.356 90.418,23.200 90.591,23.200 91.562 C 23.200 91.997,23.020 92.464,22.800 92.600 C 22.278 92.923,22.278 97.200,22.800 97.200 C 23.020 97.200,23.200 97.609,23.200 98.108 C 23.200 99.137,25.409 101.846,29.135 105.389 C 30.530 106.715,34.261 110.410,37.426 113.600 C 44.452 120.681,45.400 121.631,53.200 129.413 C 60.928 137.125,62.875 139.072,70.587 146.800 C 73.989 150.210,77.678 153.900,78.783 155.000 C 81.385 157.588,92.523 168.726,95.048 171.265 C 96.122 172.344,99.790 176.011,103.200 179.413 C 110.928 187.125,112.875 189.072,120.587 196.800 C 123.989 200.210,127.656 203.878,128.735 204.952 C 131.275 207.478,142.633 218.836,145.097 221.314 C 146.144 222.366,149.790 226.011,153.200 229.413 C 156.610 232.816,160.480 236.685,161.800 238.011 C 170.244 246.493,175.306 251.200,175.984 251.200 C 176.407 251.200,176.864 251.380,177.000 251.600 C 177.136 251.820,178.407 252.000,179.824 252.000 C 181.275 252.000,182.400 251.825,182.400 251.600 C 182.400 251.380,182.857 251.200,183.415 251.200 C 184.171 251.200,185.348 250.254,188.015 247.500 C 189.987 245.465,192.119 243.284,192.753 242.653 C 194.142 241.272,207.411 228.004,209.104 226.304 C 210.661 224.740,224.740 210.661,226.304 209.104 C 226.965 208.445,230.656 204.756,234.506 200.906 C 238.356 197.056,242.070 193.342,242.759 192.653 C 243.449 191.964,247.115 188.298,250.906 184.507 C 254.698 180.717,258.371 177.027,259.069 176.307 C 259.767 175.588,261.349 174.055,262.584 172.900 L 264.830 170.800 270.591 170.800 C 274.001 170.800,276.454 170.637,276.600 170.400 C 276.736 170.180,277.816 170.000,279.000 170.000 C 280.184 170.000,281.264 169.820,281.400 169.600 C 281.536 169.380,282.256 169.200,283.000 169.200 C 283.744 169.200,284.464 169.020,284.600 168.800 C 284.736 168.580,285.377 168.400,286.024 168.400 C 286.671 168.400,287.200 168.220,287.200 168.000 C 287.200 167.780,287.650 167.600,288.200 167.600 C 288.750 167.600,289.200 167.420,289.200 167.200 C 289.200 166.980,289.434 166.800,289.720 166.800 C 290.456 166.800,292.393 165.859,292.397 165.500 C 292.399 165.335,292.634 165.200,292.920 165.200 C 293.656 165.200,295.593 164.259,295.597 163.900 C 295.599 163.735,295.960 163.600,296.400 163.600 C 296.840 163.600,297.200 163.420,297.200 163.200 C 297.200 162.980,297.520 162.800,297.912 162.800 C 298.303 162.800,298.883 162.440,299.200 162.000 C 299.517 161.560,300.057 161.200,300.400 161.200 C 300.743 161.200,301.283 160.840,301.600 160.400 C 301.917 159.960,302.431 159.600,302.741 159.600 C 303.052 159.600,303.597 159.283,303.953 158.896 C 304.309 158.508,305.320 157.658,306.200 157.005 C 308.247 155.489,316.800 146.877,316.800 146.333 C 316.800 146.106,317.340 145.417,318.000 144.800 C 318.660 144.183,319.200 143.457,319.200 143.186 C 319.200 141.133,317.896 141.200,358.088 141.200 C 398.600 141.200,395.936 141.365,398.492 138.704 L 400.000 137.135 400.000 83.596 C 400.000 36.539,399.927 29.984,399.400 29.457 C 399.070 29.127,398.800 28.664,398.800 28.429 C 398.800 28.193,398.648 28.000,398.462 28.000 C 398.276 28.000,397.615 27.562,396.993 27.028 C 395.347 25.614,393.394 25.527,366.233 25.672 C 347.507 25.772,342.230 25.909,342.100 26.300 C 342.008 26.575,341.670 26.800,341.348 26.800 C 340.678 26.800,338.800 28.555,338.800 29.182 C 338.800 29.412,338.620 29.600,338.400 29.600 C 338.180 29.600,338.000 30.050,338.000 30.600 C 338.000 31.150,337.820 31.600,337.600 31.600 C 337.358 31.600,337.200 33.333,337.200 36.000 L 337.200 40.400 325.200 40.400 C 317.467 40.400,313.200 40.542,313.200 40.800 C 313.200 41.020,312.812 41.200,312.338 41.200 C 311.120 41.200,308.400 44.080,308.400 45.369 C 308.400 45.936,308.220 46.400,308.000 46.400 C 307.780 46.400,307.600 47.300,307.600 48.400 C 307.600 50.369,306.585 51.271,305.800 50.000 C 305.664 49.780,304.584 49.600,303.400 49.600 C 302.216 49.600,301.136 49.420,301.000 49.200 C 300.864 48.980,300.292 48.800,299.729 48.800 C 298.548 48.800,293.465 47.149,293.267 46.701 C 293.193 46.535,292.897 46.400,292.607 46.400 C 292.318 46.400,291.028 45.834,289.741 45.143 C 288.453 44.451,286.140 43.241,284.600 42.453 C 283.060 41.665,281.740 40.881,281.667 40.710 C 281.593 40.540,281.188 40.400,280.767 40.400 C 280.345 40.400,280.000 40.220,280.000 40.000 C 280.000 39.780,279.640 39.600,279.200 39.600 C 278.760 39.600,278.400 39.420,278.400 39.200 C 278.400 38.980,278.164 38.800,277.875 38.800 C 277.587 38.800,276.964 38.440,276.492 38.000 C 276.020 37.560,275.356 37.200,275.017 37.200 C 274.678 37.200,274.400 37.020,274.400 36.800 C 274.400 36.580,274.130 36.400,273.800 36.400 C 273.470 36.400,273.200 36.220,273.200 36.000 C 273.200 35.780,272.840 35.600,272.400 35.600 C 271.960 35.600,271.600 35.420,271.600 35.200 C 271.600 34.980,271.330 34.800,271.000 34.800 C 270.670 34.800,270.400 34.654,270.400 34.475 C 270.400 34.296,269.770 33.902,269.000 33.600 C 268.230 33.298,267.600 32.904,267.600 32.725 C 267.600 32.546,267.240 32.400,266.800 32.400 C 266.360 32.400,266.000 32.220,266.000 32.000 C 266.000 31.780,265.640 31.600,265.200 31.600 C 264.760 31.600,264.400 31.420,264.400 31.200 C 264.400 30.980,264.040 30.800,263.600 30.800 C 263.160 30.800,262.800 30.620,262.800 30.400 C 262.800 30.180,262.440 30.000,262.000 30.000 C 261.560 30.000,261.199 29.865,261.197 29.700 C 261.195 29.535,260.790 29.202,260.297 28.960 C 259.804 28.718,257.741 27.683,255.713 26.660 C 253.685 25.637,251.750 24.800,251.413 24.800 C 251.076 24.800,250.799 24.665,250.797 24.500 C 250.793 24.094,248.814 23.200,247.920 23.200 C 247.524 23.200,247.200 23.020,247.200 22.800 C 247.200 22.580,246.840 22.400,246.400 22.400 C 245.960 22.400,245.600 22.220,245.600 22.000 C 245.600 21.780,245.240 21.600,244.800 21.600 C 244.360 21.600,244.000 21.420,244.000 21.200 C 244.000 20.980,243.640 20.800,243.200 20.800 C 242.760 20.800,242.400 20.620,242.400 20.400 C 242.400 20.180,242.040 20.000,241.600 20.000 C 241.160 20.000,240.799 19.865,240.797 19.700 C 240.793 19.341,238.856 18.400,238.120 18.400 C 237.834 18.400,237.600 18.220,237.600 18.000 C 237.600 17.780,237.150 17.600,236.600 17.600 C 236.050 17.600,235.600 17.420,235.600 17.200 C 235.600 16.980,235.240 16.800,234.800 16.800 C 234.360 16.800,234.000 16.620,234.000 16.400 C 234.000 16.180,233.651 16.000,233.224 16.000 C 232.797 16.000,232.336 15.820,232.200 15.600 C 232.064 15.380,231.513 15.200,230.976 15.200 C 230.439 15.200,230.000 15.040,230.000 14.844 C 230.000 14.648,229.370 14.378,228.600 14.244 C 227.830 14.110,226.570 13.890,225.800 13.756 C 225.030 13.622,224.400 13.352,224.400 13.156 C 224.400 12.960,223.601 12.800,222.624 12.800 C 221.647 12.800,220.736 12.620,220.600 12.400 C 220.464 12.180,219.409 12.000,218.256 12.000 C 217.103 12.000,215.973 11.813,215.744 11.584 C 214.944 10.784,195.123 11.568,194.220 12.435 C 194.011 12.636,193.246 12.800,192.520 12.800 C 191.794 12.800,191.200 12.980,191.200 13.200 C 191.200 13.420,190.480 13.600,189.600 13.600 C 188.720 13.600,188.000 13.780,188.000 14.000 C 188.000 14.220,187.460 14.400,186.800 14.400 C 186.140 14.400,185.600 14.580,185.600 14.800 C 185.600 15.020,185.251 15.200,184.824 15.200 C 184.397 15.200,183.936 15.380,183.800 15.600 C 183.664 15.820,183.113 16.000,182.576 16.000 C 182.039 16.000,181.600 16.180,181.600 16.400 C 181.600 16.620,181.251 16.800,180.824 16.800 C 180.397 16.800,179.936 16.980,179.800 17.200 C 179.664 17.420,179.113 17.600,178.576 17.600 C 178.039 17.600,177.600 17.780,177.600 18.000 C 177.600 18.220,177.150 18.400,176.600 18.400 C 176.050 18.400,175.600 18.580,175.600 18.800 C 175.600 19.020,175.060 19.200,174.400 19.200 C 173.740 19.200,173.200 19.380,173.200 19.600 C 173.200 19.820,172.660 20.000,172.000 20.000 C 171.340 20.000,170.800 20.180,170.800 20.400 C 170.800 20.620,170.440 20.800,170.000 20.800 C 169.560 20.800,169.200 20.980,169.200 21.200 C 169.200 21.420,168.660 21.600,168.000 21.600 C 167.340 21.600,166.800 21.780,166.800 22.000 C 166.800 22.220,166.260 22.400,165.600 22.400 C 164.940 22.400,164.400 22.580,164.400 22.800 C 164.400 23.020,163.961 23.200,163.424 23.200 C 162.887 23.200,162.336 23.380,162.200 23.600 C 162.064 23.820,161.513 24.000,160.976 24.000 C 160.439 24.000,160.000 24.180,160.000 24.400 C 160.000 24.620,159.751 24.800,159.446 24.800 C 158.741 24.800,154.822 25.958,153.905 26.437 C 153.523 26.637,152.859 26.800,152.429 26.800 C 151.999 26.800,151.536 26.980,151.400 27.200 C 150.896 28.016,150.135 27.330,137.206 14.400 C 129.946 7.140,123.902 1.200,123.775 1.200 C 123.647 1.200,123.273 0.930,122.943 0.600 C 122.336 -0.007,114.992 -0.249,113.616 0.293 M127.203 27.822 L 135.800 36.445 134.718 37.323 C 130.516 40.733,117.682 42.723,110.800 41.030 C 105.653 39.765,100.800 37.590,100.800 36.549 C 100.800 35.762,117.168 19.292,118.003 19.239 C 118.335 19.217,122.475 23.080,127.203 27.822 M213.693 27.636 C 219.093 28.446,224.693 30.009,228.759 31.840 C 235.802 35.011,238.345 36.237,247.800 41.015 C 258.450 46.398,260.983 47.742,267.600 51.524 C 269.690 52.719,272.390 54.242,273.600 54.909 C 274.810 55.576,276.250 56.419,276.800 56.783 C 277.711 57.384,285.487 61.232,287.400 62.027 C 291.558 63.756,297.352 65.104,305.000 66.121 L 308.600 66.600 308.702 98.114 L 308.805 129.629 306.727 132.714 C 297.048 147.084,280.608 156.003,266.709 154.426 C 255.690 153.176,247.696 150.233,240.609 144.818 C 239.188 143.732,233.441 137.850,232.280 136.294 C 230.664 134.128,230.150 133.873,221.571 130.987 C 217.297 129.549,213.487 128.199,213.105 127.986 C 212.723 127.774,212.059 127.600,211.629 127.600 C 211.199 127.600,210.736 127.420,210.600 127.200 C 210.464 126.980,209.924 126.800,209.400 126.800 C 208.876 126.800,208.336 126.620,208.200 126.400 C 208.064 126.180,207.524 126.000,207.000 126.000 C 206.476 126.000,205.936 125.820,205.800 125.600 C 205.664 125.380,205.201 125.200,204.771 125.200 C 204.341 125.200,203.677 125.029,203.295 124.819 C 202.913 124.609,201.430 124.057,200.000 123.593 C 198.570 123.128,197.040 122.600,196.600 122.419 C 196.160 122.238,194.360 121.628,192.600 121.064 C 175.027 115.426,162.543 110.835,161.116 109.487 C 160.832 109.219,159.926 108.497,159.102 107.881 C 150.001 101.084,151.455 86.069,161.661 81.461 C 166.775 79.152,168.830 79.173,176.600 81.616 C 178.580 82.238,182.810 83.569,186.000 84.573 C 189.190 85.577,193.600 86.958,195.800 87.641 C 198.000 88.324,200.113 89.044,200.495 89.241 C 200.877 89.439,201.464 89.600,201.800 89.600 C 202.136 89.600,202.723 89.762,203.105 89.961 C 203.487 90.160,204.610 90.537,205.600 90.800 C 206.590 91.063,207.713 91.440,208.095 91.639 C 208.477 91.838,209.064 92.000,209.400 92.000 C 209.736 92.000,210.323 92.162,210.705 92.359 C 211.087 92.556,212.750 93.118,214.400 93.607 C 216.050 94.095,217.760 94.632,218.200 94.800 C 218.640 94.967,220.800 95.664,223.000 96.348 C 225.200 97.033,228.980 98.214,231.400 98.975 C 233.820 99.735,237.060 100.738,238.600 101.204 C 240.140 101.671,241.813 102.220,242.319 102.426 C 248.457 104.924,254.954 96.960,251.221 91.513 C 250.229 90.065,247.987 88.400,247.029 88.400 C 246.709 88.400,246.336 88.220,246.200 88.000 C 246.064 87.780,245.601 87.600,245.171 87.600 C 244.741 87.600,244.077 87.435,243.695 87.234 C 243.313 87.033,241.110 86.293,238.800 85.588 C 236.490 84.884,232.710 83.713,230.400 82.986 C 228.090 82.260,223.770 80.912,220.800 79.991 C 217.830 79.070,215.040 78.177,214.600 78.006 C 214.160 77.835,211.910 77.116,209.600 76.407 C 207.290 75.697,205.087 74.956,204.705 74.759 C 204.323 74.561,203.736 74.400,203.400 74.400 C 203.064 74.400,202.477 74.238,202.095 74.039 C 201.713 73.840,200.590 73.463,199.600 73.200 C 198.610 72.937,197.487 72.560,197.105 72.361 C 196.723 72.162,196.136 72.000,195.800 72.000 C 195.464 72.000,194.877 71.831,194.495 71.624 C 194.113 71.417,193.309 71.145,192.709 71.019 C 191.447 70.753,162.400 41.980,162.400 40.996 C 162.400 40.668,162.724 40.400,163.120 40.400 C 163.516 40.400,164.011 40.251,164.220 40.070 C 164.429 39.888,165.410 39.495,166.400 39.198 C 167.390 38.900,168.380 38.546,168.600 38.411 C 168.820 38.277,169.720 37.936,170.600 37.655 C 171.480 37.373,173.100 36.806,174.200 36.395 C 175.300 35.983,179.080 34.625,182.600 33.375 C 186.120 32.125,189.180 30.978,189.400 30.826 C 189.620 30.673,191.150 30.142,192.800 29.645 C 194.450 29.149,196.353 28.575,197.028 28.371 C 197.704 28.167,198.874 27.982,199.628 27.960 C 200.383 27.938,201.450 27.776,202.000 27.600 C 203.500 27.120,210.391 27.141,213.693 27.636 M384.302 83.500 L 384.200 125.000 369.600 125.111 C 361.570 125.173,354.595 125.124,354.100 125.004 L 353.200 124.785 353.200 83.626 C 353.200 51.073,353.305 42.424,353.700 42.265 C 353.975 42.154,360.996 42.049,369.302 42.032 L 384.404 42.000 384.302 83.500 M91.200 49.222 C 106.171 59.357,129.660 59.525,144.200 49.602 C 147.203 47.552,146.625 47.217,155.595 56.195 C 164.536 65.144,164.379 64.842,160.579 65.806 C 159.270 66.139,157.750 66.612,157.200 66.859 C 156.650 67.105,155.750 67.504,155.200 67.744 C 150.351 69.861,144.312 75.650,141.363 81.007 C 141.123 81.443,140.133 82.031,139.163 82.314 C 127.960 85.582,121.599 89.442,115.293 96.800 C 103.704 110.322,101.307 130.497,109.460 145.891 C 124.866 174.978,164.557 178.334,184.326 152.221 C 186.679 149.112,189.964 142.829,190.975 139.500 C 191.467 137.883,191.875 137.200,192.351 137.200 C 193.239 137.200,217.562 145.402,218.014 145.854 C 218.212 146.052,218.089 148.275,217.728 151.001 C 217.076 155.929,217.375 162.328,218.458 166.600 C 219.507 170.739,219.775 171.607,220.925 174.600 C 222.264 178.085,223.885 181.256,225.670 183.881 L 226.813 185.562 217.974 194.381 C 213.113 199.232,208.967 203.200,208.760 203.200 C 208.554 203.200,207.264 202.520,205.893 201.688 C 189.375 191.669,168.326 191.827,152.928 202.086 C 152.008 202.699,151.018 203.200,150.727 203.200 C 150.436 203.200,132.379 185.378,110.599 163.595 L 71.000 123.991 71.646 122.895 C 72.002 122.293,72.939 120.744,73.728 119.453 C 75.202 117.044,77.478 111.934,78.027 109.800 C 80.920 98.563,81.134 93.706,79.157 84.200 C 78.928 83.100,78.600 81.750,78.426 81.200 C 78.253 80.650,77.885 79.480,77.609 78.600 C 76.893 76.322,73.860 70.124,72.422 68.000 C 71.752 67.010,71.203 66.029,71.202 65.821 C 71.199 65.303,88.471 48.000,88.988 48.002 C 89.215 48.003,90.210 48.552,91.200 49.222 M337.727 56.500 C 338.359 56.965,338.400 59.391,338.304 91.000 L 338.200 125.000 331.000 125.000 L 323.800 125.000 323.698 91.044 C 323.623 66.288,323.718 56.940,324.047 56.544 C 324.666 55.798,336.720 55.759,337.727 56.500 M61.361 79.528 C 65.924 88.564,66.058 100.347,61.696 109.157 C 60.873 110.818,60.019 112.228,59.797 112.290 C 59.576 112.351,55.460 108.463,50.650 103.650 L 41.905 94.898 50.766 86.034 C 55.640 81.158,59.804 77.279,60.021 77.413 C 60.238 77.547,60.841 78.499,61.361 79.528 M270.905 97.181 C 267.493 98.014,265.407 101.061,265.679 104.816 C 266.251 112.728,276.740 114.263,279.822 106.885 C 282.060 101.528,276.754 95.753,270.905 97.181 M138.307 100.031 C 138.436 101.211,139.145 103.841,139.699 105.200 C 139.923 105.750,140.284 106.650,140.500 107.200 C 140.716 107.750,141.084 108.560,141.317 109.000 C 141.549 109.440,142.113 110.518,142.570 111.395 C 144.129 114.391,153.508 123.200,155.139 123.200 C 155.356 123.200,155.593 123.335,155.667 123.500 C 155.846 123.904,159.021 125.425,161.000 126.054 C 161.880 126.334,162.771 126.707,162.980 126.882 C 163.189 127.057,163.744 127.200,164.213 127.200 C 164.683 127.200,165.192 127.325,165.345 127.479 C 165.499 127.632,168.184 128.607,171.312 129.646 L 177.000 131.535 176.887 133.220 C 176.056 145.593,156.689 157.840,143.446 154.368 C 137.750 152.875,136.086 152.181,132.601 149.844 C 129.886 148.024,126.475 144.728,125.370 142.856 C 124.961 142.165,124.486 141.600,124.314 141.600 C 124.141 141.600,124.000 141.403,124.000 141.162 C 124.000 140.921,123.671 140.246,123.268 139.662 C 122.514 138.567,121.302 135.553,120.350 132.402 C 119.638 130.042,119.629 121.638,120.337 119.000 C 122.552 110.748,127.997 103.684,134.971 100.015 C 137.610 98.627,138.152 98.630,138.307 100.031 M235.423 159.615 C 237.449 161.010,244.773 164.791,245.457 164.797 C 245.709 164.798,246.008 165.044,246.122 165.342 C 246.392 166.045,238.246 174.199,237.644 173.827 C 236.249 172.965,232.800 162.623,232.800 159.300 C 232.800 158.103,233.313 158.164,235.423 159.615 M188.200 210.553 C 191.116 211.369,195.248 213.105,196.400 213.997 L 197.400 214.771 188.803 223.386 C 184.075 228.124,179.928 232.000,179.587 232.000 C 178.787 232.000,162.400 215.507,162.400 214.702 C 162.400 213.633,169.396 210.738,173.800 209.985 C 176.572 209.512,185.778 209.875,188.200 210.553 M126.600 241.447 C 125.940 241.523,123.600 241.784,121.400 242.028 C 117.510 242.458,115.328 242.931,113.905 243.649 C 113.523 243.842,112.955 244.000,112.643 244.000 C 112.154 244.000,110.884 244.549,107.905 246.050 C 107.523 246.243,106.953 246.400,106.639 246.400 C 106.324 246.400,106.007 246.535,105.933 246.700 C 105.860 246.865,104.945 247.433,103.900 247.963 C 102.855 248.492,102.000 249.077,102.000 249.263 C 102.000 249.448,101.680 249.600,101.288 249.600 C 100.897 249.600,100.317 249.960,100.000 250.400 C 99.683 250.840,99.143 251.200,98.800 251.200 C 98.457 251.200,97.917 251.560,97.600 252.000 C 97.283 252.440,96.793 252.800,96.512 252.800 C 96.230 252.800,96.000 252.980,96.000 253.200 C 96.000 253.420,95.802 253.600,95.560 253.600 C 95.319 253.600,94.617 254.140,94.000 254.800 C 93.383 255.460,92.780 256.000,92.658 256.000 C 92.086 256.000,84.800 263.121,84.800 263.680 C 84.800 263.890,84.080 264.754,83.200 265.600 C 82.320 266.446,81.600 267.340,81.600 267.587 C 81.600 267.834,81.150 268.486,80.600 269.036 C 80.050 269.586,79.600 270.208,79.600 270.418 C 79.600 270.658,65.606 270.800,42.000 270.800 C 17.200 270.800,4.400 270.936,4.400 271.200 C 4.400 271.420,4.124 271.600,3.787 271.600 C 3.449 271.600,2.504 272.269,1.687 273.087 L 0.200 274.573 0.200 328.605 L 0.200 382.636 1.222 383.618 C 2.483 384.829,3.795 385.600,4.595 385.600 C 4.928 385.600,5.200 385.780,5.200 386.000 C 5.200 386.552,56.659 386.552,57.000 386.000 C 57.136 385.780,57.511 385.600,57.834 385.600 C 58.597 385.600,62.000 382.197,62.000 381.434 C 62.000 381.111,62.180 380.736,62.400 380.600 C 62.627 380.460,62.800 378.463,62.800 375.976 L 62.800 371.600 74.720 371.600 C 86.257 371.600,88.786 371.366,88.797 370.300 C 88.799 370.135,89.025 369.999,89.300 369.997 C 89.920 369.994,91.600 367.584,91.600 366.699 C 91.600 366.340,91.780 365.936,92.000 365.800 C 92.220 365.664,92.400 364.753,92.400 363.776 L 92.400 362.000 94.776 362.000 C 96.083 362.000,97.264 362.180,97.400 362.400 C 97.536 362.620,98.447 362.800,99.424 362.800 C 100.401 362.800,101.200 362.980,101.200 363.200 C 101.200 363.420,101.729 363.600,102.376 363.600 C 103.023 363.600,103.664 363.780,103.800 364.000 C 103.936 364.220,104.487 364.400,105.024 364.400 C 105.561 364.400,106.000 364.580,106.000 364.800 C 106.000 365.020,106.324 365.200,106.720 365.200 C 107.614 365.200,109.593 366.094,109.597 366.500 C 109.599 366.665,109.960 366.800,110.400 366.800 C 110.840 366.800,111.200 366.980,111.200 367.200 C 111.200 367.420,111.478 367.600,111.817 367.600 C 112.156 367.600,112.820 367.960,113.292 368.400 C 113.764 368.840,114.387 369.200,114.675 369.200 C 114.964 369.200,115.200 369.380,115.200 369.600 C 115.200 369.820,115.560 370.000,116.000 370.000 C 116.440 370.000,116.800 370.180,116.800 370.400 C 116.800 370.620,117.160 370.800,117.600 370.800 C 118.040 370.800,118.400 370.945,118.400 371.121 C 118.400 371.298,119.297 371.883,120.394 372.421 C 121.490 372.960,122.390 373.535,122.394 373.700 C 122.397 373.865,122.674 374.000,123.008 374.000 C 123.342 374.000,124.329 374.450,125.200 375.000 C 126.071 375.550,126.968 376.000,127.192 376.000 C 127.416 376.000,127.600 376.180,127.600 376.400 C 127.600 376.620,127.960 376.800,128.400 376.800 C 128.840 376.800,129.200 376.980,129.200 377.200 C 129.200 377.420,129.560 377.600,130.000 377.600 C 130.440 377.600,130.800 377.780,130.800 378.000 C 130.800 378.220,131.036 378.400,131.325 378.400 C 131.613 378.400,132.236 378.760,132.708 379.200 C 133.180 379.640,133.844 380.000,134.183 380.000 C 134.522 380.000,134.800 380.180,134.800 380.400 C 134.800 380.620,135.160 380.800,135.600 380.800 C 136.040 380.800,136.400 380.980,136.400 381.200 C 136.400 381.420,136.760 381.600,137.200 381.600 C 137.640 381.600,138.000 381.780,138.000 382.000 C 138.000 382.220,138.360 382.400,138.800 382.400 C 139.240 382.400,139.600 382.580,139.600 382.800 C 139.600 383.020,139.960 383.200,140.400 383.200 C 140.840 383.200,141.200 383.346,141.200 383.525 C 141.200 383.704,141.830 384.098,142.600 384.400 C 143.370 384.702,144.000 385.096,144.000 385.275 C 144.000 385.454,144.360 385.600,144.800 385.600 C 145.240 385.600,145.600 385.780,145.600 386.000 C 145.600 386.220,145.960 386.400,146.400 386.400 C 146.840 386.400,147.200 386.580,147.200 386.800 C 147.200 387.020,147.560 387.200,148.000 387.200 C 148.440 387.200,148.800 387.380,148.800 387.600 C 148.800 387.820,149.160 388.000,149.600 388.000 C 150.040 388.000,150.400 388.180,150.400 388.400 C 150.400 388.620,150.760 388.800,151.200 388.800 C 151.640 388.800,152.000 388.980,152.000 389.200 C 152.000 389.420,152.236 389.600,152.525 389.600 C 152.814 389.600,153.983 390.050,155.123 390.600 C 156.263 391.150,157.467 391.600,157.798 391.600 C 158.129 391.600,158.400 391.780,158.400 392.000 C 158.400 392.220,158.749 392.400,159.176 392.400 C 159.603 392.400,160.064 392.580,160.200 392.800 C 160.336 393.020,160.797 393.200,161.224 393.200 C 161.651 393.200,162.000 393.380,162.000 393.600 C 162.000 393.820,162.360 394.000,162.800 394.000 C 163.240 394.000,163.600 394.180,163.600 394.400 C 163.600 394.620,163.960 394.800,164.400 394.800 C 164.840 394.800,165.200 394.980,165.200 395.200 C 165.200 395.420,165.560 395.600,166.000 395.600 C 166.440 395.600,166.800 395.780,166.800 396.000 C 166.800 396.220,167.340 396.400,168.000 396.400 C 168.660 396.400,169.200 396.580,169.200 396.800 C 169.200 397.020,169.740 397.200,170.400 397.200 C 171.060 397.200,171.600 397.380,171.600 397.600 C 171.600 397.820,172.320 398.000,173.200 398.000 C 174.080 398.000,174.800 398.180,174.800 398.400 C 174.800 398.620,175.394 398.800,176.120 398.800 C 176.846 398.800,177.665 399.025,177.940 399.300 C 178.321 399.681,181.765 399.800,192.400 399.800 C 203.034 399.800,206.479 399.681,206.860 399.300 C 207.135 399.025,207.943 398.800,208.656 398.800 C 209.369 398.800,210.064 398.620,210.200 398.400 C 210.336 398.180,210.977 398.000,211.624 398.000 C 212.271 398.000,212.800 397.820,212.800 397.600 C 212.800 397.380,213.340 397.200,214.000 397.200 C 214.660 397.200,215.200 397.020,215.200 396.800 C 215.200 396.580,215.560 396.400,216.000 396.400 C 216.440 396.400,216.800 396.220,216.800 396.000 C 216.800 395.780,217.340 395.600,218.000 395.600 C 218.660 395.600,219.200 395.420,219.200 395.200 C 219.200 394.980,219.549 394.800,219.976 394.800 C 220.403 394.800,220.864 394.620,221.000 394.400 C 221.136 394.180,221.687 394.000,222.224 394.000 C 222.761 394.000,223.200 393.820,223.200 393.600 C 223.200 393.380,223.650 393.200,224.200 393.200 C 224.750 393.200,225.200 393.020,225.200 392.800 C 225.200 392.580,225.740 392.400,226.400 392.400 C 227.060 392.400,227.600 392.220,227.600 392.000 C 227.600 391.780,228.095 391.599,228.700 391.598 C 229.305 391.596,230.316 391.326,230.946 390.998 C 231.576 390.669,232.420 390.400,232.822 390.400 C 233.224 390.400,233.664 390.220,233.800 390.000 C 233.936 389.780,234.476 389.600,235.000 389.600 C 235.524 389.600,236.064 389.420,236.200 389.200 C 236.336 388.980,236.799 388.800,237.229 388.800 C 237.659 388.800,238.323 388.641,238.705 388.447 C 239.087 388.252,239.940 387.871,240.600 387.600 C 241.260 387.329,242.113 386.948,242.495 386.753 C 242.877 386.559,243.552 386.400,243.995 386.400 C 244.438 386.400,244.800 386.220,244.800 386.000 C 244.800 385.780,245.340 385.600,246.000 385.600 C 246.660 385.600,247.200 385.420,247.200 385.200 C 247.200 384.980,247.740 384.800,248.400 384.800 C 249.060 384.800,249.600 384.620,249.600 384.400 C 249.600 384.180,249.949 384.000,250.376 384.000 C 250.803 384.000,251.264 383.820,251.400 383.600 C 251.536 383.380,252.087 383.200,252.624 383.200 C 253.161 383.200,253.600 383.020,253.600 382.800 C 253.600 382.580,254.140 382.400,254.800 382.400 C 255.460 382.400,256.000 382.220,256.000 382.000 C 256.000 381.780,256.450 381.600,257.000 381.600 C 257.550 381.600,258.000 381.420,258.000 381.200 C 258.000 380.980,258.540 380.800,259.200 380.800 C 259.860 380.800,260.400 380.620,260.400 380.400 C 260.400 380.180,260.839 380.000,261.376 380.000 C 261.913 380.000,262.464 379.820,262.600 379.600 C 262.736 379.380,263.197 379.200,263.624 379.200 C 264.051 379.200,264.400 379.020,264.400 378.800 C 264.400 378.580,264.940 378.400,265.600 378.400 C 266.260 378.400,266.800 378.220,266.800 378.000 C 266.800 377.780,267.340 377.600,268.000 377.600 C 268.660 377.600,269.200 377.420,269.200 377.200 C 269.200 376.980,269.639 376.800,270.176 376.800 C 270.713 376.800,271.264 376.620,271.400 376.400 C 271.536 376.180,272.087 376.000,272.624 376.000 C 273.161 376.000,273.600 375.820,273.600 375.600 C 273.600 375.380,273.849 375.200,274.154 375.200 C 274.790 375.200,278.705 374.072,279.600 373.630 C 279.930 373.468,281.055 373.085,282.100 372.780 C 283.145 372.475,284.000 372.085,284.000 371.913 C 284.000 371.741,284.540 371.600,285.200 371.600 C 285.860 371.600,286.400 371.420,286.400 371.200 C 286.400 370.980,286.839 370.800,287.376 370.800 C 287.913 370.800,288.464 370.620,288.600 370.400 C 288.736 370.180,289.287 370.000,289.824 370.000 C 290.361 370.000,290.800 369.820,290.800 369.600 C 290.800 369.380,291.239 369.200,291.776 369.200 C 292.313 369.200,292.864 369.020,293.000 368.800 C 293.136 368.580,293.597 368.400,294.024 368.400 C 294.451 368.400,294.800 368.220,294.800 368.000 C 294.800 367.780,295.340 367.600,296.000 367.600 C 296.660 367.600,297.200 367.420,297.200 367.200 C 297.200 366.980,297.740 366.800,298.400 366.800 C 299.060 366.800,299.600 366.620,299.600 366.400 C 299.600 366.180,300.140 366.000,300.800 366.000 C 301.460 366.000,302.000 365.820,302.000 365.600 C 302.000 365.380,302.450 365.200,303.000 365.200 C 303.550 365.200,304.000 365.020,304.000 364.800 C 304.000 364.580,304.450 364.400,305.000 364.400 C 305.550 364.400,306.000 364.220,306.000 364.000 C 306.000 363.780,306.450 363.600,307.000 363.600 C 307.550 363.600,308.000 363.420,308.000 363.200 C 308.000 362.980,308.540 362.800,309.200 362.800 C 309.860 362.800,310.400 362.620,310.400 362.400 C 310.400 362.180,310.940 362.000,311.600 362.000 C 312.260 362.000,312.800 361.820,312.800 361.600 C 312.800 361.380,313.239 361.200,313.776 361.200 C 314.313 361.200,314.864 361.020,315.000 360.800 C 315.136 360.580,315.597 360.400,316.024 360.400 C 316.451 360.400,316.800 360.220,316.800 360.000 C 316.800 359.780,317.340 359.600,318.000 359.600 C 318.660 359.600,319.200 359.420,319.200 359.200 C 319.200 358.980,319.652 358.800,320.205 358.800 C 320.758 358.800,321.523 358.627,321.905 358.415 C 322.287 358.204,323.725 357.714,325.100 357.327 C 326.475 356.939,327.600 356.483,327.600 356.311 C 327.600 356.140,328.140 356.000,328.800 356.000 C 329.460 356.000,330.000 355.820,330.000 355.600 C 330.000 355.380,330.540 355.200,331.200 355.200 C 331.860 355.200,332.400 355.020,332.400 354.800 C 332.400 354.580,332.839 354.400,333.376 354.400 C 333.913 354.400,334.464 354.220,334.600 354.000 C 334.736 353.780,335.197 353.600,335.624 353.600 C 336.051 353.600,336.400 353.420,336.400 353.200 C 336.400 352.980,336.940 352.800,337.600 352.800 C 338.260 352.800,338.800 352.620,338.800 352.400 C 338.800 352.180,339.250 352.000,339.800 352.000 C 340.350 352.000,340.800 351.820,340.800 351.600 C 340.800 351.380,341.120 351.200,341.512 351.200 C 341.903 351.200,342.483 350.840,342.800 350.400 C 343.117 349.960,343.697 349.600,344.088 349.600 C 344.480 349.600,344.800 349.420,344.800 349.200 C 344.800 348.980,345.043 348.800,345.341 348.800 C 345.638 348.800,346.446 348.260,347.137 347.600 C 347.828 346.940,348.577 346.400,348.802 346.400 C 349.219 346.400,356.000 339.795,356.000 339.389 C 356.000 339.267,356.367 338.773,356.815 338.291 C 357.264 337.810,357.734 337.007,357.859 336.508 C 357.984 336.009,358.247 335.600,358.443 335.600 C 358.640 335.600,358.800 335.240,358.800 334.800 C 358.800 334.360,358.980 334.000,359.200 334.000 C 359.420 334.000,359.600 333.640,359.600 333.200 C 359.600 332.760,359.780 332.400,360.000 332.400 C 360.220 332.400,360.400 331.860,360.400 331.200 C 360.400 330.540,360.580 330.000,360.800 330.000 C 361.020 330.000,361.200 329.460,361.200 328.800 C 361.200 328.140,361.380 327.600,361.600 327.600 C 361.832 327.600,362.000 326.293,362.000 324.480 C 362.000 322.551,362.187 321.173,362.490 320.870 C 362.877 320.483,362.877 320.215,362.490 319.595 C 362.220 319.164,362.000 317.559,362.000 316.029 C 362.000 314.499,361.820 313.136,361.600 313.000 C 361.380 312.864,361.200 312.234,361.200 311.600 C 361.200 310.966,361.020 310.336,360.800 310.200 C 360.580 310.064,360.400 309.603,360.400 309.176 C 360.400 308.749,360.220 308.400,360.000 308.400 C 359.780 308.400,359.600 308.128,359.600 307.795 C 359.600 307.462,359.440 306.877,359.245 306.495 C 359.049 306.113,358.385 304.810,357.769 303.600 C 357.152 302.390,356.412 301.162,356.124 300.871 C 355.836 300.581,355.600 300.175,355.600 299.969 C 355.600 299.458,350.834 294.800,350.312 294.800 C 350.082 294.800,349.603 294.485,349.247 294.100 C 348.404 293.187,346.250 292.000,345.438 292.000 C 345.087 292.000,344.800 291.820,344.800 291.600 C 344.800 291.380,344.260 291.200,343.600 291.200 C 342.940 291.200,342.400 291.020,342.400 290.800 C 342.400 290.580,341.961 290.400,341.424 290.400 C 340.887 290.400,340.336 290.220,340.200 290.000 C 340.064 289.780,339.243 289.600,338.376 289.600 C 337.509 289.600,336.800 289.420,336.800 289.200 C 336.800 288.951,334.475 288.800,330.624 288.800 C 326.937 288.800,324.348 288.961,324.200 289.200 C 324.064 289.420,323.063 289.600,321.976 289.600 C 320.889 289.600,320.000 289.780,320.000 290.000 C 320.000 290.220,319.280 290.400,318.400 290.400 C 317.520 290.400,316.800 290.560,316.800 290.756 C 316.800 290.952,316.215 291.207,315.500 291.323 C 313.074 291.716,310.203 292.431,309.505 292.816 C 309.123 293.027,308.279 293.200,307.629 293.200 C 306.979 293.200,306.336 293.380,306.200 293.600 C 306.064 293.820,305.434 294.000,304.800 294.000 C 304.166 294.000,303.536 294.180,303.400 294.400 C 303.264 294.620,302.533 294.800,301.776 294.800 C 301.019 294.800,300.400 294.980,300.400 295.200 C 300.400 295.420,299.871 295.600,299.224 295.600 C 298.577 295.600,297.936 295.780,297.800 296.000 C 297.664 296.220,296.933 296.400,296.176 296.400 C 295.419 296.400,294.800 296.580,294.800 296.800 C 294.800 297.020,294.170 297.200,293.400 297.200 C 292.630 297.200,292.000 297.380,292.000 297.600 C 292.000 297.820,291.381 298.000,290.624 298.000 C 289.867 298.000,289.136 298.180,289.000 298.400 C 288.864 298.620,288.223 298.800,287.576 298.800 C 286.929 298.800,286.400 298.980,286.400 299.200 C 286.400 299.420,285.680 299.600,284.800 299.600 C 283.920 299.600,283.200 299.780,283.200 300.000 C 283.200 300.220,282.671 300.400,282.024 300.400 C 281.377 300.400,280.736 300.580,280.600 300.800 C 280.464 301.020,279.733 301.200,278.976 301.200 C 278.219 301.200,277.600 301.380,277.600 301.600 C 277.600 301.820,276.970 302.000,276.200 302.000 C 275.430 302.000,274.800 302.180,274.800 302.400 C 274.800 302.620,274.260 302.800,273.600 302.800 C 272.940 302.800,272.400 302.980,272.400 303.200 C 272.400 303.420,271.680 303.600,270.800 303.600 C 269.920 303.600,269.200 303.780,269.200 304.000 C 269.200 304.220,268.570 304.400,267.800 304.400 C 267.030 304.400,266.400 304.580,266.400 304.800 C 266.400 305.020,265.770 305.200,265.000 305.200 C 264.230 305.200,263.600 305.380,263.600 305.600 C 263.600 306.207,261.621 306.078,260.971 305.429 C 260.657 305.114,260.400 304.394,260.400 303.829 C 260.400 303.263,260.220 302.800,260.000 302.800 C 259.780 302.800,259.600 302.440,259.600 302.000 C 259.600 301.560,259.447 301.200,259.261 301.200 C 259.074 301.200,258.597 300.480,258.200 299.600 C 257.803 298.720,257.326 298.000,257.139 298.000 C 256.953 298.000,256.800 297.769,256.800 297.487 C 256.800 296.617,250.426 290.400,249.533 290.400 C 249.292 290.400,248.803 290.084,248.447 289.697 C 248.091 289.311,247.305 288.740,246.700 288.430 C 246.095 288.119,245.600 287.715,245.600 287.532 C 245.600 287.350,245.240 287.200,244.800 287.200 C 244.360 287.200,244.000 287.020,244.000 286.800 C 244.000 286.580,243.640 286.400,243.200 286.400 C 242.760 286.400,242.400 286.220,242.400 286.000 C 242.400 285.780,241.950 285.600,241.400 285.600 C 240.850 285.600,240.400 285.420,240.400 285.200 C 240.400 284.980,240.040 284.800,239.600 284.800 C 239.160 284.800,238.800 284.620,238.800 284.400 C 238.800 284.180,238.260 284.000,237.600 284.000 C 236.940 284.000,236.400 283.820,236.400 283.600 C 236.400 283.380,235.860 283.200,235.200 283.200 C 234.540 283.200,234.000 283.020,234.000 282.800 C 234.000 282.580,233.460 282.400,232.800 282.400 C 232.140 282.400,231.600 282.220,231.600 282.000 C 231.600 281.780,231.060 281.600,230.400 281.600 C 229.740 281.600,229.200 281.420,229.200 281.200 C 229.200 280.980,228.660 280.800,228.000 280.800 C 227.340 280.800,226.800 280.620,226.800 280.400 C 226.800 280.180,226.260 280.000,225.600 280.000 C 224.940 280.000,224.400 279.820,224.400 279.600 C 224.400 279.380,223.961 279.200,223.424 279.200 C 222.887 279.200,222.336 279.020,222.200 278.800 C 222.064 278.580,221.513 278.400,220.976 278.400 C 220.439 278.400,220.000 278.220,220.000 278.000 C 220.000 277.780,219.460 277.600,218.800 277.600 C 218.140 277.600,217.600 277.420,217.600 277.200 C 217.600 276.980,217.060 276.800,216.400 276.800 C 215.740 276.800,215.200 276.620,215.200 276.400 C 215.200 276.180,214.862 276.000,214.449 276.000 C 214.036 276.000,213.051 275.730,212.262 275.400 C 211.472 275.070,210.370 274.800,209.813 274.800 C 209.256 274.800,208.800 274.620,208.800 274.400 C 208.800 274.180,208.260 274.000,207.600 274.000 C 206.940 274.000,206.400 273.820,206.400 273.600 C 206.400 273.380,205.961 273.200,205.424 273.200 C 204.887 273.200,204.336 273.020,204.200 272.800 C 204.064 272.580,203.513 272.400,202.976 272.400 C 202.439 272.400,202.000 272.220,202.000 272.000 C 202.000 271.780,201.460 271.600,200.800 271.600 C 200.140 271.600,199.600 271.420,199.600 271.200 C 199.600 270.980,199.060 270.800,198.400 270.800 C 197.740 270.800,197.200 270.620,197.200 270.400 C 197.200 270.180,196.660 270.000,196.000 270.000 C 195.340 270.000,194.800 269.820,194.800 269.600 C 194.800 269.380,194.260 269.200,193.600 269.200 C 192.940 269.200,192.400 269.020,192.400 268.800 C 192.400 268.580,191.961 268.400,191.424 268.400 C 190.887 268.400,190.336 268.220,190.200 268.000 C 190.064 267.780,189.513 267.600,188.976 267.600 C 188.439 267.600,188.000 267.420,188.000 267.200 C 188.000 266.980,187.460 266.800,186.800 266.800 C 186.140 266.800,185.600 266.620,185.600 266.400 C 185.600 266.180,185.060 266.000,184.400 266.000 C 183.740 266.000,183.200 265.820,183.200 265.600 C 183.200 265.380,182.660 265.200,182.000 265.200 C 181.340 265.200,180.800 265.020,180.800 264.800 C 180.800 264.580,180.485 264.394,180.100 264.386 C 179.715 264.378,178.680 263.556,177.800 262.559 C 174.987 259.374,173.270 257.600,173.000 257.600 C 172.856 257.600,172.046 256.880,171.200 256.000 C 170.354 255.120,169.469 254.400,169.231 254.400 C 168.994 254.400,168.800 254.220,168.800 254.000 C 168.800 253.780,168.570 253.600,168.288 253.600 C 168.007 253.600,167.517 253.240,167.200 252.800 C 166.883 252.360,166.343 252.000,166.000 252.000 C 165.657 252.000,165.117 251.640,164.800 251.200 C 164.483 250.760,163.903 250.400,163.512 250.400 C 163.120 250.400,162.800 250.220,162.800 250.000 C 162.800 249.780,162.440 249.600,162.000 249.600 C 161.560 249.600,161.200 249.420,161.200 249.200 C 161.200 248.980,160.840 248.800,160.400 248.800 C 159.960 248.800,159.600 248.620,159.600 248.400 C 159.600 248.180,159.255 248.000,158.833 248.000 C 158.412 248.000,158.007 247.865,157.933 247.700 C 157.712 247.201,154.378 245.600,153.562 245.600 C 153.143 245.600,152.800 245.420,152.800 245.200 C 152.800 244.980,152.260 244.800,151.600 244.800 C 150.940 244.800,150.400 244.640,150.400 244.444 C 150.400 244.248,149.815 243.991,149.100 243.873 C 148.385 243.754,146.990 243.453,146.000 243.203 C 142.081 242.212,129.694 241.091,126.600 241.447 M139.000 258.211 C 140.100 258.357,141.171 258.640,141.380 258.839 C 141.589 259.037,142.116 259.200,142.552 259.200 C 148.563 259.200,161.107 267.423,167.722 275.700 C 169.721 278.203,169.284 278.013,185.400 283.370 C 193.100 285.929,199.760 288.186,200.200 288.385 C 200.640 288.584,202.170 289.128,203.600 289.593 C 205.030 290.057,206.513 290.609,206.895 290.819 C 207.277 291.029,207.941 291.200,208.371 291.200 C 208.801 291.200,209.264 291.380,209.400 291.600 C 209.536 291.820,210.076 292.000,210.600 292.000 C 211.124 292.000,211.664 292.180,211.800 292.400 C 211.936 292.620,212.476 292.800,213.000 292.800 C 213.524 292.800,214.064 292.980,214.200 293.200 C 214.336 293.420,214.876 293.600,215.400 293.600 C 215.924 293.600,216.464 293.780,216.600 294.000 C 216.736 294.220,217.199 294.400,217.629 294.400 C 218.059 294.400,218.723 294.577,219.105 294.794 C 219.487 295.010,222.860 296.191,226.600 297.418 C 239.712 301.718,244.601 305.561,246.676 313.200 C 249.754 324.531,238.081 335.116,226.600 331.405 C 225.720 331.120,223.110 330.312,220.800 329.609 C 218.490 328.906,216.287 328.167,215.905 327.966 C 215.523 327.765,214.936 327.600,214.600 327.600 C 214.264 327.600,213.677 327.438,213.295 327.239 C 212.913 327.040,211.790 326.663,210.800 326.400 C 209.810 326.137,208.687 325.760,208.305 325.561 C 207.923 325.362,207.259 325.200,206.829 325.200 C 206.399 325.200,205.936 325.020,205.800 324.800 C 205.664 324.580,205.201 324.400,204.771 324.400 C 204.341 324.400,203.677 324.238,203.295 324.039 C 202.913 323.840,201.790 323.460,200.800 323.193 C 199.810 322.927,198.640 322.571,198.200 322.402 C 197.760 322.234,195.600 321.534,193.400 320.847 C 191.200 320.161,186.880 318.803,183.800 317.831 C 180.720 316.859,175.770 315.311,172.800 314.390 C 169.830 313.469,167.040 312.577,166.600 312.406 C 166.160 312.235,164.450 311.692,162.800 311.200 C 161.150 310.708,159.377 310.106,158.860 309.863 C 157.543 309.245,151.906 309.283,151.696 309.911 C 151.607 310.180,151.344 310.400,151.114 310.400 C 150.663 310.400,149.499 311.613,148.479 313.144 C 146.142 316.653,149.773 324.000,153.843 324.000 C 154.155 324.000,154.723 324.162,155.105 324.361 C 155.487 324.560,156.610 324.937,157.600 325.200 C 158.590 325.463,159.713 325.840,160.095 326.039 C 160.477 326.238,161.064 326.400,161.400 326.400 C 161.736 326.400,162.323 326.562,162.705 326.759 C 163.087 326.956,164.750 327.518,166.400 328.007 C 168.050 328.495,169.760 329.035,170.200 329.206 C 170.640 329.378,172.890 330.097,175.200 330.805 C 177.510 331.513,181.290 332.692,183.600 333.425 C 185.910 334.157,189.060 335.145,190.600 335.620 C 192.140 336.095,194.930 336.978,196.800 337.583 C 198.670 338.187,202.090 339.270,204.400 339.989 C 206.710 340.708,208.960 341.433,209.400 341.600 C 209.840 341.767,212.090 342.487,214.400 343.200 C 216.710 343.913,218.960 344.634,219.400 344.802 C 219.840 344.971,221.010 345.330,222.000 345.601 C 222.990 345.871,224.295 346.274,224.901 346.495 C 227.625 347.491,239.530 346.774,240.980 345.527 C 241.189 345.347,241.596 345.200,241.884 345.200 C 247.235 345.200,258.078 334.164,260.355 326.400 C 261.176 323.602,261.552 322.789,262.097 322.636 C 262.874 322.417,265.499 321.698,268.800 320.800 C 270.450 320.351,272.430 319.807,273.200 319.591 C 275.040 319.075,283.951 316.618,287.000 315.786 C 288.320 315.425,289.940 314.979,290.600 314.793 C 291.260 314.607,293.240 314.070,295.000 313.600 C 298.059 312.782,299.192 312.467,302.100 311.623 C 305.941 310.507,306.710 310.308,307.904 310.119 C 308.621 310.005,309.306 309.751,309.427 309.556 C 309.548 309.360,310.166 309.200,310.800 309.200 C 311.434 309.200,312.052 309.040,312.173 308.844 C 312.294 308.649,312.979 308.395,313.696 308.281 C 314.413 308.168,315.630 307.888,316.400 307.660 C 317.170 307.432,318.475 307.055,319.300 306.823 C 320.125 306.590,321.475 306.208,322.300 305.974 C 334.413 302.530,343.160 306.469,345.853 316.583 C 348.076 324.930,341.374 334.564,331.000 337.933 C 330.120 338.219,329.040 338.609,328.600 338.800 C 328.160 338.991,326.630 339.531,325.200 340.000 C 323.770 340.469,322.240 341.003,321.800 341.186 C 321.360 341.369,320.370 341.736,319.600 342.000 C 318.830 342.264,317.840 342.634,317.400 342.820 C 316.960 343.007,315.790 343.427,314.800 343.753 C 313.810 344.080,311.470 344.911,309.600 345.599 C 307.730 346.287,304.490 347.452,302.400 348.186 C 300.310 348.921,296.530 350.269,294.000 351.183 C 291.470 352.096,288.590 353.109,287.600 353.434 C 286.610 353.759,285.487 354.200,285.105 354.413 C 284.723 354.626,284.136 354.800,283.800 354.800 C 283.464 354.800,282.832 354.980,282.395 355.200 C 281.958 355.420,281.242 355.780,280.805 356.000 C 280.368 356.220,279.684 356.400,279.285 356.400 C 278.886 356.400,278.389 356.549,278.180 356.730 C 277.971 356.912,276.990 357.305,276.000 357.602 C 275.010 357.900,274.020 358.254,273.800 358.389 C 273.580 358.523,272.680 358.863,271.800 359.143 C 270.920 359.423,269.840 359.812,269.400 360.006 C 268.960 360.201,267.790 360.629,266.800 360.958 C 265.810 361.287,262.930 362.302,260.400 363.213 C 251.149 366.544,245.733 368.459,242.800 369.435 C 241.150 369.984,239.440 370.588,239.000 370.778 C 238.560 370.967,237.120 371.514,235.800 371.993 C 234.480 372.472,233.087 373.030,232.705 373.232 C 232.323 373.434,231.684 373.600,231.285 373.600 C 230.886 373.600,230.389 373.749,230.180 373.930 C 229.971 374.112,228.990 374.505,228.000 374.802 C 227.010 375.100,226.020 375.454,225.800 375.589 C 225.580 375.723,224.680 376.063,223.800 376.343 C 222.920 376.623,221.840 377.012,221.400 377.206 C 220.960 377.401,219.790 377.827,218.800 378.153 C 216.558 378.893,211.256 380.845,208.590 381.913 C 198.701 385.872,182.153 385.157,171.623 380.314 C 170.180 379.650,168.010 378.664,166.800 378.122 C 162.745 376.306,145.858 367.844,140.425 364.906 C 137.468 363.308,135.012 362.000,134.966 362.000 C 134.920 362.000,133.697 361.280,132.248 360.400 C 130.800 359.520,129.431 358.800,129.207 358.800 C 128.983 358.800,128.799 358.665,128.797 358.500 C 128.795 358.335,128.390 358.013,127.897 357.783 C 126.594 357.178,123.434 355.435,123.200 355.193 C 122.758 354.734,114.833 350.835,112.400 349.878 C 107.901 348.109,103.052 346.999,95.000 345.894 L 91.400 345.400 91.298 313.882 L 91.195 282.363 92.868 279.882 C 93.787 278.517,94.644 277.310,94.772 277.200 C 94.900 277.090,95.482 276.370,96.065 275.600 C 99.212 271.448,108.705 263.200,110.339 263.200 C 110.556 263.200,110.793 263.064,110.867 262.898 C 110.940 262.732,112.260 261.993,113.800 261.256 C 115.340 260.519,116.913 259.755,117.295 259.558 C 117.677 259.361,118.341 259.200,118.771 259.200 C 119.201 259.200,119.664 259.020,119.800 258.800 C 119.936 258.580,120.532 258.397,121.124 258.394 C 121.716 258.391,122.470 258.207,122.800 257.986 C 123.434 257.561,135.377 257.727,139.000 258.211 M75.953 286.944 C 76.282 287.340,76.377 296.688,76.302 321.444 L 76.200 355.400 69.000 355.400 L 61.800 355.400 61.696 321.400 C 61.600 289.791,61.641 287.365,62.273 286.900 C 63.280 286.159,75.334 286.198,75.953 286.944 M46.386 287.574 C 47.021 288.760,46.957 368.883,46.320 369.520 C 45.964 369.876,41.947 370.000,30.720 370.000 L 15.600 370.000 15.600 328.667 C 15.600 305.933,15.720 287.213,15.867 287.067 C 16.632 286.301,45.966 286.789,46.386 287.574 M124.458 300.828 C 117.831 303.482,118.377 312.963,125.263 314.817 C 132.323 316.718,137.485 308.010,132.475 302.651 C 130.560 300.603,127.026 299.800,124.458 300.828 " stroke="none" fill="#040404" fill-rule="evenodd"></path><path id="path3" d="M202.000 27.600 C 201.450 27.776,200.383 27.938,199.628 27.960 C 198.874 27.982,197.704 28.167,197.028 28.371 C 196.353 28.575,194.450 29.149,192.800 29.645 C 191.150 30.142,189.620 30.673,189.400 30.826 C 189.180 30.978,186.120 32.125,182.600 33.375 C 179.080 34.625,175.300 35.983,174.200 36.395 C 173.100 36.806,171.480 37.373,170.600 37.655 C 169.720 37.936,168.820 38.277,168.600 38.411 C 168.380 38.546,167.390 38.900,166.400 39.198 C 165.410 39.495,164.429 39.888,164.220 40.070 C 164.011 40.251,163.516 40.400,163.120 40.400 C 162.724 40.400,162.400 40.668,162.400 40.996 C 162.400 41.980,191.447 70.753,192.709 71.019 C 193.309 71.145,194.113 71.417,194.495 71.624 C 194.877 71.831,195.464 72.000,195.800 72.000 C 196.136 72.000,196.723 72.162,197.105 72.361 C 197.487 72.560,198.610 72.937,199.600 73.200 C 200.590 73.463,201.713 73.840,202.095 74.039 C 202.477 74.238,203.064 74.400,203.400 74.400 C 203.736 74.400,204.323 74.561,204.705 74.759 C 205.087 74.956,207.290 75.697,209.600 76.407 C 211.910 77.116,214.160 77.835,214.600 78.006 C 215.040 78.177,217.830 79.070,220.800 79.991 C 223.770 80.912,228.090 82.260,230.400 82.986 C 232.710 83.713,236.490 84.884,238.800 85.588 C 241.110 86.293,243.313 87.033,243.695 87.234 C 244.077 87.435,244.741 87.600,245.171 87.600 C 245.601 87.600,246.064 87.780,246.200 88.000 C 246.336 88.220,246.709 88.400,247.029 88.400 C 247.987 88.400,250.229 90.065,251.221 91.513 C 254.954 96.960,248.457 104.924,242.319 102.426 C 241.813 102.220,240.140 101.671,238.600 101.204 C 237.060 100.738,233.820 99.735,231.400 98.975 C 228.980 98.214,225.200 97.033,223.000 96.348 C 220.800 95.664,218.640 94.967,218.200 94.800 C 217.760 94.632,216.050 94.095,214.400 93.607 C 212.750 93.118,211.087 92.556,210.705 92.359 C 210.323 92.162,209.736 92.000,209.400 92.000 C 209.064 92.000,208.477 91.838,208.095 91.639 C 207.713 91.440,206.590 91.063,205.600 90.800 C 204.610 90.537,203.487 90.160,203.105 89.961 C 202.723 89.762,202.136 89.600,201.800 89.600 C 201.464 89.600,200.877 89.439,200.495 89.241 C 200.113 89.044,198.000 88.324,195.800 87.641 C 191.734 86.378,183.119 83.672,176.600 81.608 C 171.076 79.860,168.332 79.381,166.745 79.888 C 165.499 80.287,165.604 80.321,168.181 80.359 C 170.901 80.399,173.125 80.965,182.400 83.978 C 184.270 84.585,187.690 85.675,190.000 86.400 C 192.310 87.125,195.730 88.213,197.600 88.817 C 199.470 89.422,203.970 90.848,207.600 91.986 C 211.230 93.124,216.090 94.660,218.400 95.400 C 220.710 96.140,225.570 97.676,229.200 98.814 C 232.830 99.952,237.351 101.405,239.247 102.042 C 245.057 103.993,248.215 103.545,250.920 100.385 C 254.102 96.668,253.248 91.347,249.027 88.581 C 248.107 87.978,246.879 87.559,236.600 84.345 C 233.740 83.451,229.870 82.224,228.000 81.618 C 226.130 81.013,223.250 80.110,221.600 79.611 C 219.950 79.113,218.240 78.568,217.800 78.400 C 217.360 78.233,215.110 77.513,212.800 76.800 C 210.490 76.087,208.240 75.369,207.800 75.203 C 206.834 74.840,200.799 72.931,195.624 71.352 L 191.848 70.200 177.273 55.643 L 162.697 41.086 164.449 40.524 C 165.412 40.214,166.560 39.801,167.000 39.607 C 167.440 39.412,168.970 38.869,170.400 38.400 C 171.830 37.931,173.360 37.397,173.800 37.214 C 174.240 37.031,175.230 36.664,176.000 36.400 C 176.770 36.136,177.760 35.766,178.200 35.580 C 178.640 35.393,179.810 34.973,180.800 34.647 C 182.621 34.047,185.519 32.972,190.579 31.020 C 202.216 26.530,217.018 27.152,229.054 32.638 C 230.785 33.426,233.010 34.432,234.000 34.873 C 234.990 35.315,240.030 37.767,245.200 40.324 C 254.155 44.752,260.734 48.252,269.300 53.143 C 272.858 55.175,273.493 55.542,275.200 56.549 C 281.344 60.176,288.571 63.310,294.139 64.764 C 296.725 65.439,298.621 65.760,305.600 66.708 L 307.800 67.007 308.130 97.917 L 308.460 128.828 307.459 130.536 C 302.912 138.294,293.968 146.498,285.832 150.372 C 268.840 158.463,246.331 152.735,233.656 137.095 C 230.746 133.504,230.626 133.431,224.000 131.226 C 221.250 130.311,218.640 129.417,218.200 129.240 C 217.259 128.861,217.336 128.887,199.800 122.958 C 192.320 120.428,182.690 117.192,178.400 115.766 C 174.110 114.340,170.240 113.017,169.800 112.827 C 169.360 112.636,168.370 112.264,167.600 111.998 C 151.118 106.317,148.339 87.435,163.091 81.368 C 164.361 80.846,165.029 80.415,164.575 80.409 C 159.448 80.351,152.825 88.760,152.805 95.354 C 152.792 99.423,155.807 105.420,159.102 107.881 C 159.926 108.497,160.832 109.219,161.116 109.487 C 162.543 110.835,175.027 115.426,192.600 121.064 C 194.360 121.628,196.160 122.238,196.600 122.419 C 197.040 122.600,198.570 123.128,200.000 123.593 C 201.430 124.057,202.913 124.609,203.295 124.819 C 203.677 125.029,204.341 125.200,204.771 125.200 C 205.201 125.200,205.664 125.380,205.800 125.600 C 205.936 125.820,206.476 126.000,207.000 126.000 C 207.524 126.000,208.064 126.180,208.200 126.400 C 208.336 126.620,208.876 126.800,209.400 126.800 C 209.924 126.800,210.464 126.980,210.600 127.200 C 210.736 127.420,211.199 127.600,211.629 127.600 C 212.059 127.600,212.723 127.774,213.105 127.986 C 213.487 128.199,217.297 129.549,221.571 130.987 C 230.150 133.873,230.664 134.128,232.280 136.294 C 246.993 156.021,275.507 160.359,294.443 145.752 C 297.107 143.696,304.902 135.424,306.727 132.714 L 308.805 129.629 308.702 98.114 L 308.600 66.600 305.000 66.121 C 297.352 65.104,291.558 63.756,287.400 62.027 C 285.487 61.232,277.711 57.384,276.800 56.783 C 276.250 56.419,274.810 55.576,273.600 54.909 C 272.390 54.242,269.690 52.719,267.600 51.524 C 260.983 47.742,258.450 46.398,247.800 41.015 C 238.345 36.237,235.802 35.011,228.759 31.840 C 224.693 30.009,219.093 28.446,213.693 27.636 C 210.391 27.141,203.500 27.120,202.000 27.600 M353.393 83.600 C 353.393 106.370,353.441 115.685,353.500 104.300 C 353.559 92.915,353.559 74.285,353.500 62.900 C 353.441 51.515,353.393 60.830,353.393 83.600 M324.047 56.544 C 323.718 56.940,323.623 66.288,323.698 91.044 L 323.800 125.000 331.000 125.000 L 338.200 125.000 338.304 91.000 C 338.400 59.391,338.359 56.965,337.727 56.500 C 336.720 55.759,324.666 55.798,324.047 56.544 M337.502 90.900 L 337.605 124.800 330.802 124.800 L 324.000 124.800 324.000 91.067 C 324.000 72.513,324.124 57.209,324.276 57.057 C 324.428 56.905,327.443 56.830,330.976 56.890 L 337.400 57.000 337.502 90.900 M270.400 96.772 C 266.019 98.298,263.732 102.946,265.399 106.936 C 269.378 116.458,283.127 111.795,280.368 101.859 C 279.846 99.980,277.004 97.029,275.376 96.675 C 274.729 96.534,273.840 96.326,273.400 96.213 C 272.960 96.099,271.610 96.351,270.400 96.772 M276.400 97.809 C 279.562 99.437,281.162 103.679,279.822 106.885 C 276.740 114.263,266.251 112.728,265.679 104.816 C 265.251 98.911,271.106 95.085,276.400 97.809 M134.971 100.015 C 127.997 103.684,122.552 110.748,120.337 119.000 C 119.629 121.638,119.638 130.042,120.350 132.402 C 121.302 135.553,122.514 138.567,123.268 139.662 C 123.671 140.246,124.000 140.921,124.000 141.162 C 124.000 141.403,124.141 141.600,124.314 141.600 C 124.486 141.600,124.961 142.165,125.370 142.856 C 126.475 144.728,129.886 148.024,132.601 149.844 C 136.086 152.181,137.750 152.875,143.446 154.368 C 156.689 157.840,176.056 145.593,176.887 133.220 L 177.000 131.535 171.312 129.646 C 168.184 128.607,165.499 127.632,165.345 127.479 C 165.192 127.325,164.683 127.200,164.213 127.200 C 163.744 127.200,163.189 127.057,162.980 126.882 C 162.771 126.707,161.880 126.334,161.000 126.054 C 159.021 125.425,155.846 123.904,155.667 123.500 C 155.593 123.335,155.356 123.200,155.139 123.200 C 153.508 123.200,144.129 114.391,142.570 111.395 C 142.113 110.518,141.549 109.440,141.317 109.000 C 141.084 108.560,140.716 107.750,140.500 107.200 C 140.284 106.650,139.923 105.750,139.699 105.200 C 139.145 103.841,138.436 101.211,138.307 100.031 C 138.152 98.630,137.610 98.627,134.971 100.015 M137.762 100.100 C 137.838 100.375,138.120 101.590,138.390 102.800 C 140.115 110.529,147.062 119.445,154.600 123.603 C 155.480 124.088,156.380 124.618,156.600 124.780 C 157.326 125.315,162.502 127.252,169.200 129.496 C 177.719 132.349,177.542 132.075,174.694 138.000 C 163.550 161.180,128.836 158.825,121.637 134.400 C 121.345 133.410,120.948 132.078,120.753 131.440 C 120.559 130.802,120.400 128.174,120.400 125.600 C 120.400 123.026,120.559 120.398,120.753 119.760 C 120.948 119.122,121.347 117.790,121.640 116.800 C 123.364 110.978,128.522 104.462,134.070 101.100 C 136.686 99.515,137.538 99.284,137.762 100.100 M122.800 257.986 C 122.470 258.207,121.716 258.391,121.124 258.394 C 120.532 258.397,119.936 258.580,119.800 258.800 C 119.664 259.020,119.201 259.200,118.771 259.200 C 118.341 259.200,117.677 259.361,117.295 259.558 C 116.913 259.755,115.340 260.519,113.800 261.256 C 112.260 261.993,110.940 262.732,110.867 262.898 C 110.793 263.064,110.556 263.200,110.339 263.200 C 108.705 263.200,99.212 271.448,96.065 275.600 C 95.482 276.370,94.900 277.090,94.772 277.200 C 94.644 277.310,93.787 278.517,92.868 279.882 L 91.195 282.363 91.298 313.882 L 91.400 345.400 95.000 345.894 C 103.052 346.999,107.901 348.109,112.400 349.878 C 114.833 350.835,122.758 354.734,123.200 355.193 C 123.434 355.435,126.594 357.178,127.897 357.783 C 128.390 358.013,128.795 358.335,128.797 358.500 C 128.799 358.665,128.983 358.800,129.207 358.800 C 129.431 358.800,130.800 359.520,132.248 360.400 C 133.697 361.280,134.920 362.000,134.966 362.000 C 135.012 362.000,137.468 363.308,140.425 364.906 C 145.858 367.844,162.745 376.306,166.800 378.122 C 168.010 378.664,170.180 379.650,171.623 380.314 C 182.153 385.157,198.701 385.872,208.590 381.913 C 211.256 380.845,216.558 378.893,218.800 378.153 C 219.790 377.827,220.960 377.401,221.400 377.206 C 221.840 377.012,222.920 376.623,223.800 376.343 C 224.680 376.063,225.580 375.723,225.800 375.589 C 226.020 375.454,227.010 375.100,228.000 374.802 C 228.990 374.505,229.971 374.112,230.180 373.930 C 230.389 373.749,230.886 373.600,231.285 373.600 C 231.684 373.600,232.323 373.434,232.705 373.232 C 233.087 373.030,234.480 372.472,235.800 371.993 C 237.120 371.514,238.560 370.967,239.000 370.778 C 239.440 370.588,241.150 369.984,242.800 369.435 C 245.733 368.459,251.149 366.544,260.400 363.213 C 262.930 362.302,265.810 361.287,266.800 360.958 C 267.790 360.629,268.960 360.201,269.400 360.006 C 269.840 359.812,270.920 359.423,271.800 359.143 C 272.680 358.863,273.580 358.523,273.800 358.389 C 274.020 358.254,275.010 357.900,276.000 357.602 C 276.990 357.305,277.971 356.912,278.180 356.730 C 278.389 356.549,278.886 356.400,279.285 356.400 C 279.684 356.400,280.368 356.220,280.805 356.000 C 281.242 355.780,281.958 355.420,282.395 355.200 C 282.832 354.980,283.464 354.800,283.800 354.800 C 284.136 354.800,284.723 354.626,285.105 354.413 C 285.487 354.200,286.610 353.759,287.600 353.434 C 288.590 353.109,291.470 352.096,294.000 351.183 C 296.530 350.269,300.310 348.921,302.400 348.186 C 304.490 347.452,307.730 346.287,309.600 345.599 C 311.470 344.911,313.810 344.080,314.800 343.753 C 315.790 343.427,316.960 343.007,317.400 342.820 C 317.840 342.634,318.830 342.264,319.600 342.000 C 320.370 341.736,321.360 341.369,321.800 341.186 C 322.240 341.003,323.770 340.469,325.200 340.000 C 326.630 339.531,328.160 338.991,328.600 338.800 C 329.040 338.609,330.120 338.219,331.000 337.933 C 341.374 334.564,348.076 324.930,345.853 316.583 C 343.160 306.469,334.413 302.530,322.300 305.974 C 321.475 306.208,320.125 306.590,319.300 306.823 C 318.475 307.055,317.170 307.432,316.400 307.660 C 315.630 307.888,314.413 308.168,313.696 308.281 C 312.979 308.395,312.294 308.649,312.173 308.844 C 312.052 309.040,311.434 309.200,310.800 309.200 C 310.166 309.200,309.548 309.360,309.427 309.556 C 309.306 309.751,308.621 310.005,307.904 310.119 C 306.710 310.308,305.941 310.507,302.100 311.623 C 299.192 312.467,298.059 312.782,295.000 313.600 C 293.240 314.070,291.260 314.607,290.600 314.793 C 289.940 314.979,288.320 315.425,287.000 315.786 C 283.951 316.618,275.040 319.075,273.200 319.591 C 272.430 319.807,270.450 320.351,268.800 320.800 C 265.499 321.698,262.874 322.417,262.097 322.636 C 261.552 322.789,261.176 323.602,260.355 326.400 C 258.078 334.164,247.235 345.200,241.884 345.200 C 241.596 345.200,241.189 345.347,240.980 345.527 C 239.530 346.774,227.625 347.491,224.901 346.495 C 224.295 346.274,222.990 345.871,222.000 345.601 C 221.010 345.330,219.840 344.971,219.400 344.802 C 218.960 344.634,216.710 343.913,214.400 343.200 C 212.090 342.487,209.840 341.767,209.400 341.600 C 208.960 341.433,206.710 340.708,204.400 339.989 C 202.090 339.270,198.670 338.187,196.800 337.583 C 194.930 336.978,192.140 336.095,190.600 335.620 C 189.060 335.145,185.910 334.157,183.600 333.425 C 181.290 332.692,177.510 331.513,175.200 330.805 C 172.890 330.097,170.640 329.378,170.200 329.206 C 169.760 329.035,168.050 328.495,166.400 328.007 C 164.750 327.518,163.087 326.956,162.705 326.759 C 162.323 326.562,161.736 326.400,161.400 326.400 C 161.064 326.400,160.477 326.238,160.095 326.039 C 159.713 325.840,158.590 325.463,157.600 325.200 C 156.610 324.937,155.487 324.560,155.105 324.361 C 154.723 324.162,154.155 324.000,153.843 324.000 C 149.773 324.000,146.142 316.653,148.479 313.144 C 149.499 311.613,150.663 310.400,151.114 310.400 C 151.344 310.400,151.607 310.180,151.696 309.911 C 151.906 309.283,157.543 309.245,158.860 309.863 C 159.377 310.106,161.150 310.708,162.800 311.200 C 164.450 311.692,166.160 312.235,166.600 312.406 C 167.040 312.577,169.830 313.469,172.800 314.390 C 175.770 315.311,180.720 316.859,183.800 317.831 C 186.880 318.803,191.200 320.161,193.400 320.847 C 195.600 321.534,197.760 322.234,198.200 322.402 C 198.640 322.571,199.810 322.927,200.800 323.193 C 201.790 323.460,202.913 323.840,203.295 324.039 C 203.677 324.238,204.341 324.400,204.771 324.400 C 205.201 324.400,205.664 324.580,205.800 324.800 C 205.936 325.020,206.399 325.200,206.829 325.200 C 207.259 325.200,207.923 325.362,208.305 325.561 C 208.687 325.760,209.810 326.137,210.800 326.400 C 211.790 326.663,212.913 327.040,213.295 327.239 C 213.677 327.438,214.264 327.600,214.600 327.600 C 214.936 327.600,215.523 327.765,215.905 327.966 C 216.287 328.167,218.490 328.906,220.800 329.609 C 223.110 330.312,225.720 331.120,226.600 331.405 C 238.081 335.116,249.754 324.531,246.676 313.200 C 244.601 305.561,239.712 301.718,226.600 297.418 C 222.860 296.191,219.487 295.010,219.105 294.794 C 218.723 294.577,218.059 294.400,217.629 294.400 C 217.199 294.400,216.736 294.220,216.600 294.000 C 216.464 293.780,215.924 293.600,215.400 293.600 C 214.876 293.600,214.336 293.420,214.200 293.200 C 214.064 292.980,213.524 292.800,213.000 292.800 C 212.476 292.800,211.936 292.620,211.800 292.400 C 211.664 292.180,211.124 292.000,210.600 292.000 C 210.076 292.000,209.536 291.820,209.400 291.600 C 209.264 291.380,208.801 291.200,208.371 291.200 C 207.941 291.200,207.277 291.029,206.895 290.819 C 206.513 290.609,205.030 290.057,203.600 289.593 C 202.170 289.128,200.640 288.584,200.200 288.385 C 199.760 288.186,193.100 285.929,185.400 283.370 C 169.284 278.013,169.721 278.203,167.722 275.700 C 162.085 268.647,154.890 263.337,147.000 260.408 C 145.016 259.672,143.280 259.200,142.552 259.200 C 142.116 259.200,141.589 259.037,141.380 258.839 C 140.469 257.973,123.951 257.214,122.800 257.986 M137.371 258.599 C 150.078 260.682,160.338 266.677,167.334 276.108 C 168.971 278.314,169.378 278.507,179.835 282.024 C 185.096 283.793,189.760 285.406,190.200 285.607 C 190.640 285.809,195.050 287.319,200.000 288.964 C 216.772 294.536,231.654 299.615,233.984 300.562 C 255.901 309.468,246.547 337.750,224.200 330.143 C 222.220 329.469,218.710 328.325,216.400 327.600 C 214.090 326.875,210.670 325.788,208.800 325.183 C 206.930 324.579,202.700 323.245,199.400 322.218 C 192.439 320.052,182.578 316.929,176.000 314.806 C 173.470 313.990,169.510 312.726,167.200 311.998 C 164.890 311.270,161.740 310.273,160.200 309.783 C 154.005 307.809,151.156 308.401,148.564 312.200 C 144.924 317.535,147.601 322.597,155.400 325.123 C 159.166 326.343,170.015 329.769,176.600 331.818 C 179.900 332.845,184.130 334.179,186.000 334.783 C 187.870 335.388,191.290 336.470,193.600 337.189 C 195.910 337.908,198.160 338.633,198.600 338.800 C 199.040 338.968,200.750 339.508,202.400 340.000 C 204.050 340.492,205.760 341.035,206.200 341.206 C 206.640 341.376,209.340 342.248,212.200 343.142 C 215.060 344.036,218.840 345.227,220.600 345.789 C 238.491 351.495,254.975 343.346,261.218 325.711 C 261.848 323.931,262.341 323.158,262.949 322.997 C 263.417 322.873,264.520 322.586,265.400 322.359 C 268.893 321.457,272.292 320.525,274.000 320.000 C 274.550 319.831,275.810 319.471,276.800 319.200 C 277.790 318.929,279.050 318.566,279.600 318.394 C 280.150 318.222,282.040 317.703,283.800 317.241 C 285.560 316.780,289.970 315.578,293.600 314.571 C 297.230 313.564,301.190 312.468,302.400 312.135 C 304.890 311.451,306.028 311.138,309.300 310.235 C 310.565 309.886,312.635 309.314,313.900 308.965 C 315.165 308.616,316.785 308.166,317.500 307.965 C 318.215 307.764,319.385 307.436,320.100 307.235 C 320.815 307.034,322.480 306.567,323.800 306.199 C 345.567 300.115,354.505 325.730,334.173 335.926 C 332.612 336.708,329.838 337.766,326.000 339.042 C 325.010 339.371,323.840 339.793,323.400 339.980 C 322.960 340.166,321.970 340.536,321.200 340.800 C 320.430 341.064,319.440 341.431,319.000 341.614 C 318.560 341.797,317.030 342.331,315.600 342.800 C 314.170 343.269,312.640 343.803,312.200 343.986 C 311.760 344.169,310.770 344.536,310.000 344.800 C 309.230 345.064,308.240 345.424,307.800 345.600 C 307.360 345.776,306.370 346.136,305.600 346.400 C 304.830 346.664,303.840 347.034,303.400 347.220 C 302.960 347.407,301.790 347.829,300.800 348.158 C 299.810 348.487,296.930 349.502,294.400 350.413 C 286.170 353.376,279.837 355.626,278.000 356.240 C 277.010 356.570,275.840 356.993,275.400 357.180 C 274.960 357.366,273.970 357.736,273.200 358.000 C 272.430 358.264,271.440 358.631,271.000 358.814 C 270.560 358.997,269.030 359.531,267.600 360.000 C 266.170 360.469,264.640 361.003,264.200 361.186 C 263.760 361.369,262.770 361.736,262.000 362.000 C 261.230 362.264,260.240 362.634,259.800 362.820 C 259.360 363.007,258.190 363.422,257.200 363.742 C 256.210 364.062,254.680 364.600,253.800 364.937 C 252.920 365.274,248.330 366.922,243.600 368.599 C 238.870 370.276,234.100 371.984,233.000 372.395 C 231.900 372.806,230.280 373.373,229.400 373.655 C 228.520 373.936,227.620 374.277,227.400 374.411 C 227.180 374.546,226.190 374.900,225.200 375.198 C 224.210 375.495,223.229 375.888,223.020 376.070 C 222.811 376.251,222.262 376.400,221.800 376.400 C 221.338 376.400,220.789 376.549,220.580 376.730 C 220.371 376.912,219.390 377.305,218.400 377.602 C 217.410 377.900,216.420 378.254,216.200 378.389 C 215.980 378.523,215.080 378.866,214.200 379.150 C 213.320 379.435,211.837 380.012,210.904 380.434 C 209.972 380.855,209.024 381.200,208.799 381.200 C 208.574 381.200,208.077 381.362,207.695 381.561 C 207.313 381.760,206.280 382.108,205.400 382.336 C 204.520 382.563,202.900 382.986,201.800 383.275 C 199.096 383.985,185.737 383.978,183.000 383.265 C 181.900 382.978,180.190 382.559,179.200 382.334 C 175.843 381.569,174.360 380.967,164.600 376.413 C 160.451 374.477,145.043 366.769,141.200 364.707 C 136.632 362.257,133.811 360.693,133.400 360.385 C 133.180 360.220,132.325 359.706,131.500 359.243 C 130.675 358.779,129.325 358.013,128.500 357.539 C 114.627 349.579,109.806 347.705,97.833 345.613 C 96.532 345.386,94.715 345.200,93.796 345.200 L 92.125 345.200 91.837 314.492 C 91.518 280.443,91.323 283.089,94.495 278.500 C 104.935 263.398,121.040 255.923,137.371 258.599 M62.273 286.900 C 61.641 287.365,61.600 289.791,61.696 321.400 L 61.800 355.400 69.000 355.400 L 76.200 355.400 76.302 321.444 C 76.377 296.688,76.282 287.340,75.953 286.944 C 75.334 286.198,63.280 286.159,62.273 286.900 M75.757 287.833 C 76.074 288.660,76.074 353.740,75.757 354.567 C 75.549 355.109,74.568 355.200,68.957 355.200 L 62.400 355.200 62.400 321.467 C 62.400 302.913,62.520 287.613,62.667 287.467 C 63.300 286.833,75.505 287.175,75.757 287.833 M46.593 328.600 C 46.593 351.040,46.641 360.161,46.700 348.869 C 46.759 337.578,46.759 319.218,46.700 308.069 C 46.641 296.921,46.593 306.160,46.593 328.600 M123.400 300.748 C 116.290 305.164,118.960 315.600,127.200 315.600 C 135.428 315.600,138.084 304.294,130.720 300.620 C 128.947 299.736,124.917 299.806,123.400 300.748 M130.113 300.951 C 136.615 303.733,135.411 313.816,128.436 314.994 C 125.116 315.555,121.955 313.819,120.445 310.607 C 117.616 304.588,123.913 298.298,130.113 300.951 " stroke="none" fill="#5a4f41" fill-rule="evenodd"></path><path id="path4" d="M109.100 27.595 C 99.986 36.728,99.964 36.764,102.700 38.146 C 112.336 43.013,128.210 42.605,134.718 37.323 L 135.800 36.445 127.203 27.822 C 122.475 23.080,118.335 19.217,118.003 19.239 C 117.672 19.260,113.665 23.020,109.100 27.595 M120.248 22.100 C 121.505 23.255,123.629 25.347,124.967 26.748 C 126.305 28.150,128.885 30.802,130.700 32.643 C 132.515 34.483,133.997 36.216,133.993 36.494 C 133.985 37.054,130.574 38.800,129.488 38.800 C 129.110 38.800,128.800 38.980,128.800 39.200 C 128.800 39.420,128.260 39.600,127.600 39.600 C 126.940 39.600,126.400 39.780,126.400 40.000 C 126.400 40.220,125.500 40.400,124.400 40.400 C 123.300 40.400,122.400 40.580,122.400 40.800 C 122.400 41.042,120.667 41.200,118.000 41.200 C 115.333 41.200,113.600 41.042,113.600 40.800 C 113.600 40.580,112.700 40.400,111.600 40.400 C 110.500 40.400,109.600 40.220,109.600 40.000 C 109.600 39.780,109.060 39.600,108.400 39.600 C 107.740 39.600,107.200 39.420,107.200 39.200 C 107.200 38.980,106.750 38.800,106.200 38.800 C 105.650 38.800,105.200 38.620,105.200 38.400 C 105.200 38.180,104.966 38.000,104.680 38.000 C 103.740 38.000,102.006 37.011,102.003 36.473 C 102.001 36.082,117.415 20.106,117.881 20.016 C 117.926 20.007,118.991 20.945,120.248 22.100 M353.786 42.495 C 353.680 42.773,353.640 61.450,353.697 84.000 L 353.800 125.000 369.000 125.000 L 384.200 125.000 384.200 83.600 L 384.200 42.200 369.089 42.095 C 357.215 42.013,353.937 42.098,353.786 42.495 M384.000 83.600 L 384.000 124.800 369.000 124.800 L 354.000 124.800 354.000 83.600 L 354.000 42.400 369.000 42.400 L 384.000 42.400 384.000 83.600 M79.888 56.721 C 75.110 61.517,71.201 65.612,71.202 65.821 C 71.203 66.029,71.752 67.010,72.422 68.000 C 73.860 70.124,76.893 76.322,77.609 78.600 C 77.885 79.480,78.253 80.650,78.426 81.200 C 78.600 81.750,78.928 83.100,79.157 84.200 C 81.134 93.706,80.920 98.563,78.027 109.800 C 77.478 111.934,75.202 117.044,73.728 119.453 C 72.939 120.744,72.002 122.293,71.646 122.895 L 71.000 123.991 110.599 163.595 C 132.379 185.378,150.436 203.200,150.727 203.200 C 151.018 203.200,152.008 202.699,152.928 202.086 C 168.326 191.827,189.375 191.669,205.893 201.688 C 207.264 202.520,208.554 203.200,208.760 203.200 C 208.967 203.200,213.113 199.232,217.974 194.381 L 226.813 185.562 225.670 183.881 C 223.885 181.256,222.264 178.085,220.925 174.600 C 219.775 171.607,219.507 170.739,218.458 166.600 C 217.375 162.328,217.076 155.929,217.728 151.001 C 218.089 148.275,218.212 146.052,218.014 145.854 C 217.562 145.402,193.239 137.200,192.351 137.200 C 191.875 137.200,191.467 137.883,190.975 139.500 C 185.503 157.503,168.205 169.773,148.287 169.779 C 144.815 169.780,142.295 169.907,142.687 170.062 C 143.801 170.502,153.432 170.447,155.523 169.989 C 156.555 169.762,158.300 169.386,159.400 169.152 C 166.730 167.593,173.311 163.983,180.211 157.735 C 183.781 154.503,188.180 147.967,190.397 142.600 C 190.670 141.940,191.052 141.087,191.247 140.705 C 191.441 140.323,191.600 139.670,191.600 139.254 C 191.600 138.067,192.700 137.345,193.627 137.924 C 194.046 138.186,194.741 138.400,195.171 138.400 C 195.601 138.400,196.064 138.580,196.200 138.800 C 196.336 139.020,196.876 139.200,197.400 139.200 C 197.924 139.200,198.464 139.380,198.600 139.600 C 198.736 139.820,199.276 140.000,199.800 140.000 C 200.324 140.000,200.864 140.180,201.000 140.400 C 201.136 140.620,201.651 140.800,202.144 140.800 C 202.637 140.800,203.211 140.948,203.420 141.128 C 203.629 141.308,205.150 141.881,206.800 142.400 C 208.450 142.919,209.971 143.492,210.180 143.672 C 210.389 143.852,210.963 144.000,211.456 144.000 C 211.949 144.000,212.464 144.180,212.600 144.400 C 212.736 144.620,213.276 144.800,213.800 144.800 C 214.324 144.800,214.850 144.957,214.968 145.148 C 215.086 145.340,215.752 145.610,216.448 145.750 L 217.712 146.002 217.446 148.301 C 215.804 162.507,218.264 173.653,225.466 184.645 L 226.118 185.639 217.571 194.220 C 212.871 198.939,208.893 202.800,208.732 202.800 C 208.572 202.800,207.613 202.242,206.603 201.560 C 198.964 196.405,187.489 193.246,178.189 193.738 C 173.764 193.972,170.906 194.366,167.600 195.197 C 166.610 195.446,165.303 195.749,164.695 195.871 C 164.087 195.993,163.492 196.251,163.371 196.446 C 163.251 196.641,162.894 196.800,162.578 196.800 C 161.723 196.800,156.506 199.284,153.406 201.167 C 151.910 202.076,150.624 202.770,150.548 202.710 C 148.226 200.863,71.696 123.760,71.877 123.448 C 72.019 123.202,72.609 122.280,73.187 121.400 C 83.302 105.995,83.276 83.171,73.128 68.128 C 71.512 65.733,71.238 66.154,80.303 57.096 C 89.534 47.874,88.843 48.291,91.774 50.166 C 102.683 57.145,118.024 59.401,131.000 55.935 C 135.499 54.733,140.596 52.522,144.231 50.198 C 145.432 49.429,146.639 48.800,146.912 48.800 C 147.454 48.800,163.076 64.276,162.781 64.522 C 162.682 64.605,161.700 64.908,160.600 65.195 C 153.505 67.047,142.058 75.608,142.007 79.100 C 142.003 79.375,141.863 79.600,141.695 79.600 C 141.527 79.600,141.212 80.002,140.995 80.494 C 140.778 80.986,140.150 81.519,139.600 81.679 C 128.487 84.901,123.497 87.680,116.894 94.324 C 114.229 97.006,110.007 102.779,108.942 105.200 C 108.699 105.750,108.128 107.010,107.672 108.000 C 104.497 114.889,103.115 127.506,104.782 134.400 C 107.484 145.583,114.062 156.067,121.600 161.207 C 122.370 161.732,123.090 162.284,123.200 162.434 C 123.310 162.584,124.120 163.118,125.000 163.620 C 125.880 164.123,127.380 164.977,128.333 165.520 C 130.544 166.777,135.955 168.806,137.000 168.769 C 137.440 168.753,136.561 168.307,135.046 167.778 C 104.958 157.266,94.788 120.725,115.293 96.800 C 121.599 89.442,127.960 85.582,139.163 82.314 C 140.133 82.031,141.123 81.443,141.363 81.007 C 144.312 75.650,150.351 69.861,155.200 67.744 C 155.750 67.504,156.650 67.105,157.200 66.859 C 157.750 66.612,159.270 66.139,160.579 65.806 C 164.379 64.842,164.536 65.144,155.595 56.195 C 146.625 47.217,147.203 47.552,144.200 49.602 C 129.660 59.525,106.171 59.357,91.200 49.222 C 88.742 47.558,89.549 47.024,79.888 56.721 M50.766 86.034 L 41.905 94.898 50.650 103.650 C 55.460 108.463,59.576 112.351,59.797 112.290 C 63.021 111.392,66.001 94.798,64.230 87.600 C 63.175 83.309,60.985 78.009,60.021 77.413 C 59.804 77.279,55.640 81.158,50.766 86.034 M60.884 80.700 C 64.327 88.431,64.904 94.620,63.000 103.400 C 62.742 104.589,62.235 105.955,61.553 107.295 C 61.359 107.677,61.200 108.167,61.200 108.385 C 61.200 108.603,60.861 109.338,60.446 110.020 L 59.693 111.259 51.452 102.961 L 43.212 94.663 51.306 86.561 C 60.719 77.140,59.603 77.823,60.884 80.700 M232.800 159.300 C 232.800 162.623,236.249 172.965,237.644 173.827 C 238.246 174.199,246.392 166.045,246.122 165.342 C 246.008 165.044,245.709 164.798,245.457 164.797 C 244.773 164.791,237.449 161.010,235.423 159.615 C 233.313 158.164,232.800 158.103,232.800 159.300 M235.033 160.400 C 235.345 160.400,235.600 160.580,235.600 160.800 C 235.600 161.020,235.960 161.200,236.400 161.200 C 236.840 161.200,237.200 161.352,237.200 161.537 C 237.200 161.723,238.055 162.308,239.100 162.837 C 240.145 163.367,241.060 163.935,241.133 164.100 C 241.207 164.265,241.601 164.400,242.010 164.400 C 242.418 164.400,242.864 164.580,243.000 164.800 C 243.136 165.020,243.597 165.200,244.024 165.200 C 245.441 165.200,244.833 166.208,241.432 169.500 C 239.062 171.793,237.961 172.617,237.715 172.279 C 237.353 171.781,236.544 170.053,235.946 168.500 C 235.756 168.005,235.434 167.195,235.230 166.700 C 234.531 165.000,233.575 158.422,234.241 159.900 C 234.365 160.175,234.722 160.400,235.033 160.400 M138.400 169.200 C 138.730 169.413,139.630 169.569,140.400 169.547 L 141.800 169.505 140.600 169.200 C 138.724 168.723,137.661 168.723,138.400 169.200 M173.800 209.985 C 169.396 210.738,162.400 213.633,162.400 214.702 C 162.400 215.507,178.787 232.000,179.587 232.000 C 179.928 232.000,184.075 228.124,188.803 223.386 L 197.400 214.771 196.400 213.997 C 195.248 213.105,191.116 211.369,188.200 210.553 C 185.778 209.875,176.572 209.512,173.800 209.985 M185.600 210.800 C 185.600 211.020,186.320 211.200,187.200 211.200 C 188.080 211.200,188.800 211.380,188.800 211.600 C 188.800 211.820,189.340 212.000,190.000 212.000 C 190.660 212.000,191.200 212.180,191.200 212.400 C 191.200 212.620,191.524 212.800,191.920 212.800 C 192.814 212.800,194.793 213.694,194.797 214.100 C 194.799 214.265,195.070 214.400,195.400 214.400 C 195.730 214.400,196.000 214.533,196.000 214.696 C 196.000 215.219,180.227 230.800,179.699 230.800 C 179.211 230.800,163.602 215.250,163.601 214.763 C 163.600 214.632,164.455 214.118,165.500 213.619 C 166.545 213.120,167.713 212.552,168.095 212.356 C 168.477 212.160,169.141 212.000,169.571 212.000 C 170.001 212.000,170.464 211.820,170.600 211.600 C 170.736 211.380,171.467 211.200,172.224 211.200 C 172.981 211.200,173.600 211.020,173.600 210.800 C 173.600 210.551,175.867 210.400,179.600 210.400 C 183.333 210.400,185.600 210.551,185.600 210.800 M15.786 287.295 C 15.680 287.573,15.640 306.250,15.697 328.800 L 15.800 369.800 31.000 369.800 L 46.200 369.800 46.200 328.400 L 46.200 287.000 31.089 286.895 C 19.215 286.813,15.937 286.898,15.786 287.295 M46.000 328.400 L 46.000 369.200 31.000 369.200 L 16.000 369.200 16.000 328.400 L 16.000 287.600 31.000 287.600 L 46.000 287.600 46.000 328.400 " stroke="none" fill="#168870" fill-rule="evenodd"></path></g></svg>